<svg width="188" height="34" viewBox="0 0 188 34" fill="none" xmlns="http://www.w3.org/2000/svg">
<g clip-path="url(#clip0_12326_46828)">
<path d="M49.5727 33.2033H49.4998L38.8955 4.35645H32.2004V33.5999H35.9568L35.8093 4.75311H35.8822L46.4812 33.5999H53.1407V4.35645H49.4572L49.5692 33.2033H49.5727Z" fill="#AEE760"/>
<path d="M70.4739 7.35706C74.4508 7.35706 77.2809 10.2017 78.1343 15.0221H81.8516C80.92 8.10694 76.7174 3.95898 70.4686 3.95898C62.842 3.95898 58.3442 9.52926 58.3442 18.9774C58.3442 28.4255 62.8473 33.9958 70.4686 33.9958C76.6765 33.9958 80.92 29.7704 81.8516 22.7344H78.1343C77.2809 27.6738 74.4899 30.5977 70.4739 30.5977C65.3788 30.5977 62.3282 26.2873 62.3282 18.9774C62.3282 11.6675 65.3788 7.35706 70.4739 7.35706Z" fill="#AEE760"/>
<path d="M90.5573 4.35645H86.6533V33.5999H90.5573V4.35645Z" fill="#AEE760"/>
<path d="M101.156 20.2022H114.212V16.8834H101.156V7.63364H115.512V4.35645H97.2522V33.5999H115.922V30.3171H101.156V20.2022Z" fill="#AEE760"/>
<path d="M138.198 33.2033H138.125L127.528 4.35645H120.833V33.5999H124.589L124.436 4.75311H124.514L135.111 33.5999H141.766V4.35645H138.087L138.196 33.2033H138.198Z" fill="#AEE760"/>
<path d="M145.785 7.63364H154.118V33.5999H158.021V7.63364H166.354V4.35645H145.785V7.63364Z" fill="#AEE760"/>
<path d="M177.988 19.1439C179.14 18.8058 180.224 18.6018 181.89 17.9199C184.039 17.0699 186.683 15.215 186.683 11.5789C186.683 7.17599 182.871 3.9668 177.703 3.9668C172.536 3.9668 168.724 7.18165 168.724 11.5789V11.6677C168.783 16.7752 174.873 16.8055 177.263 16.6279C176.105 17.0038 174.85 17.3778 173.56 17.8576C171.295 18.7019 167.856 21.0157 167.856 25.3658C167.856 30.5659 172.315 33.9998 177.703 33.9998C183.092 33.9998 187.55 31.0079 187.55 25.8078C187.55 19.5349 180.409 19.1023 177.991 19.1477L177.988 19.142V19.1439ZM174.72 15.1829C174.72 15.1829 174.701 15.1678 174.695 15.1621C173.67 14.3386 173.062 13.1033 173.062 11.7433C173.062 9.28397 174.877 7.38188 177.702 7.38188C180.527 7.38188 182.381 9.28397 182.381 11.7433C182.381 12.6499 182.102 13.5037 181.606 14.2177C181.19 14.8165 180.61 15.2434 179.993 15.5569C179.938 15.5834 179.885 15.6136 179.826 15.64C178.164 16.4485 176.217 16.3276 174.72 15.181V15.1829ZM177.702 30.5602C174.567 30.5602 172.194 28.1953 172.194 25.1089C172.194 23.1029 173.17 21.488 174.69 20.5813C174.788 20.5246 174.886 20.4718 174.98 20.4207C176.77 19.4253 178.873 19.4404 180.628 20.5039C180.703 20.5511 180.742 20.5775 180.742 20.5775C182.272 21.4842 183.248 23.1048 183.248 25.1108C183.248 28.201 180.87 30.5621 177.7 30.5621L177.702 30.5602Z" fill="#AEE760"/>
<path d="M28.4795 22.9268H0.00512695V26.2455H28.4795V22.9268Z" fill="#AEE760"/>
<path d="M4.82129 30.9947L3.89863 33.5995H0L2.73242 26.2461L3.49686 26.7674C4.82129 27.6684 5.37062 29.4307 4.81595 30.989L4.82129 30.9947Z" fill="#AEE760"/>
<path d="M28.4799 33.5997H24.4284L23.5217 31.0875C22.9422 29.4819 23.5306 27.6686 24.919 26.7884L25.7617 26.252L28.4781 33.6053V33.5997H28.4799Z" fill="#AEE760"/>
<path d="M25.7614 26.2477H21.813L20.6308 22.929L14.174 4.7524H14.11L7.67446 22.9271L6.50291 26.2459H2.73584L3.96605 22.9271L10.8673 4.35573H14.03L12.4869 0H16.0726L24.5365 22.9271L25.7632 26.2459L25.7614 26.2477Z" fill="#AEE760"/>
</g>
<defs>
<clipPath id="clip0_12326_46828">
<rect width="187.55" height="34" fill="white"/>
</clipPath>
</defs>
</svg>
