<svg width="128" height="128" viewBox="0 0 128 128" fill="none" xmlns="http://www.w3.org/2000/svg">
<rect width="128" height="128" fill="black"/>
<path d="M86.0501 50.5567H78.9268C78.0969 50.5567 77.3073 50.2005 76.758 49.5806L73.8684 46.3163C73.4383 45.8291 72.8184 45.5519 72.1699 45.5519C71.5214 45.5519 70.9015 45.8308 70.4714 46.3163L67.9934 49.1169C67.182 50.0325 66.0177 50.5583 64.7947 50.5583H25.8036C24.6931 53.7235 23.969 57.0667 23.6801 60.5342H60.4889C61.1357 60.5342 61.7556 60.2704 62.2025 59.8034L65.6297 56.2267C66.0581 55.7798 66.6494 55.5278 67.2677 55.5278H67.4088C68.0589 55.5278 68.6772 55.8067 69.1073 56.2939L71.9952 59.5581C72.5445 60.1797 73.3341 60.5342 74.1641 60.5342H104.209C103.92 57.065 103.196 53.7218 102.086 50.5583H86.0484L86.0501 50.5567Z" fill="white"/>
<path d="M45.9552 81.5107C46.602 81.5107 47.2219 81.2469 47.6688 80.7799L51.096 77.2031C51.5244 76.7562 52.1158 76.5042 52.734 76.5042H52.8751C53.5253 76.5042 54.1435 76.7831 54.5736 77.2687L57.4615 80.5329C58.0109 81.1545 58.8005 81.509 59.6304 81.509H100.347C101.872 78.3573 102.99 74.9754 103.655 71.4323H64.573C63.7431 71.4323 62.9535 71.0762 62.4041 70.4562L59.5162 67.192C59.0861 66.7048 58.4662 66.4276 57.8177 66.4276C57.1692 66.4276 56.5493 66.7065 56.1192 67.192L53.6412 69.9926C52.8298 70.9082 51.6655 71.434 50.4408 71.434H24.2345C24.8998 74.9771 26.0187 78.359 27.5424 81.5107H45.9535H45.9552Z" fill="white"/>
<path d="M74.8411 39.6535C75.4879 39.6535 76.1078 39.3897 76.5547 38.9227L79.9819 35.3459C80.4103 34.8991 81.0016 34.6471 81.6199 34.6471H81.761C82.4111 34.6471 83.0294 34.9259 83.4595 35.4131L86.3474 38.6774C86.8967 39.299 87.6863 39.6535 88.5163 39.6535H96.2594C88.8859 29.8523 77.1578 23.512 63.9463 23.512C50.7348 23.512 39.0067 29.8523 31.6315 39.6535H74.8411Z" fill="white"/>
<path d="M59.2877 91.4965H48.6987C47.8687 91.4965 47.0791 91.1404 46.5298 90.5205L43.6419 87.2562C43.2118 86.769 42.5919 86.4918 41.9434 86.4918C41.2949 86.4918 40.675 86.7707 40.2449 87.2562L37.7669 90.0568C36.9555 90.9724 35.7912 91.4982 34.5665 91.4982H34.4019C41.7787 99.4026 52.2838 104.35 63.948 104.35C75.6123 104.35 86.1156 99.4026 93.4942 91.4982H59.2877V91.4965Z" fill="white"/>
</svg>
