<svg width="128" height="128" viewBox="0 0 128 128" fill="none" xmlns="http://www.w3.org/2000/svg">
<g clip-path="url(#clip0_4949_38257)">
<path d="M27.0325 46.4367V81.8157C27.0325 84.0901 28.2238 86.1479 30.2094 87.3031L60.8592 104.993C62.8087 106.112 65.2274 106.112 67.1769 104.993L97.8267 87.3031C99.7762 86.184 101.004 84.0901 101.004 81.8157V46.4367C101.004 44.1623 99.8123 42.1045 97.8267 40.9493L67.1769 23.2598C65.2274 22.1406 62.8087 22.1406 60.8592 23.2598L30.2094 40.9493C28.2599 42.0684 27.0686 44.1623 27.0686 46.4367H27.0325Z" fill="#213147"/>
<path d="M70.6787 70.9859L66.3105 82.9715C66.2022 83.2964 66.2022 83.6574 66.3105 84.0184L73.8195 104.632L82.5199 99.6141L72.0867 70.9859C71.8339 70.3361 70.9314 70.3361 70.6787 70.9859Z" fill="#12AAFF"/>
<path d="M79.4513 50.8414C79.1986 50.1915 78.296 50.1915 78.0433 50.8414L73.6751 62.8269C73.5668 63.1518 73.5668 63.5129 73.6751 63.8739L85.9856 97.6284L94.6859 92.6103L79.4513 50.8775V50.8414Z" fill="#12AAFF"/>
<path d="M64 24.5957C64.2166 24.5957 64.4332 24.6679 64.6137 24.7762L97.7545 43.9098C98.1516 44.1264 98.3683 44.5596 98.3683 44.9928V83.26C98.3683 83.6932 98.1155 84.1264 97.7545 84.343L64.6137 103.477C64.4332 103.585 64.2166 103.657 64 103.657C63.7834 103.657 63.5668 103.585 63.3863 103.477L30.2455 84.343C29.8484 84.1264 29.6318 83.6932 29.6318 83.26V44.9567C29.6318 44.5235 29.8845 44.0903 30.2455 43.8737L63.3863 24.7401C63.5668 24.6318 63.7834 24.5596 64 24.5596V24.5957ZM64 19C62.8087 19 61.6534 19.2888 60.5704 19.9025L27.4296 39.0361C25.2996 40.2635 24 42.5018 24 44.9567V83.2239C24 85.6787 25.2996 87.917 27.4296 89.1444L60.5704 108.278C61.6173 108.892 62.8087 109.181 64 109.181C65.1913 109.181 66.3466 108.892 67.4296 108.278L100.57 89.1444C102.7 87.917 104 85.6787 104 83.2239V44.9567C104 42.5018 102.7 40.2635 100.57 39.0361L67.3935 19.9025C66.3466 19.2888 65.1552 19 63.9639 19H64Z" fill="#9DCCED"/>
<path d="M42.0505 97.6645L45.1191 89.2891L51.2563 94.3793L45.5162 99.6501L42.0505 97.6645Z" fill="#213147"/>
<path d="M61.184 42.249H52.7725C52.1588 42.249 51.5812 42.6461 51.3645 43.2237L33.3501 92.61L42.0505 97.6281L61.9061 43.2237C62.0866 42.7183 61.7256 42.2129 61.2201 42.2129L61.184 42.249Z" fill="white"/>
<path d="M75.9134 42.249H67.5018C66.8881 42.249 66.3105 42.6461 66.0939 43.2237L45.5162 99.6136L54.2166 104.632L76.5993 43.2237C76.7798 42.7183 76.4188 42.2129 75.9134 42.2129V42.249Z" fill="white"/>
</g>
<defs>
<clipPath id="clip0_4949_38257">
<rect width="128" height="128" fill="white"/>
</clipPath>
</defs>
</svg>
