<svg width="128" height="129" viewBox="0 0 128 129" fill="none" xmlns="http://www.w3.org/2000/svg">
<g clip-path="url(#clip0_4949_38257)">
<rect width="128" height="128" transform="translate(0 0.53418)" fill="#F1F3F4"/>
<path d="M27.0325 46.9708V82.3499C27.0325 84.6243 28.2238 86.682 30.2094 87.8373L60.8592 105.527C62.8087 106.646 65.2274 106.646 67.1769 105.527L97.8267 87.8373C99.7762 86.7182 101.004 84.6243 101.004 82.3499V46.9708C101.004 44.6965 99.8123 42.6387 97.8267 41.4835L67.1769 23.7939C65.2274 22.6748 62.8087 22.6748 60.8592 23.7939L30.2094 41.4835C28.2599 42.6026 27.0686 44.6965 27.0686 46.9708H27.0325Z" fill="#213147"/>
<path d="M70.6787 71.5201L66.3105 83.5056C66.2022 83.8306 66.2022 84.1916 66.3105 84.5526L73.8195 105.166L82.5199 100.148L72.0867 71.5201C71.8339 70.8703 70.9314 70.8703 70.6787 71.5201Z" fill="#12AAFF"/>
<path d="M79.4513 51.3755C79.1986 50.7257 78.296 50.7257 78.0433 51.3755L73.6751 63.3611C73.5668 63.686 73.5668 64.047 73.6751 64.408L85.9856 98.1626L94.6859 93.1445L79.4513 51.4116V51.3755Z" fill="#12AAFF"/>
<path d="M64 25.1298C64.2166 25.1298 64.4332 25.2021 64.6137 25.3104L97.7545 44.4439C98.1516 44.6605 98.3683 45.0938 98.3683 45.527V83.7941C98.3683 84.2273 98.1155 84.6606 97.7545 84.8772L64.6137 104.011C64.4332 104.119 64.2166 104.191 64 104.191C63.7834 104.191 63.5668 104.119 63.3863 104.011L30.2455 84.8772C29.8484 84.6606 29.6318 84.2273 29.6318 83.7941V45.4909C29.6318 45.0577 29.8845 44.6244 30.2455 44.4078L63.3863 25.2743C63.5668 25.166 63.7834 25.0937 64 25.0937V25.1298ZM64 19.5342C62.8087 19.5342 61.6534 19.823 60.5704 20.4367L27.4296 39.5703C25.2996 40.7977 24 43.036 24 45.4909V83.758C24 86.2129 25.2996 88.4512 27.4296 89.6786L60.5704 108.812C61.6173 109.426 62.8087 109.715 64 109.715C65.1913 109.715 66.3466 109.426 67.4296 108.812L100.57 89.6786C102.7 88.4512 104 86.2129 104 83.758V45.4909C104 43.036 102.7 40.7977 100.57 39.5703L67.3935 20.4367C66.3466 19.823 65.1553 19.5342 63.9639 19.5342H64Z" fill="#9DCCED"/>
<path d="M42.0505 98.1987L45.1191 89.8232L51.2563 94.9135L45.5162 100.184L42.0505 98.1987Z" fill="#213147"/>
<path d="M61.184 42.7832H52.7725C52.1588 42.7832 51.5812 43.1803 51.3645 43.7579L33.3501 93.1442L42.0505 98.1623L61.9061 43.7579C62.0866 43.2525 61.7256 42.7471 61.2201 42.7471L61.184 42.7832Z" fill="white"/>
<path d="M75.9134 42.7832H67.5018C66.8881 42.7832 66.3105 43.1803 66.0939 43.7579L45.5162 100.148L54.2166 105.166L76.5993 43.7579C76.7798 43.2525 76.4188 42.7471 75.9134 42.7471V42.7832Z" fill="white"/>
</g>
<defs>
<clipPath id="clip0_4949_38257">
<rect width="128" height="128" fill="white" transform="translate(0 0.53418)"/>
</clipPath>
</defs>
</svg>
