<svg width="503" height="128" viewBox="0 0 503 128" fill="none" xmlns="http://www.w3.org/2000/svg">
<g clip-path="url(#clip0_4958_38289)">
<path d="M4.36047 38.9223V89.0774C4.36047 92.1519 6.14886 95.2263 8.72091 96.7534L52.2248 121.831C55.038 123.358 58.3737 123.358 61.1868 121.831L104.691 96.7534C107.504 95.2263 109.051 92.1519 109.051 89.0774V38.9223C109.051 35.8479 107.263 32.7735 104.691 31.2464L61.1668 6.16881C58.3536 4.64165 55.0179 4.64165 52.2047 6.16881L8.70082 31.2464C5.88763 32.7735 4.36047 35.8479 4.36047 38.9223Z" fill="#213147"/>
<path d="M66.2908 73.7256L60.142 90.6248C59.8807 91.1272 59.8807 91.6497 60.142 92.152L70.8924 121.329L83.1699 114.155L68.3203 73.7256C68.0792 72.7008 66.7931 72.7008 66.2908 73.7256Z" fill="#12AAFF"/>
<path d="M78.5683 45.0713C78.3071 44.0465 77.0411 44.0465 76.5187 45.0713L70.3699 61.9706C70.1086 62.4729 70.1086 62.9954 70.3699 63.4977L87.7714 111.362L100.049 104.188L78.5683 45.0713Z" fill="#12AAFF"/>
<path d="M56.5652 7.95723C56.8264 7.95723 57.0675 7.95723 57.3288 8.21845L104.409 35.3456C104.912 35.6068 105.173 36.1092 105.173 36.8728V91.1271C105.173 91.6294 104.912 92.4131 104.409 92.6542L57.3288 119.781C57.0675 120.043 56.8264 120.043 56.5652 120.043C56.304 120.043 56.0628 120.043 55.8016 119.781L8.72092 92.6542C8.21857 92.393 7.95734 91.8907 7.95734 91.1271V36.8728C7.95734 36.3704 8.21857 35.5867 8.72092 35.3456L55.8016 8.21845C56.0427 7.95723 56.304 7.95723 56.5652 7.95723ZM56.5652 0.0200195C54.7768 0.0200195 53.2296 0.522374 51.7024 1.30605L4.62171 28.4332C1.54729 30.2216 -0.241089 33.296 -0.241089 36.8728V91.1271C-0.241089 94.4627 1.54729 97.7783 4.62171 99.5666L51.7024 126.694C53.2296 127.457 54.7768 127.98 56.5652 127.98C58.3536 127.98 59.9008 127.477 61.428 126.694L108.509 99.5666C111.583 97.7783 113.371 94.7038 113.371 91.1271V36.8728C113.371 33.5371 111.583 30.2216 108.509 28.4332L61.6691 1.30605C60.142 0.542469 58.5947 0.0200195 56.8063 0.0200195H56.5652Z" fill="#9DCCED"/>
<path d="M25.6001 111.342L29.9404 99.5664L38.6412 106.74L30.4629 114.416L25.6001 111.342Z" fill="#213147"/>
<path d="M52.7272 33.0347H40.6908C39.9272 33.0347 38.9024 33.537 38.6412 34.3207L13.0613 104.429L25.3388 111.603L53.4908 34.5618C53.752 33.7982 53.2296 33.0347 52.466 33.0347H52.7272Z" fill="white"/>
<path d="M73.4444 33.0346H61.4079C60.6444 33.0346 59.6196 33.5369 59.3583 34.3206L30.2017 114.155L42.4792 121.328L74.2079 34.3206C74.4692 33.557 73.9467 32.7935 73.1831 32.7935L73.4444 33.0346Z" fill="white"/>
<path d="M164.049 47.623C165.335 47.623 166.36 47.8843 167.123 48.3866C167.887 48.889 168.651 49.9138 169.434 51.1998L185.047 79.3518C185.309 79.613 185.309 79.8541 185.047 80.1154C185.047 80.3766 184.786 80.3766 184.284 80.3766H178.396C177.894 80.3766 177.633 80.1154 177.371 79.8742L174.016 73.7254H152.013L148.677 79.8742C148.416 80.3766 148.175 80.3766 147.652 80.3766H141.503C141.001 80.3766 140.74 80.3766 140.74 80.1154C140.74 79.8541 140.74 79.613 140.74 79.3518L156.092 51.1998C156.855 49.6727 157.619 48.889 158.403 48.3866C159.186 47.8843 159.93 47.623 160.954 47.623H163.768H164.049ZM154.826 68.3603H170.941L163.527 54.5354C163.265 54.2742 163.265 54.2742 163.024 54.2742H162.763C162.502 54.2742 162.261 54.2742 162.261 54.5354L154.826 68.3603Z" fill="#213147"/>
<path d="M219.067 47.623C222.644 47.623 225.216 48.3866 226.743 50.175C228.27 51.7022 229.054 54.2742 229.054 57.3486V59.9006C229.054 62.7138 228.551 64.7634 227.527 66.2905C226.502 67.8177 224.713 68.8425 222.161 69.365L230.099 79.3518C230.36 79.613 230.36 79.8541 230.36 80.1154C230.36 80.3766 230.099 80.6177 229.596 80.6177H223.447C222.945 80.6177 222.684 80.6177 222.684 80.3565C222.423 80.3565 222.423 80.0953 222.182 79.8541L214.767 70.1285H199.676V79.5929C199.676 80.3565 199.415 80.6177 198.651 80.6177H193.527C192.764 80.6177 192.502 80.3565 192.502 79.5929V49.1502C192.502 48.1254 193.005 47.623 194.03 47.623H219.368H219.067ZM199.616 64.5022H217.52C219.047 64.5022 220.333 64.2409 220.855 63.4774C221.619 62.7138 221.88 61.689 221.88 60.403V58.3533C221.88 56.8262 221.619 55.8014 220.855 55.2789C220.092 54.5154 219.067 54.2541 217.52 54.2541H200.118C199.616 54.2541 199.616 54.5154 199.616 54.7565V64.5022Z" fill="#213147"/>
<path d="M268.458 47.623C271.794 47.623 274.085 48.3866 275.371 49.6727C276.657 50.9587 277.42 53.0083 277.42 55.5603V57.8711C277.42 60.423 276.396 62.4727 274.346 63.7587C276.396 65.0447 277.682 67.0943 277.682 69.9075V72.7207C277.682 74.0067 277.42 75.0315 277.179 76.0563C276.938 77.0811 276.416 77.8447 275.893 78.6083C275.13 79.3719 274.366 79.8943 273.341 80.1354C272.317 80.3967 271.03 80.6378 269.503 80.6378H241.613C240.588 80.6378 240.085 80.1355 240.085 79.1106V49.1703C240.085 48.1455 240.588 47.6431 241.613 47.6431H268.74H268.458V47.623ZM247.219 61.1866H266.409C267.936 61.1866 268.961 60.9254 269.483 60.423C270.006 59.9207 270.247 59.3982 270.247 58.3734V56.8463C270.247 55.8215 269.986 55.0579 269.483 54.7967C268.981 54.2943 267.956 54.0331 266.931 54.0331H247.741C247.239 54.0331 247.239 54.2943 247.239 54.5354V61.1866H247.219ZM247.219 66.3106V73.223C247.219 73.7254 247.48 73.7254 247.721 73.7254H266.911C268.197 73.7254 268.961 73.4642 269.463 72.9618C269.966 72.4595 270.227 71.6758 270.227 70.9122V69.1238C270.227 68.099 269.966 67.3354 269.463 66.813C268.961 66.2906 267.936 66.0494 266.128 66.0494H246.958L247.219 66.3106Z" fill="#213147"/>
<path d="M295.063 47.623C295.827 47.623 296.088 47.8843 296.088 48.6479V79.3518C296.088 80.1154 295.827 80.3766 295.063 80.3766H289.939C289.176 80.3766 288.914 80.1154 288.914 79.3518V48.6479C288.914 47.8843 289.176 47.623 289.939 47.623H295.063Z" fill="#213147"/>
<path d="M344.455 47.623C345.218 47.623 345.479 47.8843 345.479 48.6479V53.2494C345.479 54.013 345.218 54.2742 344.455 54.2742H329.605V79.3518C329.605 80.1154 329.344 80.3766 328.58 80.3766H323.456C322.693 80.3766 322.431 80.1154 322.431 79.3518V54.2742H307.582C306.818 54.2742 306.557 54.013 306.557 53.2494V48.6479C306.557 47.8843 306.818 47.623 307.582 47.623H344.173H344.455Z" fill="#213147"/>
<path d="M381.569 47.623C385.145 47.623 387.717 48.3866 389.245 50.175C390.772 51.7022 391.555 54.2742 391.555 57.3486V59.9006C391.555 62.7138 391.053 64.7634 390.028 66.2905C389.004 67.8177 387.215 68.8425 384.663 69.365L392.6 79.3518C392.862 79.613 392.862 79.8541 392.862 80.1154C392.862 80.3766 392.6 80.6177 392.098 80.6177H385.949C385.447 80.6177 385.186 80.6177 385.186 80.3565C384.924 80.3565 384.924 80.0953 384.683 79.8541L377.269 70.1285H362.178V79.5929C362.178 80.3565 361.917 80.6177 361.153 80.6177H356.029C355.265 80.6177 355.004 80.3565 355.004 79.5929V49.1502C355.004 48.1254 355.507 47.623 356.531 47.623H381.87H381.569ZM362.117 64.5022H380.021C381.549 64.5022 382.835 64.2409 383.357 63.4774C384.121 62.7138 384.382 61.689 384.382 60.403V58.3533C384.382 56.8262 384.121 55.8014 383.357 55.2789C382.593 54.5154 381.569 54.2541 380.021 54.2541H362.62C362.117 54.2541 362.117 54.5154 362.117 54.7565V64.5022Z" fill="#213147"/>
<path d="M407.932 47.623C408.696 47.623 408.957 47.8843 408.957 48.6479V67.3355C408.957 68.6215 408.957 69.6463 409.218 70.4099C409.479 71.1734 409.721 71.937 410.243 72.4595C410.765 72.9819 411.268 73.223 412.031 73.4843C412.795 73.7455 413.82 73.7455 415.106 73.7455H428.167C429.453 73.7455 430.478 73.7455 431.241 73.4843C432.005 73.223 432.769 72.9819 433.03 72.4595C433.532 71.9571 433.793 71.1734 434.055 70.4099C434.316 69.6463 434.316 68.6215 434.316 67.3355V48.6479C434.316 47.8843 434.577 47.623 435.341 47.623H440.465C441.228 47.623 441.49 47.8843 441.49 48.6479V68.099C441.49 70.4099 441.228 72.1982 440.726 73.7254C440.224 75.2526 439.44 76.5386 438.415 77.5634C437.39 78.5882 436.104 79.3518 434.316 79.613C432.527 80.1154 430.739 80.3766 428.167 80.3766H414.603C412.293 80.3766 410.243 80.1154 408.455 79.613C406.927 79.1106 405.38 78.327 404.355 77.5634C403.331 76.5386 402.567 75.2526 402.045 73.7254C401.542 72.1982 401.281 70.1486 401.281 68.099V48.6479C401.281 47.8843 401.542 47.623 402.306 47.623H407.43H407.932Z" fill="#213147"/>
<path d="M461.664 47.623C462.428 47.623 462.95 47.623 463.452 47.8843C463.955 47.8843 464.477 48.1455 464.738 48.3866C465 48.6479 465.502 48.889 465.763 49.4114C466.024 49.9138 466.266 50.4362 466.788 51.1998L476.514 73.7254C476.775 73.9866 476.775 74.2278 477.277 74.2278H477.78C478.041 74.2278 478.282 73.9665 478.543 73.7254L488.269 51.1998C488.53 50.4362 488.771 49.9138 489.294 49.4114C489.555 48.9091 489.796 48.6479 490.318 48.3866C490.58 48.1254 491.082 47.8843 491.604 47.8843C492.127 47.8843 492.629 47.623 493.393 47.623H498.517C500.044 47.623 501.33 47.8843 501.852 48.6479C502.355 49.4114 502.616 50.6975 502.616 52.4858V79.3518C502.616 80.1154 502.355 80.3766 501.591 80.3766H496.728C495.965 80.3766 495.704 80.1154 495.704 79.3518V54.7967C495.704 54.5355 495.442 54.2943 495.442 54.2943H494.94C494.679 54.2943 494.438 54.5555 494.438 54.5555L484.973 75.5339C484.712 76.2975 484.21 77.061 483.687 77.5835C483.165 78.1059 482.924 78.6083 482.401 79.1106C481.899 79.3719 481.376 79.8742 480.874 79.8742C480.372 80.1354 479.588 80.1354 478.824 80.1354H476.514C475.75 80.1354 474.986 80.1354 474.464 79.8742C473.942 79.613 473.439 79.3719 472.937 79.1106C472.435 78.8494 472.173 78.3471 471.651 77.5835C471.149 77.0811 470.887 76.2975 470.365 75.5339L460.9 54.5555C460.9 54.2943 460.639 54.2943 460.398 54.2943H459.896C459.635 54.2943 459.635 54.5555 459.635 54.7967V79.3719C459.635 80.1354 459.373 80.3967 458.61 80.3967H453.727C452.963 80.3967 452.702 80.1354 452.702 79.3719V52.4858C452.702 50.6975 452.963 49.4114 453.466 48.6479C453.968 47.8843 455.254 47.623 456.801 47.623H461.925H461.664Z" fill="#213147"/>
</g>
<defs>
<clipPath id="clip0_4958_38289">
<rect width="502.355" height="128" fill="white"/>
</clipPath>
</defs>
</svg>
