<svg width="512" height="104" viewBox="0 0 512 104" fill="none" xmlns="http://www.w3.org/2000/svg">
<g clip-path="url(#clip0_7058_141636)">
<path d="M138.479 33.7554H144.035L159.606 69.9246H152.236L148.872 61.6477H133.188L129.937 69.9246H122.719L138.441 33.7554H138.479ZM146.642 56.1297L141.087 41.4276L135.417 56.1297H146.642Z" fill="black"/>
<path d="M166.522 33.7554H173.93L183.794 61.0807L193.961 33.7554H200.915L186.289 69.9246H180.733L166.522 33.7554Z" fill="black"/>
<path d="M223.894 33.7554H229.45L245.021 69.9246H237.652L234.288 61.6477H218.603L215.353 69.9246H208.172L223.894 33.7554ZM232.058 56.1297L226.502 41.4276L220.833 56.1297H232.058Z" fill="black"/>
<path d="M259.27 33.7554H265.695V64.1043H281.077V69.9246H259.27V33.7554Z" fill="black"/>
<path d="M307.647 33.7554H313.203L328.774 69.9246H321.404L318.04 61.6477H302.356L299.105 69.9246H291.924L307.647 33.7554ZM315.81 56.1297L310.255 41.4276L304.585 56.1297H315.81Z" fill="black"/>
<path d="M343.022 33.7554H351.564L369.063 60.6272H369.176V33.7554H375.601V69.9246H367.437L349.561 42.1835H349.447V69.9246H343.022V33.7554Z" fill="black"/>
<path d="M418.687 42.2215C417.364 40.7853 416.079 39.8404 414.794 39.3491C413.585 38.8578 412.337 38.631 411.052 38.631C409.163 38.631 407.462 38.9711 405.95 39.6514C404.438 40.2939 403.153 41.201 402.057 42.4104C400.961 43.5821 400.13 44.9427 399.487 46.4922C398.92 48.0418 398.618 49.7425 398.618 51.5567C398.618 53.4842 398.92 55.2983 399.487 56.9235C400.092 58.5487 400.961 59.9848 402.057 61.1565C403.153 62.3659 404.438 63.273 405.95 63.9533C407.5 64.6336 409.2 64.9737 411.052 64.9737C412.526 64.9737 413.925 64.6336 415.285 63.9533C416.684 63.2352 417.969 62.1013 419.178 60.5896L424.469 64.369C422.844 66.5989 420.841 68.2618 418.498 69.2823C416.155 70.3027 413.66 70.8318 410.977 70.8318C408.18 70.8318 405.61 70.3783 403.267 69.509C400.961 68.602 398.958 67.317 397.257 65.6918C395.594 64.0288 394.272 62.0257 393.327 59.7203C392.382 57.4148 391.891 54.8448 391.891 52.0102C391.891 49.1 392.382 46.4922 393.327 44.149C394.272 41.7679 395.594 39.727 397.257 38.0641C398.958 36.4011 400.961 35.1161 403.267 34.2468C405.61 33.3398 408.18 32.8862 410.977 32.8862C413.433 32.8862 415.701 33.3398 417.78 34.209C419.896 35.0783 421.862 36.5145 423.638 38.5932L418.649 42.2593L418.687 42.2215Z" fill="black"/>
<path d="M439.058 33.7554H445.483V48.1551H462.377V33.7554H468.84V69.9246H462.377V53.9754H445.483V69.9246H439.058V33.7554Z" fill="black"/>
<path d="M487.133 33.7554H511.056V39.5757H493.558V48.4574H510.149V54.2778H493.558V64.1043H512.001V69.9246H487.133V33.7554Z" fill="black"/>
<path fill-rule="evenodd" clip-rule="evenodd" d="M103.708 51.8589C103.708 80.507 80.5022 103.713 51.854 103.713C23.2058 103.713 0 80.507 0 51.8589C0 23.2107 23.2058 0.00488281 51.854 0.00488281C80.5022 0.00488281 103.708 23.2107 103.708 51.8589ZM37.1519 72.4946H27.0986C24.9821 72.4946 23.9239 72.4946 23.3192 72.0789C22.6389 71.6253 22.2231 70.9072 22.1475 70.0758C22.1097 69.3199 22.6389 68.4128 23.6593 66.5609L48.5281 22.7571C49.5863 20.9052 50.1154 19.9603 50.7957 19.6202C51.5138 19.2423 52.3831 19.2423 53.1012 19.6202C53.7815 19.9603 54.3106 20.9052 55.3689 22.7571L60.4711 31.6766L60.5089 31.7144C61.6427 33.7175 62.2474 34.738 62.4742 35.7962C62.7388 36.9678 62.7388 38.1773 62.4742 39.3489C62.2096 40.4071 61.6427 41.4276 60.4711 43.4685L47.432 66.5609L47.3942 66.6365C46.2604 68.6396 45.6557 69.66 44.862 70.4537C43.9927 71.2852 42.9345 71.8899 41.7629 72.2678C40.7046 72.5702 39.533 72.5702 37.1519 72.5702V72.4946ZM62.5498 72.4946H76.9873C79.1038 72.4946 80.1998 72.4946 80.8045 72.0789C81.4848 71.6253 81.9383 70.8695 81.9761 70.0758C82.0139 69.3577 81.4848 68.4506 80.5022 66.7499C80.4644 66.6743 80.4266 66.6365 80.3888 66.5609L73.17 54.2021L73.0944 54.0509C72.074 52.3502 71.5827 51.4809 70.9024 51.1408C70.1843 50.7628 69.315 50.7628 68.5969 51.1408C67.9166 51.4809 67.3875 52.388 66.3292 54.2021L59.1483 66.5609L59.1105 66.5987C58.0523 68.4128 57.5231 69.3199 57.5609 70.0758C57.5987 70.9072 58.0145 71.6253 58.7326 72.0789C59.3751 72.4946 60.4333 72.4946 62.5498 72.4946Z" fill="#E84142"/>
</g>
<defs>
<clipPath id="clip0_7058_141636">
<rect width="512.001" height="103.68" fill="white"/>
</clipPath>
</defs>
</svg>
