<svg width="128" height="128" viewBox="0 0 128 128" fill="none" xmlns="http://www.w3.org/2000/svg">
<rect width="128" height="128" fill="#0C192B"/>
<g clip-path="url(#clip0_7058_141588)">
<path d="M64 108C88.3005 108 108 88.3005 108 64C108 39.6995 88.3005 20 64 20C39.6995 20 20 39.6995 20 64C20 88.3005 39.6995 108 64 108Z" fill="#E84142"/>
<path d="M79.5212 65.1431C81.0456 62.5101 83.5055 62.5101 85.0299 65.1431L94.5228 81.8077C96.0472 84.4408 94.8 86.5888 91.7512 86.5888H72.6267C69.6126 86.5888 68.3653 84.4408 69.8551 81.8077L79.5212 65.1431ZM61.159 33.0612C62.6834 30.4282 65.1086 30.4282 66.6331 33.0612L68.7464 36.8723L73.7354 45.6376C74.948 48.1321 74.948 51.077 73.7354 53.5715L57.0016 82.5699C55.4771 84.9258 52.948 86.4156 50.1417 86.5888H36.2488C33.2 86.5888 31.9527 84.4754 33.4771 81.8077L61.159 33.0612Z" fill="white"/>
</g>
<defs>
<clipPath id="clip0_7058_141588">
<rect width="88" height="88" fill="white" transform="translate(20 20)"/>
</clipPath>
</defs>
</svg>
