<svg width="128" height="128" viewBox="0 0 128 128" fill="none" xmlns="http://www.w3.org/2000/svg">
<g clip-path="url(#clip0_5891_23921)">
<rect width="128" height="128" fill="#0052FF"/>
<path d="M64 128C99.3462 128 128 99.3462 128 64C128 28.6538 99.3462 0 64 0C28.6538 0 0 28.6538 0 64C0 99.3462 28.6538 128 64 128Z" fill="#0052FF"/>
<path d="M64.2832 108.475C89.0889 108.475 109.197 88.4007 109.197 63.6384C109.197 38.8761 89.0889 18.8022 64.2832 18.8022C40.7492 18.8022 21.4427 36.8708 19.5253 59.8696H78.8918V67.4073H19.5253C21.4427 90.4057 40.7492 108.475 64.2832 108.475Z" fill="white"/>
</g>
<defs>
<clipPath id="clip0_5891_23921">
<rect width="128" height="128" fill="white"/>
</clipPath>
</defs>
</svg>
