<svg width="480" height="129" viewBox="0 0 480 129" fill="none" xmlns="http://www.w3.org/2000/svg">
<g clip-path="url(#clip0_5891_43320)">
<path fill-rule="evenodd" clip-rule="evenodd" d="M126.886 63.943C126.886 98.9816 98.432 127.386 63.3323 127.386C30.0318 127.386 2.71315 101.819 0 69.2759H84.0034V58.61H0C2.71315 26.067 30.0318 0.5 63.3323 0.5C98.432 0.5 126.886 28.9044 126.886 63.943ZM362.504 115.891C384.526 115.891 398.968 104.023 398.968 86.1483C398.968 69.5604 388.101 61.6955 371.656 58.9786L357.069 56.5475C345.916 54.6886 338.479 49.8266 338.479 39.1017C338.479 28.2339 346.774 19.94 362.504 19.94C377.804 19.94 385.67 27.6618 386.528 38.6727H397.538C396.68 24.0869 385.527 11.074 362.647 11.074C340.052 11.074 327.612 23.8008 327.612 39.5308C327.612 56.2615 338.908 63.9835 354.352 66.5575L369.082 68.8454C381.379 70.9904 388.244 75.9953 388.244 86.5772C388.244 99.0181 378.09 107.026 362.647 107.026C346.631 107.026 336.62 99.3041 335.762 86.1483H324.895C325.753 103.308 338.908 115.891 362.504 115.891ZM200.157 113.89H160.119V13.219H198.727C215.745 13.219 227.614 23.2289 227.614 39.2448C227.614 50.8276 221.035 58.5495 210.454 61.1235V61.5525C223.037 63.9835 230.76 72.5634 230.76 86.0053C230.76 103.308 218.032 113.89 200.157 113.89ZM197.298 57.4056C209.453 57.4056 216.889 50.8276 216.889 40.5317V39.1017C216.889 28.8059 209.453 22.3709 197.298 22.3709H170.843V57.4056H197.298ZM198.585 104.738C211.884 104.738 220.034 97.4451 220.034 86.2913V84.8612C220.034 73.2784 211.741 66.2715 198.442 66.2715H170.843V104.738H198.585ZM317.366 113.89H305.927L297.346 86.5772H257.307L248.727 113.89H237.859L270.892 13.219H283.905L317.366 113.89ZM277.898 24.2299H277.04L260.166 77.5683H294.629L277.898 24.2299ZM415.076 113.89V13.219H479.712V22.5139H425.802V57.1196H475.422V66.2715H425.802V104.595H479.712V113.89H415.076Z" fill="#0052FF"/>
</g>
<defs>
<clipPath id="clip0_5891_43320">
<rect width="479.712" height="128" fill="white" transform="translate(0 0.5)"/>
</clipPath>
</defs>
</svg>
