<svg width="184" height="34" viewBox="0 0 184 34" fill="none" xmlns="http://www.w3.org/2000/svg">
<g id="Bera text" clip-path="url(#clip0_12237_87083)">
<path id="Vector" d="M38.4462 25.1075V22.2679C40.2022 21.6701 41.4725 19.802 41.4725 17.5976C41.4725 15.3932 40.2022 13.5251 38.4462 12.9273V10.0877C40.0901 9.52728 41.3231 7.84596 41.4352 5.79102H39.4549V6.65036C39.4549 7.32288 39.044 7.92069 38.4462 8.18222V7.84596C38.4462 7.24816 37.9231 6.76244 37.2879 6.76244H37.1758C36.5407 6.76244 36.0176 7.24816 36.0176 7.84596V8.25695C35.4198 7.95805 35.0088 7.39761 35.0088 6.72508V5.86574H33.0286C33.178 7.88332 34.3736 9.602 36.0176 10.1624V13.002C34.2615 13.5998 32.9912 15.4679 32.9912 17.6723C32.9912 19.8767 34.2615 21.7449 36.0176 22.3427V25.1822C34.3736 25.7427 33.1407 27.424 33.0286 29.4789H35.0088V28.6196C35.0088 27.9471 35.4198 27.3493 36.0176 27.0877V27.4987C36.0176 28.0965 36.5407 28.5822 37.1758 28.5822H37.2879C37.9231 28.5822 38.4462 28.0965 38.4462 27.4987V27.0877C39.044 27.3866 39.4549 27.9471 39.4549 28.6196V29.4789H41.4352C41.3231 27.3493 40.0901 25.6679 38.4462 25.1075ZM35.0088 18.8306V16.3646C35.0088 15.6921 35.4198 15.0943 36.0176 14.8328V15.2438C36.0176 15.8416 36.5407 16.3273 37.1758 16.3273H37.2879C37.9231 16.3273 38.4462 15.8416 38.4462 15.2438V14.8328C39.044 15.1317 39.4549 15.6921 39.4549 16.3646V18.8306C39.4549 19.5031 39.044 20.1009 38.4462 20.3624V19.9515C38.4462 19.3537 37.9231 18.8679 37.2879 18.8679H37.1758C36.5407 18.8679 36.0176 19.3537 36.0176 19.9515V20.3624C35.4198 20.1009 35.0088 19.5031 35.0088 18.8306Z" fill="black"/>
<path id="Vector_2" d="M50.701 19.0921V16.0657C52.4571 15.4679 53.7274 13.5998 53.7274 11.3954C53.7274 9.19102 52.4571 7.32288 50.701 6.72508V5.79102H48.3098V6.72508C46.5538 7.32288 45.2834 9.19102 45.2834 11.3954C45.2834 13.5998 46.5538 15.4679 48.3098 16.0657V19.0921C46.5538 19.6899 45.2834 21.558 45.2834 23.7624C45.2834 25.9668 46.5538 27.835 48.3098 28.4328V29.3668H50.701V28.4328C52.4571 27.835 53.7274 25.9668 53.7274 23.7624C53.7274 21.558 52.4571 19.6899 50.701 19.0921ZM47.301 12.6657V10.1998C47.301 9.52728 47.712 8.92948 48.3098 8.66794V9.07893C48.3098 9.67673 48.8329 10.1624 49.4681 10.1624H49.5802C50.2153 10.1624 50.7384 9.67673 50.7384 9.07893V8.66794C51.3362 8.96684 51.7472 9.52728 51.7472 10.1998V12.6657C51.7472 13.3383 51.3362 13.9361 50.7384 14.1976V13.824C50.7384 13.2262 50.2153 12.7405 49.5802 12.7405H49.4681C48.8329 12.7405 48.3098 13.2262 48.3098 13.824V14.235C47.712 13.9361 47.301 13.3383 47.301 12.6657ZM51.7098 24.9954C51.7098 25.6679 51.2988 26.2657 50.701 26.5273V25.9295C50.701 25.3317 50.178 24.846 49.5428 24.846H49.4307C48.7955 24.846 48.2725 25.3317 48.2725 25.9295V26.5273C47.6747 26.2284 47.2637 25.6679 47.2637 24.9954V22.5295C47.2637 21.8569 47.6747 21.2591 48.2725 20.9976V21.2218C48.2725 21.8196 48.7955 22.3053 49.4307 22.3053H49.5428C50.178 22.3053 50.701 21.8196 50.701 21.2218V20.9976C51.2988 21.2965 51.7098 21.8569 51.7098 22.5295V24.9954Z" fill="black"/>
<path id="Vector_3" d="M24.622 15.2068C24.5846 15.0947 24.5846 14.9826 24.5099 14.8705C24.5099 14.8331 28.2835 9.97599 24.8088 6.98698C21.3341 3.99797 17.2989 7.88368 17.2615 7.92105C16.6264 7.73423 15.9539 7.62215 15.3187 7.54742C14.011 7.36061 12.1429 7.54742 12.1429 7.54742C11.5077 7.58478 10.8725 7.69687 10.2374 7.88368C10.2 7.84632 6.16484 3.96061 2.69012 6.94962C-0.784606 9.93863 2.95166 14.7958 2.98902 14.8331C2.95166 14.9452 2.91429 15.0573 2.87693 15.1694C2.50331 17.2617 -0.0373535 17.8969 -0.0373535 21.521C-0.0373535 25.2199 2.61539 28.1342 8.07034 28.1342H10.3121C10.3121 28.1342 11.1714 29.2925 12.9648 29.3672C12.9648 29.3672 13.3758 29.4046 14.3099 29.3672C16.2154 29.3672 17.1121 28.1716 17.1121 28.1342H19.3539C24.8088 28.1342 27.4615 25.2199 27.4615 21.521C27.5736 17.9342 24.9956 17.2617 24.622 15.2068Z" fill="black"/>
<path id="Vector_4" d="M63.5166 26.9012V8.59348H71.1386C72.2968 8.59348 73.3056 8.7803 74.0902 9.11656C74.8748 9.45282 75.51 9.9759 75.8836 10.6858C76.2946 11.3583 76.5188 12.2177 76.5188 13.1891C76.5188 14.1605 76.2573 15.0199 75.6968 15.7297C75.1737 16.4396 74.3891 16.888 73.4177 17.1495V16.6265C74.2397 16.8133 74.9496 17.1122 75.5474 17.5605C76.1452 18.0089 76.6309 18.5319 76.9672 19.2045C77.3034 19.877 77.4902 20.6243 77.4902 21.4836C77.4902 22.3429 77.3408 23.1276 77.0792 23.8001C76.8177 24.4726 76.4067 25.033 75.8836 25.4814C75.3606 25.9297 74.7254 26.266 73.9781 26.5275C73.2309 26.7517 72.3715 26.8638 71.4001 26.8638L63.5166 26.9012ZM66.3562 24.1737H71.288C71.9979 24.1737 72.5957 24.0616 73.0814 23.8748C73.6045 23.6506 73.9781 23.3517 74.2397 22.9407C74.5012 22.5297 74.6507 22.0067 74.6507 21.4462C74.6507 20.9232 74.5012 20.4374 74.2023 20.0638C73.9408 19.6902 73.5298 19.3913 73.0067 19.2045C72.4836 18.9803 71.8485 18.9056 71.1386 18.9056H66.3562V24.1737ZM66.3562 16.1781H70.9891C71.5122 16.1781 71.9606 16.066 72.3715 15.8792C72.7825 15.655 73.1188 15.3935 73.343 15.0199C73.6045 14.6462 73.7166 14.2352 73.7166 13.7495C73.7166 12.9649 73.4551 12.3671 72.932 11.9561C72.4089 11.5451 71.6617 11.321 70.6902 11.321H66.3562V16.1781ZM86.2331 27.1627C84.8133 27.1627 83.5803 26.8638 82.4595 26.266C81.3759 25.6682 80.5166 24.8462 79.8814 23.7627C79.2836 22.7166 78.9847 21.521 78.9847 20.1385C78.9847 19.055 79.1715 18.0836 79.5078 17.1869C79.8441 16.2902 80.3298 15.5429 80.965 14.8704C81.6001 14.1979 82.3474 13.7122 83.1694 13.3385C84.0287 12.9649 85.0001 12.7781 86.0089 12.7781C86.9056 12.7781 87.7276 12.9649 88.4748 13.3012C89.2595 13.6374 89.8946 14.0858 90.4551 14.6836C91.0155 15.2814 91.4639 15.9913 91.7628 16.8133C92.0617 17.5979 92.2111 18.4946 92.2111 19.466L92.1737 20.6243H80.965L80.3672 18.4946H89.8573L89.4463 18.9429V18.3078C89.4089 17.7473 89.1847 17.2243 88.8858 16.7759C88.5496 16.3275 88.1386 15.9539 87.6155 15.6924C87.0924 15.4308 86.5694 15.3188 85.9715 15.3188C85.0375 15.3188 84.2529 15.5056 83.5803 15.8792C82.9452 16.2155 82.4595 16.7385 82.1232 17.4484C81.7869 18.121 81.6375 18.9803 81.6375 19.9891C81.6375 20.9605 81.8243 21.7825 82.2353 22.4924C82.6463 23.2023 83.2067 23.7254 83.9166 24.099C84.6639 24.4726 85.4858 24.6594 86.4573 24.6594C87.1298 24.6594 87.765 24.5473 88.3254 24.3232C88.9232 24.099 89.5584 23.688 90.2309 23.0902L91.5759 24.9957C91.165 25.4067 90.6419 25.7803 90.0441 26.0792C89.4463 26.3781 88.8111 26.6396 88.1386 26.8265C87.5408 27.088 86.8683 27.1627 86.2331 27.1627ZM94.3781 26.9012V13.1517H97.1056V17.4484L96.8441 16.4023C97.0309 15.7297 97.3671 15.1319 97.8155 14.6089C98.3012 14.0858 98.8243 13.6374 99.4221 13.3385C100.02 13.0396 100.655 12.8528 101.29 12.8528C101.589 12.8528 101.851 12.8902 102.112 12.9275C102.374 12.9649 102.598 13.0396 102.785 13.1144L102.075 16.0286C101.851 15.9539 101.626 15.8792 101.365 15.8045C101.103 15.7297 100.879 15.6924 100.618 15.6924C100.132 15.6924 99.6836 15.8045 99.2727 15.9913C98.8617 16.1781 98.488 16.4023 98.1518 16.7385C97.8529 17.0374 97.5913 17.4111 97.4045 17.8594C97.2177 18.2704 97.1056 18.7561 97.1056 19.2418V26.9012H94.3781ZM108.837 27.1627C107.717 27.1627 106.67 26.8638 105.736 26.2286C104.802 25.5935 104.055 24.7341 103.495 23.6506C102.934 22.5671 102.673 21.3341 102.673 19.9891C102.673 18.6067 102.934 17.3737 103.495 16.3275C104.055 15.244 104.84 14.3847 105.811 13.7869C106.783 13.1891 107.866 12.8528 109.099 12.8528C109.809 12.8528 110.481 12.9649 111.042 13.1517C111.64 13.3759 112.163 13.6748 112.574 14.0484C113.022 14.4221 113.396 14.833 113.657 15.3188C113.956 15.8045 114.143 16.3275 114.218 16.888L113.62 16.6638V13.1144H116.347V26.9012H113.62V23.6133L114.255 23.4265C114.143 23.9122 113.919 24.3605 113.583 24.8089C113.284 25.2572 112.873 25.6308 112.35 26.0045C111.864 26.3407 111.303 26.6396 110.706 26.8265C110.108 27.0506 109.51 27.1627 108.837 27.1627ZM109.547 24.6968C110.369 24.6968 111.079 24.51 111.714 24.099C112.35 23.688 112.835 23.1649 113.172 22.455C113.545 21.7451 113.732 20.9232 113.732 20.0264C113.732 19.1297 113.545 18.3451 113.172 17.6352C112.835 16.9254 112.35 16.4023 111.714 15.9913C111.079 15.5803 110.369 15.3935 109.547 15.3935C108.763 15.3935 108.016 15.5803 107.418 15.9913C106.82 16.4023 106.334 16.9254 105.961 17.6352C105.624 18.3451 105.437 19.1297 105.437 20.0264C105.437 20.9232 105.624 21.7451 105.961 22.455C106.334 23.1649 106.82 23.688 107.418 24.099C108.016 24.4726 108.725 24.6968 109.547 24.6968ZM125.165 27.1627C123.895 27.1627 122.736 26.8638 121.728 26.2286C120.719 25.5935 119.934 24.7341 119.336 23.6506C118.776 22.5671 118.477 21.3715 118.477 20.0264C118.477 18.6814 118.776 17.4858 119.336 16.4023C119.934 15.3188 120.719 14.4594 121.728 13.8243C122.736 13.1891 123.895 12.8902 125.165 12.8902C126.398 12.8902 127.481 13.1517 128.49 13.6374C129.499 14.1232 130.284 14.7957 130.807 15.655L129.312 17.4858C129.051 17.0748 128.677 16.7012 128.229 16.4023C127.78 16.066 127.332 15.8045 126.846 15.6177C126.361 15.4308 125.875 15.3188 125.426 15.3188C124.605 15.3188 123.857 15.5429 123.185 15.9539C122.55 16.3649 122.026 16.9254 121.653 17.6352C121.279 18.3451 121.092 19.1671 121.092 20.0264C121.092 20.8858 121.279 21.7078 121.69 22.4177C122.101 23.1275 122.624 23.688 123.297 24.099C123.969 24.51 124.679 24.7341 125.501 24.7341C125.987 24.7341 126.435 24.6594 126.846 24.51C127.295 24.3605 127.743 24.1363 128.154 23.8001C128.565 23.5012 128.976 23.0902 129.35 22.6418L130.844 24.4726C130.284 25.2572 129.499 25.8924 128.453 26.4155C127.332 26.9012 126.248 27.1627 125.165 27.1627ZM132.525 26.9012V7.54733H135.216V15.9913L134.73 16.2902C134.917 15.6924 135.253 15.1319 135.739 14.6089C136.262 14.0858 136.859 13.6748 137.532 13.3385C138.242 13.0023 138.952 12.8528 139.662 12.8528C140.708 12.8528 141.567 13.077 142.277 13.488C142.987 13.899 143.51 14.4968 143.846 15.3561C144.183 16.1781 144.369 17.2616 144.369 18.5319V26.9012H141.679V18.7188C141.679 17.9341 141.567 17.299 141.38 16.7759C141.156 16.2528 140.857 15.8792 140.409 15.655C139.961 15.3935 139.437 15.3188 138.802 15.3561C138.279 15.3561 137.794 15.4308 137.383 15.6177C136.934 15.7671 136.561 15.9913 136.224 16.2902C135.925 16.5891 135.664 16.9254 135.477 17.3363C135.29 17.71 135.216 18.121 135.216 18.6067V26.9012H133.87C133.646 26.9012 133.422 26.9012 133.198 26.9012C132.974 26.9012 132.75 26.9012 132.525 26.9012ZM152.589 27.1627C151.468 27.1627 150.422 26.8638 149.488 26.2286C148.554 25.5935 147.807 24.7341 147.284 23.6506C146.723 22.5671 146.462 21.3341 146.462 19.9891C146.462 18.6067 146.723 17.3737 147.284 16.3275C147.844 15.244 148.629 14.3847 149.6 13.7869C150.572 13.1891 151.655 12.8528 152.888 12.8528C153.598 12.8528 154.27 12.9649 154.831 13.1517C155.429 13.3759 155.952 13.6748 156.363 14.0484C156.811 14.4221 157.185 14.833 157.446 15.3188C157.745 15.8045 157.932 16.3275 158.007 16.888L157.409 16.6638V13.1144H160.136V26.9012H157.409V23.6133L158.044 23.4265C157.932 23.9122 157.708 24.3605 157.372 24.8089C157.073 25.2572 156.662 25.6308 156.139 26.0045C155.653 26.3407 155.092 26.6396 154.495 26.8265C153.859 27.0506 153.224 27.1627 152.589 27.1627ZM153.299 24.6968C154.121 24.6968 154.831 24.51 155.466 24.099C156.101 23.688 156.587 23.1649 156.923 22.455C157.297 21.7451 157.484 20.9232 157.484 20.0264C157.484 19.1297 157.297 18.3451 156.923 17.6352C156.587 16.9254 156.101 16.4023 155.466 15.9913C154.831 15.5803 154.121 15.3935 153.299 15.3935C152.514 15.3935 151.767 15.5803 151.169 15.9913C150.572 16.4023 150.086 16.9254 149.712 17.6352C149.376 18.3451 149.189 19.1297 149.189 20.0264C149.189 20.9232 149.376 21.7451 149.712 22.455C150.086 23.1649 150.572 23.688 151.169 24.099C151.767 24.4726 152.477 24.6968 153.299 24.6968ZM163.499 26.9012V13.1517H166.189V26.9012H163.499ZM164.807 10.1254C164.246 10.1254 163.798 9.9759 163.462 9.677C163.163 9.3781 162.976 8.96711 162.976 8.40667C162.976 7.88359 163.125 7.4726 163.462 7.1737C163.798 6.8748 164.246 6.68799 164.807 6.68799C165.367 6.68799 165.816 6.83744 166.152 7.13634C166.451 7.43524 166.637 7.84623 166.637 8.40667C166.637 8.92975 166.488 9.34074 166.152 9.63964C165.816 9.9759 165.367 10.1254 164.807 10.1254ZM169.552 26.9012V13.1517H172.242V15.9913L171.756 16.2902C171.943 15.6924 172.279 15.1319 172.765 14.6089C173.288 14.0858 173.886 13.6748 174.558 13.3385C175.268 13.0023 175.978 12.8528 176.688 12.8528C177.734 12.8528 178.594 13.077 179.303 13.488C180.013 13.899 180.536 14.4968 180.873 15.3561C181.209 16.1781 181.396 17.2616 181.396 18.5319V26.9012H178.706V18.7188C178.706 17.9341 178.594 17.299 178.407 16.7759C178.183 16.2528 177.884 15.8792 177.435 15.655C176.987 15.3935 176.464 15.3188 175.829 15.3561C175.306 15.3561 174.82 15.4308 174.372 15.6177C173.923 15.7671 173.55 15.9913 173.213 16.2902C172.914 16.5891 172.653 16.9254 172.466 17.3363C172.279 17.71 172.205 18.121 172.205 18.6067V26.9012H170.859C170.635 26.9012 170.411 26.9012 170.187 26.9012C170 26.9012 169.776 26.9012 169.552 26.9012Z" fill="black"/>
</g>
<defs>
<clipPath id="clip0_12237_87083">
<rect width="183.824" height="34" fill="white"/>
</clipPath>
</defs>
</svg>
