<svg width="128" height="128" viewBox="0 0 128 128" fill="none" xmlns="http://www.w3.org/2000/svg">
<rect width="128" height="128" fill="#14151A"/>
<g clip-path="url(#clip0_12237_87111)">
<path d="M85.8475 78.4867V73.1181C89.152 71.9847 91.5584 68.4653 91.5584 64.2996C91.5584 60.134 89.152 56.6046 85.8475 55.4812V50.1126C88.9595 49.0488 91.2803 45.8574 91.537 42H87.7512V43.6404C87.7512 44.903 86.9814 46.0165 85.8475 46.5733V45.8077C85.8475 44.6843 84.8638 43.7697 83.6555 43.7697H83.463C82.2546 43.7697 81.2705 44.6843 81.2705 45.8077V46.5733C80.1371 46.0165 79.3669 44.913 79.3669 43.6404V42H75.5815C75.8382 45.8574 78.1586 49.0488 81.2705 50.1126V55.4812C77.9767 56.6046 75.5601 60.1241 75.5601 64.2996C75.5601 68.4752 77.966 71.9946 81.2705 73.1181V78.4867C78.1586 79.5505 75.8382 82.7419 75.5815 86.5992H79.3669V84.9588C79.3669 83.6962 80.1371 82.5826 81.2705 82.026V82.7916C81.2705 83.9151 82.2546 84.8297 83.463 84.8297H83.6555C84.8638 84.8297 85.8475 83.9151 85.8475 82.7916V82.026C86.9814 82.5826 87.7512 83.6863 87.7512 84.9588V86.5992H91.537C91.2803 82.7419 88.9595 79.5505 85.8475 78.4867ZM79.3669 66.6459V61.9434C79.3669 60.6808 80.1371 59.5673 81.2705 59.0105V59.7761C81.2705 60.8995 82.2546 61.8142 83.463 61.8142H83.6555C84.8638 61.8142 85.8475 60.8995 85.8475 59.7761V59.0105C86.9814 59.5673 87.7512 60.6709 87.7512 61.9434V66.6459C87.7512 67.9085 86.9814 69.0221 85.8475 69.5788V68.8133C85.8475 67.6898 84.8638 66.7752 83.6555 66.7752H83.463C82.2546 66.7752 81.2705 67.6898 81.2705 68.8133V69.5788C80.1478 69.0221 79.3669 67.9185 79.3669 66.6459Z" fill="white"/>
<path d="M109.075 67.153V61.4364C112.379 60.303 114.786 56.7836 114.786 52.6179C114.786 48.4523 112.379 44.9229 109.075 43.7995V42H104.509V43.7995C101.204 44.9329 98.7981 48.4523 98.7981 52.6179C98.7981 56.7836 101.204 60.3129 104.509 61.4364V67.153C101.204 68.2863 98.7981 71.8058 98.7981 75.9714C98.7981 80.1371 101.204 83.6664 104.509 84.79V86.5893H109.075V84.79C112.379 83.6565 114.786 80.1371 114.786 75.9714C114.786 71.8058 112.379 68.2863 109.075 67.153ZM102.594 54.9642V50.2617C102.594 48.9991 103.364 47.8856 104.498 47.3288V48.0944C104.498 49.2178 105.482 50.1325 106.69 50.1325H106.872C108.08 50.1325 109.064 49.2178 109.064 48.0944V47.3288C110.198 47.8856 110.968 48.9891 110.968 50.2617V54.9642C110.968 56.2268 110.198 57.3403 109.064 57.8971V57.1315C109.064 56.0081 108.08 55.0934 106.872 55.0934H106.68C105.471 55.0934 104.487 56.0081 104.487 57.1315V57.8971C103.375 57.3403 102.594 56.2368 102.594 54.9642ZM110.978 78.3276C110.978 79.5902 110.209 80.7038 109.075 81.2604V80.1371C109.075 79.0136 108.091 78.099 106.883 78.099H106.701C105.493 78.099 104.509 79.0136 104.509 80.1371V81.2604C103.375 80.7038 102.605 79.6002 102.605 78.3276V73.6251C102.605 72.3625 103.375 71.249 104.509 70.6923V71.0999C104.509 72.2233 105.493 73.138 106.701 73.138H106.894C108.102 73.138 109.086 72.2233 109.086 71.0999V70.6923C110.219 71.249 110.989 72.3526 110.989 73.6251V78.3276H110.978Z" fill="white"/>
<path d="M59.6797 59.7465C59.6369 59.5178 59.5834 59.2991 59.4979 59.0903C59.53 59.0406 66.6306 49.8444 60.0541 44.1576C53.4879 38.4709 45.8201 45.8875 45.7773 45.9273C44.5582 45.5694 43.3284 45.3506 42.1093 45.2512C42.1093 45.2512 42.1093 45.2512 42.0986 45.2512C39.5961 44.8635 36.0885 45.2512 36.0885 45.2512C34.8801 45.3506 33.661 45.5694 32.4525 45.9173C32.4097 45.8776 24.7421 38.4609 18.1759 44.1477C11.6098 49.8344 18.6999 59.0406 18.732 59.0804C18.6572 59.2991 18.593 59.5178 18.5502 59.7366C17.8444 63.6735 13 64.8865 13 71.7464C13 78.7355 18.0583 84.2432 28.3888 84.2432H32.6236C32.645 84.263 34.2812 86.4306 37.6605 86.5597C37.6605 86.5597 38.4412 86.6392 40.2378 86.5796C43.8203 86.5796 45.5634 84.2829 45.5741 84.2531H49.809C60.1393 84.2531 65.1976 78.7454 65.1976 71.7563C65.2297 64.9063 60.3853 63.6835 59.6797 59.7465Z" fill="white"/>
</g>
<defs>
<clipPath id="clip0_12237_87111">
<rect width="102" height="44.6966" fill="white" transform="translate(13 42)"/>
</clipPath>
</defs>
</svg>
