<svg width="165" height="35" viewBox="0 0 165 35" fill="none" xmlns="http://www.w3.org/2000/svg">
<path d="M163.642 10.0739L157.342 5.43652H134.032L132.516 10.0739H144.812L138.209 30.0928H143.296L149.876 10.0739H163.642Z" fill="#FCFC03"/>
<path d="M76.6558 5.43652L70.3323 10.0739H94.1793L95.7193 5.43652H76.6558Z" fill="#FCFC03"/>
<path d="M70.3322 10.0742L63.7292 30.0931H68.8157L74.4393 13.0357L70.3322 10.0742Z" fill="#FCFC03"/>
<path d="M95.7192 5.43652L88.8357 26.3048L91.2392 26.1212L81.3692 18.7518H74.0422L88.6722 30.0928H92.6622L99.8257 8.39803L95.7192 5.43652Z" fill="#FCFC03"/>
<path d="M33.8392 17.5351L39.8358 14.6195L41.8892 8.39803L37.7825 5.43652H10.3425L3.99585 10.0739H36.2425L34.5392 15.3082H21.6125L20.3525 19.0962H33.2792L29.6625 30.0928L35.7058 27.1313L37.8758 20.5425L33.8158 17.604L33.8392 17.5351Z" fill="#FCFC03"/>
<path d="M13.1189 25.3636L16.8522 13.9308L12.6989 10.8774L6.49219 30.0928H29.6622L31.2022 25.3636H13.1189Z" fill="#FCFC03"/>
<path d="M49.6823 7.98495L45.5756 5.02344L38.9256 25.1572L38.3423 26.9249L42.7056 30.093H61.1391L62.7021 25.3638H43.9423L49.6823 7.98495Z" fill="#FCFC03"/>
<path d="M105.519 15.4233L106.336 13.0128L102.252 10.0742L99.9192 17.0992L103.979 20.0148V20.0378H122.179L120.429 25.3639H97.2592L95.7192 30.0931H118.866L124.932 27.1316L127.919 18.0864L124.162 15.3774L105.519 15.4233Z" fill="#FCFC03"/>
<path d="M108.552 5.43652L102.252 10.0739H129.996L131.536 5.43652H108.552Z" fill="#FCFC03"/>
</svg>
