<svg width="128" height="128" viewBox="0 0 128 128" fill="none" xmlns="http://www.w3.org/2000/svg">
<g clip-path="url(#clip0_2544_57159)">
<rect width="128" height="128" fill="#F0B90B"/>
<g clip-path="url(#clip1_2544_57159)">
<path d="M36.1533 64.0006L36.1984 80.4215L50.262 88.6319V98.2456L27.9679 85.2731V59.1988L36.1533 64.0006ZM36.1533 47.5798V57.1487L27.9629 52.3418V42.773L36.1533 37.9661L44.3838 42.773L36.1533 47.5798ZM56.1352 42.773L64.3256 37.9661L72.5561 42.773L64.3256 47.5798L56.1352 42.773Z" fill="white"/>
<path d="M42.0676 77.0179V67.4042L50.258 72.2111V81.7799L42.0676 77.0179ZM56.1312 92.0753L64.3216 96.8821L72.5521 92.0753V101.644L64.3216 106.451L56.1312 101.644V92.0753ZM84.2985 42.773L92.4889 37.9661L100.719 42.773V52.3418L92.4889 57.1487V47.5798L84.2985 42.773ZM92.4889 80.4215L92.5341 64.0006L100.724 59.1938V85.2681L78.4303 98.2406V88.6269L92.4889 80.4215Z" fill="white"/>
<path d="M86.6186 77.0181L78.4282 81.7801V72.2112L86.6186 67.4044V77.0181Z" fill="white"/>
<path d="M86.6157 50.9821L86.6609 60.5957L72.5571 68.8061V85.2668L64.3668 90.0288L56.1764 85.2668V68.8061L42.0726 60.5957V50.9821L50.2981 46.1752L64.3166 54.4255L78.4203 46.1752L86.6508 50.9821H86.6157ZM42.0676 34.5662L64.3216 21.549L86.6157 34.5662L78.4253 39.373L64.3216 31.1228L50.258 39.373L42.0676 34.5662Z" fill="white"/>
</g>
</g>
<defs>
<clipPath id="clip0_2544_57159">
<rect width="128" height="128" fill="white"/>
</clipPath>
<clipPath id="clip1_2544_57159">
<rect width="88" height="88" fill="white" transform="translate(20 20)"/>
</clipPath>
</defs>
</svg>
