<svg width="139" height="35" viewBox="0 0 139 35" fill="none" xmlns="http://www.w3.org/2000/svg">
<path d="M39.628 26.7391C38.5965 26.7391 37.6778 26.617 36.872 26.3732C36.0662 26.1294 35.3892 25.6823 34.8411 25.0323C34.2934 24.3822 33.8742 23.4557 33.5841 22.2527C33.2941 21.0335 33.1489 19.4569 33.1489 17.5223C33.1489 15.6529 33.2941 14.125 33.5841 12.9383C33.8905 11.7517 34.3253 10.8252 34.8897 10.1588C35.4538 9.49242 36.1386 9.02899 36.9444 8.76889C37.7505 8.50879 38.6611 8.37891 39.6763 8.37891C40.869 8.37891 41.9489 8.47649 42.9159 8.67165C43.8991 8.85015 44.6808 9.03715 45.2609 9.23231V12.0363C44.8257 11.9387 44.165 11.8493 43.2786 11.7681C42.4082 11.6705 41.4572 11.6219 40.4257 11.6219C39.7487 11.6219 39.1687 11.7031 38.6852 11.8656C38.2177 12.0118 37.8389 12.2964 37.5489 12.719C37.2749 13.1253 37.0654 13.7187 36.9202 14.499C36.7914 15.2793 36.7268 16.2952 36.7268 17.5468C36.7268 19.1723 36.8318 20.4157 37.0413 21.2773C37.2507 22.1225 37.6213 22.7077 38.1534 23.033C38.6852 23.3418 39.4427 23.4961 40.4257 23.4961C41.6347 23.4961 42.6258 23.4716 43.3993 23.423C44.1732 23.3744 44.7937 23.3173 45.2609 23.2523V26.0319C44.6002 26.2597 43.8022 26.4385 42.8676 26.5684C41.9489 26.6823 40.869 26.7391 39.628 26.7391Z" fill="#1A1A1A"/>
<path d="M54.452 26.7391C53.2273 26.7391 52.1553 26.6252 51.2366 26.3977C50.3179 26.1539 49.5526 25.715 48.9399 25.0812C48.3275 24.4308 47.86 23.5043 47.5377 22.3014C47.2317 21.0984 47.0784 19.53 47.0784 17.5957C47.0784 15.6611 47.2317 14.0927 47.5377 12.8897C47.86 11.6705 48.3275 10.7358 48.9399 10.0857C49.5685 9.43563 50.3342 8.98853 51.2366 8.74475C52.1553 8.50097 53.2273 8.37891 54.452 8.37891C55.677 8.37891 56.7487 8.50097 57.6674 8.74475C58.5861 8.98853 59.3518 9.43563 59.9641 10.0857C60.5765 10.7358 61.0358 11.6705 61.3422 12.8897C61.6485 14.0927 61.8015 15.6611 61.8015 17.5957C61.8015 19.53 61.6485 21.0984 61.3422 22.3014C61.0358 23.5043 60.5765 24.4308 59.9641 25.0812C59.3518 25.715 58.578 26.1539 57.6433 26.3977C56.7246 26.6252 55.6607 26.7391 54.452 26.7391ZM54.452 23.4961C55.1613 23.4961 55.7576 23.423 56.2411 23.2768C56.7406 23.1143 57.1275 22.8216 57.4015 22.3989C57.6916 21.9763 57.901 21.383 58.0302 20.619C58.1591 19.8387 58.2233 18.8309 58.2233 17.5957C58.2233 16.3115 58.1591 15.2793 58.0302 14.499C57.901 13.7023 57.6916 13.1009 57.4015 12.6946C57.1115 12.2719 56.7246 11.9877 56.2411 11.8412C55.7576 11.695 55.1613 11.6219 54.452 11.6219C53.7428 11.6219 53.1467 11.695 52.6629 11.8412C52.1958 11.9877 51.8088 12.2719 51.5025 12.6946C51.2125 13.1009 50.9949 13.7023 50.85 14.499C50.7208 15.2793 50.6566 16.3115 50.6566 17.5957C50.6566 18.8309 50.713 19.8387 50.8259 20.619C50.9547 21.383 51.1642 21.9763 51.4542 22.3989C51.7442 22.8216 52.1312 23.1143 52.6146 23.2768C53.0981 23.423 53.7108 23.4961 54.452 23.4961Z" fill="#1A1A1A"/>
<path d="M64.5625 26.5926V8.54932H67.4396L74.934 20.4481V8.54932H78.5122V26.5926H75.635L68.1648 14.6939V26.5926H64.5625Z" fill="#1A1A1A"/>
<path d="M81.4639 26.5926V12.6702C81.4639 11.5971 81.6733 10.76 82.0922 10.1586C82.5114 9.55709 83.035 9.14262 83.6637 8.91516C84.2924 8.67138 84.9207 8.54932 85.5494 8.54932C86.1297 8.54932 86.8468 8.55748 87.7009 8.5738C88.5713 8.59012 89.49 8.62242 90.457 8.67138C91.4402 8.70368 92.3831 8.76862 93.2858 8.8662V11.8898H86.5405C86.041 11.8898 85.6622 12.0279 85.4045 12.3043C85.1624 12.5644 85.0417 12.9058 85.0417 13.3284V16.4248L92.1254 16.62V19.4726L85.0417 19.6678V26.5926H81.4639Z" fill="#1A1A1A"/>
<path d="M99.789 26.5926C98.3868 26.5926 97.3311 26.2676 96.6219 25.6171C95.913 24.967 95.5583 23.8699 95.5583 22.3256V8.54932H99.1362V21.7404C99.1362 22.3419 99.2814 22.7563 99.5714 22.9838C99.8778 23.2113 100.265 23.3252 100.732 23.3252H106.389V26.5926H99.789Z" fill="#1A1A1A"/>
<path d="M114.887 26.7143C113.888 26.7143 112.961 26.6331 112.107 26.4705C111.269 26.2917 110.527 25.9911 109.883 25.5685C109.254 25.1296 108.762 24.5281 108.408 23.7641C108.069 22.9838 107.9 21.9924 107.9 20.7894V8.54932H111.478V20.7649C111.478 21.7567 111.777 22.4554 112.373 22.8621C112.969 23.2684 113.807 23.4714 114.887 23.4714C115.951 23.4714 116.781 23.2684 117.377 22.8621C117.973 22.4554 118.272 21.7567 118.272 20.7649V8.54932H121.874V20.7894C121.874 21.9924 121.696 22.9838 121.342 23.7641C120.987 24.5281 120.496 25.1296 119.867 25.5685C119.239 25.9911 118.497 26.2917 117.643 26.4705C116.789 26.6331 115.87 26.7143 114.887 26.7143Z" fill="#1A1A1A"/>
<path d="M123.416 26.5926L128.903 17.5465L123.343 8.54932H127.308L131.128 14.718L134.609 8.54932H138.55L132.989 17.7416L138.477 26.5926H134.512L130.789 20.5701L127.381 26.5926H123.416Z" fill="#1A1A1A"/>
<path d="M20.9524 20.8189L13.762 28.0738L9.7602 24.036L16.9506 16.781L13.7529 13.5547L3.32935 24.071L13.724 34.5584L24.1471 24.0421L20.9524 20.8189Z" fill="#1A1A1A"/>
<path d="M27.3689 14.2617L13.7879 0.558594L0.168701 14.2998L0.21212 20.7228L13.7301 7.08387L27.3465 20.8224L27.3689 14.2617Z" fill="#1A1A1A"/>
</svg>
