<svg width="105" height="34" viewBox="0 0 105 34" fill="none" xmlns="http://www.w3.org/2000/svg">
<path fill-rule="evenodd" clip-rule="evenodd" d="M14.8751 3.52645L3.18988 10.2633V23.7369L14.8751 30.4737L26.5603 23.7369V10.2633L14.8751 3.52645ZM15.3658 0.131282C15.0622 -0.0437605 14.688 -0.0437605 14.3844 0.131282L0.490779 8.14128C0.187144 8.31641 0 8.6399 0 8.99007V25.0101C0 25.3602 0.187144 25.6838 0.490779 25.8589L14.3844 33.8689C14.688 34.044 15.0622 34.044 15.3658 33.8689L29.2594 25.8589C29.5631 25.6838 29.7502 25.3602 29.7502 25.0101V8.99007C29.7502 8.6399 29.5631 8.31641 29.2594 8.14128L15.3658 0.131282Z" fill="#FF9211"/>
<path d="M41.3468 25.1967C39.7354 25.1967 38.3619 24.9119 37.2263 24.3424C36.106 23.7574 35.2465 22.857 34.6481 21.641C34.0495 20.425 33.7502 18.878 33.7502 17.0002C33.7502 14.2296 34.4178 12.1747 35.753 10.8355C37.1035 9.48104 38.9757 8.80371 41.3698 8.80371C42.6896 8.80371 43.8713 9.02689 44.9148 9.47335C45.9738 9.91971 46.8024 10.5893 47.401 11.482C48.0148 12.3594 48.3218 13.483 48.3218 14.853H45.6974C45.6974 14.0064 45.521 13.2983 45.168 12.7288C44.8151 12.1593 44.3087 11.7283 43.6487 11.4358C43.0042 11.1434 42.2522 10.9972 41.3928 10.9972C40.3185 10.9972 39.4055 11.2127 38.6535 11.6436C37.9169 12.0593 37.3567 12.6903 36.973 13.5369C36.6047 14.3834 36.4206 15.461 36.4206 16.7693V17.2772C36.4206 18.5856 36.6047 19.6631 36.973 20.5097C37.3567 21.3563 37.9169 21.9874 38.6535 22.4029C39.3901 22.8031 40.3032 23.0032 41.3928 23.0032C42.2829 23.0032 43.0579 22.8647 43.7178 22.5876C44.3777 22.2951 44.8842 21.8641 45.2371 21.2947C45.6054 20.7252 45.7896 20.0171 45.7896 19.1705H48.3218C48.3218 20.5404 48.0148 21.6718 47.401 22.5645C46.8024 23.4573 45.9738 24.1191 44.9148 24.5502C43.8713 24.9812 42.6819 25.1967 41.3468 25.1967Z" fill="#FBFCFC"/>
<path d="M60.5063 25.1967C58.825 25.1967 57.3658 24.8965 56.1286 24.2962C54.9072 23.6959 53.9634 22.7877 53.2972 21.5718C52.6469 20.3557 52.3218 18.8319 52.3218 17.0002C52.3218 15.1531 52.6469 13.6292 53.2972 12.4286C53.9634 11.2127 54.9072 10.3045 56.1286 9.70422C57.3658 9.10388 58.825 8.80371 60.5063 8.80371C62.2194 8.80371 63.6867 9.10388 64.9079 9.70422C66.1293 10.3045 67.0652 11.2127 67.7155 12.4286C68.3817 13.6292 68.7147 15.1531 68.7147 17.0002C68.7147 18.8319 68.3817 20.3557 67.7155 21.5718C67.0652 22.7877 66.1293 23.6959 64.9079 24.2962C63.6867 24.8965 62.2194 25.1967 60.5063 25.1967ZM60.5063 23.0032C61.3788 23.0032 62.1481 22.8878 62.8143 22.6569C63.4963 22.426 64.0673 22.0719 64.5273 21.5948C65.0031 21.1176 65.36 20.5174 65.598 19.7939C65.8517 19.0704 65.9787 18.2315 65.9787 17.2772V16.7693C65.9787 15.7842 65.8517 14.9299 65.598 14.2065C65.36 13.483 65.0031 12.8827 64.5273 12.4056C64.0673 11.9283 63.4963 11.5744 62.8143 11.3435C62.1481 11.1126 61.3788 10.9972 60.5063 10.9972C59.6498 10.9972 58.8805 11.1126 58.1985 11.3435C57.5323 11.5744 56.9612 11.9283 56.4854 12.4056C56.0255 12.8827 55.6765 13.483 55.4385 14.2065C55.2006 14.9299 55.0817 15.7842 55.0817 16.7693V17.2772C55.0817 18.2315 55.2006 19.0704 55.4385 19.7939C55.6765 20.5174 56.0255 21.1176 56.4854 21.5948C56.9612 22.0719 57.5323 22.426 58.1985 22.6569C58.8805 22.8878 59.6498 23.0032 60.5063 23.0032Z" fill="#FBFCFC"/>
<path d="M72.7146 24.8932V9.10742H81.4522C82.6306 9.10742 83.6065 9.30687 84.3816 9.70566C85.1559 10.1046 85.7368 10.6645 86.1243 11.3855C86.511 12.0912 86.7052 12.9197 86.7052 13.8708C86.7052 14.9293 86.4546 15.8497 85.9551 16.6321C85.4546 17.4145 84.7442 17.9898 83.8248 18.358L87.2861 24.8932H84.3326L81.1867 18.7952H75.4255V24.8932H72.7146ZM75.4255 16.6321H81.2348C82.1062 16.6321 82.7759 16.3867 83.2439 15.8958C83.7277 15.4049 83.97 14.7222 83.97 13.8477C83.97 13.3108 83.8646 12.8583 83.6555 12.4901C83.4455 12.1066 83.1385 11.8151 82.7352 11.6156C82.3319 11.4163 81.8314 11.3165 81.2348 11.3165H75.4255V16.6321Z" fill="#FBFCFC"/>
<path d="M91.2861 24.8932V9.10742H103.894V11.3165H93.9398V15.7117H102.851V17.9208H93.9398V22.6841H104.036V24.8932H91.2861Z" fill="#FBFCFC"/>
<path d="M15.0258 8.28126L7.58897 12.6298V21.3269L14.9768 25.6469C15.0071 25.6646 15.0258 25.6974 15.0258 25.7328V27.2218C15.0258 27.2982 14.9441 27.346 14.8789 27.3077L6.48708 22.4008C6.25986 22.2679 6.11987 22.0223 6.11987 21.7565V12.2003C6.11987 11.9345 6.25986 11.6889 6.48708 11.556L14.6585 6.77792C14.8857 6.64499 15.1658 6.64499 15.393 6.77792L23.8183 11.6866C23.883 11.7244 23.8837 11.8188 23.8194 11.8574C23.3222 12.1561 23.0676 12.289 22.5114 12.6023C22.4812 12.6193 22.4444 12.6192 22.4145 12.6017L15.0258 8.28126Z" fill="#FF9211"/>
<path d="M15.9114 17.3622C15.9114 17.3262 15.9323 17.2932 15.9658 17.2763L23.7162 13.3685C23.7846 13.334 23.8671 13.3809 23.8671 13.4543V22.9608C23.8671 22.9956 23.8476 23.0275 23.816 23.045L16.0656 27.308C15.9971 27.3457 15.9114 27.2988 15.9114 27.224V17.3622Z" fill="#FF9211"/>
</svg>
