<svg width="129" height="128" viewBox="0 0 129 128" fill="none" xmlns="http://www.w3.org/2000/svg">
<g clip-path="url(#clip0_13717_39082)">
<path d="M128.844 0H0.843994V128H128.844V0Z" fill="black"/>
<path fill-rule="evenodd" clip-rule="evenodd" d="M65.0001 26.744L32.7922 45.3588V82.5882L65.0001 101.203L97.2078 82.5882V45.3588L65.0001 26.744ZM66.3526 17.3627C65.5157 16.8791 64.4843 16.8791 63.6474 17.3627L25.3527 39.4954C24.5158 39.9793 24 40.8731 24 41.8407V86.106C24 87.0736 24.5158 87.9677 25.3527 88.4514L63.6474 110.584C64.4843 111.068 65.5157 111.068 66.3526 110.584L104.647 88.4514C105.484 87.9677 106 87.0736 106 86.106V41.8407C106 40.8731 105.484 39.9793 104.647 39.4954L66.3526 17.3627Z" fill="#FF9211"/>
<path d="M65.0001 40.2286L44.4581 52.101V75.8457L64.8648 87.6399C64.9486 87.6884 65.0001 87.7777 65.0001 87.8745V91.9398C65.0001 92.1483 64.7745 92.2788 64.5943 92.1744L41.4144 78.7775C40.7868 78.4146 40.4001 77.7441 40.4001 77.0185V50.9282C40.4001 50.2026 40.7868 49.5321 41.4144 49.1694L63.9856 36.1243C64.6132 35.7613 65.3868 35.7613 66.0144 36.1243L89.2867 49.5259C89.4656 49.6291 89.4674 49.8868 89.2897 49.9923C87.9163 50.8077 87.2132 51.1704 85.6767 52.0259C85.5935 52.0724 85.4916 52.0719 85.4092 52.0242L65.0001 40.2286Z" fill="#FF9211"/>
<path d="M68.3816 64.4749C68.3816 64.3748 68.4367 64.2827 68.525 64.2357L88.9499 53.3529C89.1301 53.2569 89.3476 53.3876 89.3476 53.5921V80.0665C89.3476 80.1632 89.2963 80.2523 89.2128 80.3008L68.7879 92.1729C68.6075 92.2778 68.3816 92.1473 68.3816 91.9388V64.4749Z" fill="#FF9211"/>
</g>
<defs>
<clipPath id="clip0_13717_39082">
<rect width="128" height="128" fill="white" transform="translate(0.843994)"/>
</clipPath>
</defs>
</svg>
