<svg width="128" height="129" viewBox="0 0 128 129" fill="none" xmlns="http://www.w3.org/2000/svg">
<g clip-path="url(#clip0_2544_57210)">
<rect width="128" height="128" transform="translate(0 0.53418)" fill="#F1F3F4"/>
<path d="M63.6433 19.5342L63.0173 21.608V81.7793L63.6433 82.3884L92.2789 65.8785L63.6433 19.5342Z" fill="#B8FBF6"/>
<path d="M63.6363 19.5342L35 65.8785L63.6363 82.3884V53.1829V19.5342Z" fill="#EECBC0"/>
<path d="M63.643 87.6761L63.2902 88.0957V109.53L63.643 110.534L92.2962 71.1748L63.643 87.6761Z" fill="#C8B2F5"/>
<path d="M63.6364 110.534V87.6761L35 71.1748L63.6364 110.534Z" fill="#EECBC0"/>
<path d="M63.6322 82.3871L92.2678 65.8773L63.6322 53.1816V82.3871Z" fill="#CAB3F5"/>
<path d="M35 65.8773L63.6364 82.3871V53.1816L35 65.8773Z" fill="#87A9F0"/>
</g>
<defs>
<clipPath id="clip0_2544_57210">
<rect width="128" height="128" fill="white" transform="translate(0 0.53418)"/>
</clipPath>
</defs>
</svg>
