<svg width="131" height="34" viewBox="0 0 131 34" fill="none" xmlns="http://www.w3.org/2000/svg">
<g clip-path="url(#clip0_12620_33268)">
<path d="M11.9413 0.325693C12.7677 -0.108564 14.0251 -0.108564 14.8514 0.325693L23.2837 4.75689C23.7814 5.01843 24.0547 5.40815 24.1037 5.81047H24.1117V28.084C24.1007 28.5228 23.8248 28.9587 23.2837 29.2432L14.8514 33.6743C14.0251 34.1086 12.7677 34.1086 11.9413 33.6743L3.50907 29.2432C2.97017 28.96 2.71155 28.521 2.69875 28.084C2.69747 28.041 2.69732 28.0051 2.69854 27.9754L2.69848 5.95353C2.69763 5.92941 2.69755 5.90532 2.69825 5.88134L2.69875 5.81047L2.70252 5.81044C2.73997 5.40372 3.0009 5.02395 3.50907 4.75689L11.9413 0.325693ZM22.7843 18.2367L14.8514 22.4055C14.0251 22.8398 12.7677 22.8398 11.9413 22.4055L4.02581 18.246V28.0399L11.9413 32.1775C12.3883 32.4153 12.8522 32.6469 13.3058 32.6764L13.3964 32.6793C13.8691 32.6809 14.3279 32.4421 14.7933 32.2161L22.7843 28.0043V18.2367ZM1.32725 27.5998C1.32725 28.453 1.42693 29.014 1.62486 29.4092C1.78891 29.7367 2.03505 29.9869 2.4845 30.2916L2.51016 30.3089C2.60879 30.375 2.71745 30.4443 2.8497 30.5256L3.00568 30.6207L3.48463 30.9084L2.7977 32.0384L2.26162 31.7162L2.17152 31.6612C2.01652 31.5658 1.88805 31.4843 1.76822 31.4038C0.487289 30.5445 0.00956895 29.6079 0.00014265 27.659L0 27.5998H1.32725ZM12.7325 12.2668C12.6712 12.2878 12.6136 12.312 12.5612 12.3396L4.12893 16.7708C4.12008 16.7754 4.11164 16.78 4.10361 16.7846L4.09647 16.7887L4.1097 16.7962L4.12893 16.8066L12.5612 21.2378C12.6136 21.2654 12.6712 21.2897 12.7325 21.3106V12.2668ZM14.0602 12.2668V21.3106C14.1216 21.2897 14.1791 21.2654 14.2315 21.2378L22.6638 16.8066C22.6727 16.802 22.6811 16.7974 22.6891 16.7928L22.6963 16.7887L22.683 16.7812L22.6638 16.7708L14.2315 12.3396C14.1791 12.312 14.1216 12.2878 14.0602 12.2668ZM22.7843 7.39048L15.22 11.3656L22.7843 15.3406V7.39048ZM4.02581 7.39978V15.3313L11.5725 11.3656L4.02581 7.39978ZM14.2315 1.49339C13.7931 1.26295 12.9997 1.26295 12.5612 1.49339L4.12893 5.92461C4.12008 5.92925 4.11164 5.93385 4.10361 5.93839L4.09647 5.94251L4.1097 5.95005L4.12893 5.96044L12.5612 10.3916C12.9997 10.6221 13.7931 10.6221 14.2315 10.3916L22.6638 5.96044C22.6727 5.95579 22.6811 5.9512 22.6891 5.94663L22.6963 5.94251L22.683 5.93497L22.6638 5.92461L14.2315 1.49339ZM24.0304 1.97932L24.5665 2.30144L24.6566 2.35648C24.8116 2.45167 24.9401 2.53345 25.0599 2.61383C26.3408 3.47305 26.8186 4.40983 26.8279 6.35856L26.8281 6.41792H25.5009C25.5009 5.56453 25.4012 5.00363 25.2033 4.60846C25.0392 4.28095 24.7931 4.03065 24.3436 3.72608L24.318 3.70879C24.2193 3.64262 24.1107 3.57332 23.9784 3.49185L23.8224 3.39681L23.3435 3.10925L24.0304 1.97932Z" fill="white"/>
<path d="M40.3112 27.1554V14.7338H43.7559V12.4595H40.3112V10.8266C40.3112 8.97993 41.119 8.05659 42.7343 8.05659C43.2013 8.05659 43.6977 8.13434 44.2231 8.28984V5.8697C43.5808 5.67532 42.8705 5.57812 42.092 5.57812C40.5936 5.57812 39.4307 6.00578 38.6035 6.86109C37.7764 7.71641 37.3628 8.96049 37.3628 10.5934V12.4595H34.5312V14.7338H37.3628V27.1554H40.3112ZM52.28 27.3594C53.409 27.3594 54.3965 27.1262 55.2431 26.6595C56.0896 26.193 56.7271 25.5224 57.1553 24.6477V27.1554H60.0745V12.4595H57.1553V14.8505C56.7075 13.9757 56.0655 13.3002 55.2285 12.824C54.3918 12.3477 53.409 12.1096 52.28 12.1096C51.0151 12.1096 49.8862 12.4303 48.8939 13.0718C47.9012 13.7133 47.1277 14.6172 46.5731 15.7835C46.0185 16.9499 45.7412 18.2912 45.7412 19.8074C45.7412 21.3236 46.0134 22.6503 46.5585 23.7875C47.1033 24.9247 47.8672 25.8043 48.85 26.4263C49.8328 27.0483 50.9761 27.3594 52.28 27.3594ZM52.9808 25.0267C51.6378 25.0267 50.5917 24.5699 49.8427 23.6563C49.0933 22.7427 48.7185 21.4597 48.7185 19.8074C48.7185 18.1356 49.0933 16.8284 49.8427 15.8856C50.5917 14.9428 51.6282 14.4714 52.9515 14.4714C54.2943 14.4714 55.3307 14.9282 56.0604 15.8418C56.7904 16.7555 57.1553 18.0579 57.1553 19.7491C57.1553 21.4208 56.7904 22.7183 56.0604 23.6417C55.3307 24.565 54.3041 25.0267 52.9808 25.0267ZM67.3142 27.1554V18.7868C67.3142 17.4844 67.6887 16.4444 68.438 15.6669C69.1873 14.8893 70.1848 14.5006 71.4303 14.5006C72.5201 14.5006 73.313 14.7922 73.8095 15.3753C74.3057 15.9585 74.5538 16.8915 74.5538 18.1745V27.1554H77.5022V17.9996C77.5022 14.0729 75.7408 12.1096 72.2184 12.1096C71.0898 12.1096 70.0825 12.3574 69.1969 12.8531C68.3116 13.3488 67.6353 14.0632 67.1681 14.9963L66.9054 12.4595H64.1615C64.3171 13.6841 64.3949 15.0643 64.3949 16.6V27.1554H67.3142ZM87.3691 27.3594C88.1864 27.3594 88.9164 27.2526 89.5587 27.0388V24.6477C89.033 24.8032 88.5174 24.8809 88.0114 24.8809C87.2328 24.8809 86.6248 24.6719 86.1868 24.254C85.7491 23.8361 85.5299 23.1217 85.5299 22.1109V14.7338H89.5879V12.4595H85.5299V7.76499L82.5817 8.78555V12.4595H79.7207V14.7338H82.5817V22.3441C82.5817 23.977 83.0001 25.2211 83.8368 26.0764C84.6738 26.9317 85.8511 27.3594 87.3691 27.3594ZM98.6375 27.3594C100.058 27.3594 101.313 27.0483 102.403 26.4263C103.493 25.8043 104.335 24.9198 104.928 23.7729C105.522 22.626 105.819 21.2847 105.819 19.7491C105.819 18.2134 105.522 16.8672 104.928 15.7106C104.335 14.554 103.493 13.6647 102.403 13.0426C101.313 12.4206 100.058 12.1096 98.6375 12.1096C97.1972 12.1096 95.9323 12.4206 94.8425 13.0426C93.7526 13.6647 92.9108 14.554 92.3172 15.7106C91.7238 16.8672 91.4268 18.2134 91.4268 19.7491C91.4268 21.2847 91.7238 22.626 92.3172 23.7729C92.9108 24.9198 93.7526 25.8043 94.8425 26.4263C95.9323 27.0483 97.1972 27.3594 98.6375 27.3594ZM98.6082 25.0267C97.2652 25.0267 96.229 24.5796 95.4991 23.6854C94.7694 22.7912 94.4045 21.4791 94.4045 19.7491C94.4045 18.0579 94.7742 16.7555 95.5137 15.8418C96.2532 14.9282 97.2945 14.4714 98.6375 14.4714C99.9608 14.4714 100.987 14.9282 101.717 15.8418C102.447 16.7555 102.812 18.0579 102.812 19.7491C102.812 21.4791 102.452 22.7912 101.732 23.6854C101.012 24.5796 99.9704 25.0267 98.6082 25.0267ZM112.182 27.1554V18.8451C112.182 17.5039 112.513 16.4444 113.175 15.6669C113.837 14.8893 114.732 14.5006 115.861 14.5006C116.834 14.5006 117.539 14.7922 117.977 15.3753C118.415 15.9585 118.634 16.8818 118.634 18.1453V27.1554H121.582V18.8451C121.582 17.5039 121.908 16.4444 122.56 15.6669C123.212 14.8893 124.103 14.5006 125.232 14.5006C126.205 14.5006 126.91 14.7922 127.348 15.3753C127.786 15.9585 128.005 16.8818 128.005 18.1453V27.1554H130.953V17.9996C130.953 14.0729 129.318 12.1096 126.049 12.1096C124.959 12.1096 123.981 12.3623 123.115 12.8677C122.249 13.3731 121.592 14.0632 121.145 14.9379C120.444 13.0524 118.955 12.1096 116.678 12.1096C115.608 12.1096 114.674 12.3526 113.876 12.8385C113.078 13.3245 112.465 14.0146 112.037 14.9088L111.774 12.4595H109.03C109.185 13.6841 109.263 15.0643 109.263 16.6V27.1554H112.182Z" fill="white"/>
</g>
<defs>
<clipPath id="clip0_12620_33268">
<rect width="130.953" height="34" fill="white"/>
</clipPath>
</defs>
</svg>
