<svg width="128" height="128" viewBox="0 0 128 128" fill="none" xmlns="http://www.w3.org/2000/svg">
<rect width="128" height="128" fill="#1969FF"/>
<path d="M60.7122 20.843C62.8375 19.719 66.0714 19.719 68.1968 20.843L89.8839 32.3119C91.1639 32.9888 91.8669 33.9975 91.9929 35.0388H92.0135V92.6879C91.9854 93.8236 91.2758 94.9518 89.8839 95.6881L68.1968 107.157C66.0714 108.281 62.8375 108.281 60.7122 107.157L39.0251 95.6881C37.6391 94.9552 36.9739 93.8188 36.941 92.6879C36.9377 92.5765 36.9373 92.4837 36.9404 92.4067L36.9403 35.4091C36.9381 35.3467 36.9379 35.2843 36.9397 35.2223L36.941 35.0388L36.9507 35.0388C37.047 33.9861 37.7181 33.0031 39.0251 32.3119L60.7122 20.843ZM88.5994 67.2009L68.1968 77.9906C66.0714 79.1146 62.8375 79.1146 60.7122 77.9906L40.3541 67.225V92.5737L60.7122 103.283C61.8617 103.898 63.0549 104.498 64.2215 104.574L64.4545 104.582C65.6702 104.586 66.8504 103.968 68.0473 103.383L88.5994 92.4816V67.2009ZM33.4136 91.4345C33.4136 93.6428 33.67 95.0948 34.179 96.1178C34.6009 96.9655 35.234 97.6131 36.39 98.4017L36.4559 98.4463C36.7096 98.6175 36.9891 98.797 37.3292 99.0073L37.7304 99.2535L38.9622 99.998L37.1955 102.923L35.8167 102.089L35.585 101.946C35.1863 101.7 34.8559 101.489 34.5477 101.28C31.2533 99.0562 30.0246 96.632 30.0004 91.5879L30 91.4345H33.4136ZM62.7472 51.7492C62.5893 51.8036 62.4413 51.8663 62.3064 51.9377L40.6193 63.4067C40.5966 63.4187 40.5748 63.4306 40.5542 63.4423L40.5358 63.4531L40.5698 63.4725L40.6193 63.4994L62.3064 74.9684C62.4413 75.0398 62.5893 75.1025 62.7472 75.1568V51.7492ZM66.1618 51.7492V75.1568C66.3197 75.1025 66.4677 75.0398 66.6025 74.9684L88.2897 63.4994C88.3124 63.4874 88.3342 63.4755 88.3548 63.4637L88.3732 63.4531L88.3391 63.4336L88.2897 63.4067L66.6025 51.9377C66.4677 51.8663 66.3197 51.8036 66.1618 51.7492ZM88.5994 39.1283L69.1449 49.4167L88.5994 59.7051V39.1283ZM40.3541 39.1523V59.681L59.7636 49.4167L40.3541 39.1523ZM66.6025 23.8652C65.4747 23.2688 63.4343 23.2688 62.3064 23.8652L40.6193 35.3342C40.5966 35.3463 40.5748 35.3582 40.5542 35.3699L40.5358 35.3806L40.5698 35.4001L40.6193 35.427L62.3064 46.896C63.4343 47.4924 65.4747 47.4924 66.6025 46.896L88.2897 35.427C88.3124 35.415 88.3342 35.4031 88.3548 35.3912L88.3732 35.3806L88.3391 35.3611L88.2897 35.3342L66.6025 23.8652ZM91.8045 25.1229L93.1833 25.9567L93.415 26.0991C93.8137 26.3455 94.144 26.5572 94.4523 26.7652C97.7467 28.989 98.9754 31.4136 98.9993 36.4574L99 36.6111H95.5864C95.5864 34.4023 95.33 32.9506 94.821 31.9278C94.3991 31.0801 93.766 30.4322 92.6101 29.644L92.5441 29.5992C92.2904 29.4279 92.0109 29.2486 91.6708 29.0377L91.2696 28.7917L90.0378 28.0474L91.8045 25.1229Z" fill="white"/>
</svg>
