<svg width="220" height="64" viewBox="0 0 220 64" fill="none" xmlns="http://www.w3.org/2000/svg">
<path d="M32 0C14.3294 0 0 14.3294 0 32C0 49.6706 14.3294 64 32 64C49.6706 64 63.9912 49.6706 63.9912 32C63.9912 14.3294 49.6618 0 32 0Z" fill="black"/>
<path d="M45.0053 46.005H40.945V37.367H23.0552V46.005H18.9949V17.9951H23.0552V26.4226H40.945V17.9951H45.0053V46.005ZM23.2481 34.1398H41.1379V29.6761H23.2481V34.1398Z" fill="white"/>
<path d="M102.656 45.303V33.7974H86.6254V45.303H83.0649V19.2049H86.6254V30.4913H102.647V19.2049H106.216V45.303H102.656ZM121.581 26.7029C124.422 26.7029 126.676 27.65 128.342 29.553C130.008 31.4559 130.841 33.8062 130.841 36.63H115.731C115.784 37.8314 116.152 38.9539 116.836 39.9887C117.52 41.0323 118.406 41.7601 119.485 42.1723C120.195 42.488 121.002 42.6459 121.914 42.6459C122.993 42.6459 124.062 42.4354 125.115 42.0057C126.167 41.576 126.904 40.9446 127.316 40.1115H130.622C130.429 41.2164 129.859 42.1986 128.93 43.0668C128 43.935 126.956 44.6015 125.808 45.0663C124.755 45.5047 123.457 45.724 121.914 45.724C119.169 45.724 116.889 44.8207 115.082 43.0054C113.276 41.1901 112.364 38.9276 112.364 36.209C112.364 33.4905 113.232 31.2192 114.968 29.4126C116.705 27.6149 118.915 26.7029 121.581 26.7029ZM121.581 29.5705C120.16 29.5705 118.95 29.9388 117.959 30.6755C116.968 31.4121 116.301 32.4644 115.959 33.8325H127.132C126.72 32.482 126.027 31.4384 125.071 30.693C124.115 29.9476 122.958 29.5705 121.581 29.5705ZM150.468 45.303V42.1811C150.397 42.3039 150.187 42.6108 149.845 43.1019C149.161 43.9613 148.275 44.619 147.196 45.0663C146.118 45.5223 145.004 45.7415 143.855 45.7415C141.163 45.7415 138.988 44.8295 137.348 43.0054C135.708 41.1814 134.884 38.9188 134.884 36.2266C134.884 33.4817 135.708 31.2104 137.366 29.4126C139.023 27.6149 141.181 26.7116 143.855 26.7116C145.004 26.7116 146.118 26.9221 147.196 27.3343C148.275 27.7552 149.143 28.3778 149.81 29.211C150.152 29.6494 150.371 29.9739 150.468 30.1668V18.2578H153.809V45.3118H150.468V45.303ZM150.546 36.2266C150.546 34.3674 149.985 32.824 148.871 31.6138C147.758 30.4036 146.293 29.7985 144.478 29.7985C142.619 29.7985 141.128 30.4124 140.014 31.6401C138.901 32.8678 138.339 34.3937 138.339 36.2353C138.339 38.0945 138.909 39.6379 140.049 40.8481C141.189 42.0583 142.663 42.6634 144.478 42.6634C146.32 42.6634 147.784 42.0408 148.889 40.8043C149.994 39.5678 150.546 38.0419 150.546 36.2266ZM168.594 26.7029C171.435 26.7029 173.689 27.65 175.355 29.553C177.022 31.4559 177.855 33.8062 177.855 36.63H162.745C162.797 37.8314 163.166 38.9539 163.85 39.9887C164.534 41.0323 165.42 41.7601 166.498 42.1723C167.209 42.488 168.015 42.6459 168.927 42.6459C170.006 42.6459 171.076 42.4354 172.128 42.0057C173.181 41.576 173.917 40.9446 174.329 40.1115H177.636C177.443 41.2164 176.873 42.1986 175.943 43.0668C175.013 43.935 173.97 44.6015 172.821 45.0663C171.769 45.5047 170.471 45.724 168.927 45.724C166.183 45.724 163.902 44.8207 162.096 43.0054C160.281 41.1901 159.377 38.9276 159.377 36.209C159.377 33.4905 160.246 31.2192 161.991 29.4126C163.718 27.6149 165.919 26.7029 168.594 26.7029ZM168.594 29.5705C167.173 29.5705 165.963 29.9388 164.972 30.6755C163.981 31.4121 163.315 32.4644 162.973 33.8325H174.145C173.733 32.482 173.04 31.4384 172.084 30.693C171.129 29.9476 169.962 29.5705 168.594 29.5705ZM186.563 35.0515V45.303H183.222V27.1501H186.563V30.4913C186.659 30.1931 186.87 29.8336 187.186 29.3863C187.703 28.5532 188.492 27.9481 189.553 27.571C190.623 27.194 191.728 27.001 192.877 27.001H197.437V30.3422H192.807C190.799 30.3422 189.255 30.6667 188.176 31.3156C187.107 31.9734 186.563 33.2099 186.563 35.0515ZM215.897 45.303V42.1811C215.309 43.3299 214.432 44.2156 213.266 44.8295C212.1 45.4433 210.837 45.7503 209.46 45.7503C206.785 45.7503 204.646 44.8295 203.032 42.9966C201.418 41.155 200.603 38.9013 200.603 36.2353C200.603 33.5431 201.427 31.2806 203.067 29.4565C204.707 27.6324 206.838 26.7204 209.46 26.7204C211.986 26.7204 213.924 27.5535 215.266 29.2197C215.608 29.7108 215.818 30.0265 215.888 30.1756V27.1589H219.229V45.3118L215.897 45.303ZM215.967 36.2266C215.967 34.385 215.432 32.8591 214.354 31.6313C213.275 30.4036 211.854 29.7897 210.092 29.7897C208.276 29.7897 206.821 30.4124 205.716 31.6489C204.611 32.8854 204.058 34.4113 204.058 36.2266C204.058 38.1646 204.611 39.6818 205.716 40.7867C206.821 42.0408 208.276 42.6634 210.092 42.6634C211.854 42.6634 213.275 42.0408 214.354 40.7867C215.432 39.5327 215.967 38.0156 215.967 36.2266Z" fill="black"/>
</svg>
