<svg width="165" height="35" viewBox="0 0 165 35" fill="none" xmlns="http://www.w3.org/2000/svg">
<path d="M45.7258 26.1362V12.1093C45.7258 10.6685 46.8941 9.50049 48.3349 9.50049H48.5261V26.1362H45.7258Z" fill="black"/>
<path d="M52.5854 26.1362V9.50049H55.5317L62.2769 21.5734V9.50049H62.3463C63.7871 9.50049 64.9553 10.6685 64.9553 12.1093V26.1362H62.0088L55.2639 14.0633V26.1362H52.5854Z" fill="black"/>
<path d="M73.78 26.5402C72.0429 26.5402 70.6876 26.0095 69.7134 24.9481C68.7394 23.8864 68.2524 22.4764 68.2524 20.7177H71.0527C71.0527 21.7476 71.2801 22.5715 71.7345 23.1894C72.2055 23.7913 72.8872 24.0924 73.78 24.0924C74.6729 24.0924 75.3546 23.7913 75.8253 23.1894C76.3125 22.5715 76.5559 21.7554 76.5559 20.7416V12.1093C76.5559 10.6685 77.7241 9.50049 79.165 9.50049H79.3562V20.7416C79.3562 22.5 78.8611 23.9103 77.8709 24.9717C76.8969 26.0174 75.5331 26.5402 73.78 26.5402Z" fill="black"/>
<path d="M83.1594 9.50049H92.9971C92.9971 10.8523 91.901 11.9483 90.5492 11.9483H85.9597V16.6538H92.9971V19.1016H85.9597V23.6883H92.9971V26.1362H83.1594V16.6538V11.9483V9.50049Z" fill="black"/>
<path d="M154.238 9.50049H164.076C164.076 10.8523 162.98 11.9483 161.628 11.9483H157.038V16.6538H164.076V19.1016H157.038V23.6883H164.076V26.1362H154.238V16.6538V11.9483V9.50049Z" fill="black"/>
<path d="M104.446 26.54C102.016 26.54 100.093 25.7321 98.6762 24.1158C97.2592 22.4998 96.5508 20.4006 96.5508 17.818C96.5508 15.2356 97.2592 13.1364 98.6762 11.5201C100.093 9.90408 102.016 9.09619 104.446 9.09619C106.484 9.09619 108.162 9.66657 109.478 10.8073C110.793 11.9321 111.567 13.3978 111.798 15.2038H111.172C109.943 15.2038 108.963 14.2751 108.234 13.2854C108.024 13.0001 107.78 12.7443 107.504 12.5185C106.723 11.8688 105.711 11.544 104.467 11.544C102.804 11.544 101.503 12.1144 100.563 13.2552C99.6379 14.3799 99.1751 15.9011 99.1751 17.818C99.1751 19.7351 99.6379 21.2642 100.563 22.4049C101.503 23.5297 102.804 24.0922 104.467 24.0922C105.711 24.0922 106.723 23.7674 107.504 23.1177C107.78 22.8919 108.024 22.6361 108.234 22.3508C108.963 21.3611 109.943 20.4324 111.172 20.4324H111.798C111.567 22.2384 110.793 23.712 109.478 24.8528C108.162 25.9775 106.484 26.54 104.446 26.54Z" fill="black"/>
<path d="M119.028 26.1362V12.0671H114.085C114.085 10.6496 115.235 9.50049 116.652 9.50049H126.796V12.0671H121.829V26.1362H119.028Z" fill="black"/>
<path d="M130.35 26.1362V12.1093C130.35 10.6685 131.518 9.50049 132.959 9.50049H133.15V26.1362H130.35Z" fill="black"/>
<path d="M142.352 26.1362L136.703 9.50049H137.842C138.977 9.50049 139.981 10.2339 140.327 11.3146L143.691 21.8348L147.056 11.3146C147.402 10.2339 148.406 9.50049 149.541 9.50049H150.68L145.031 26.1362H142.352Z" fill="black"/>
<path d="M4.12228 6.42325C4.33337 6.15777 4.55707 5.90246 4.7808 5.64714C4.79085 5.63443 4.81353 5.63189 4.8236 5.61917C4.84369 5.594 4.87644 5.57874 4.89656 5.55356L4.91664 5.52813C5.0726 5.38395 5.23858 5.22705 5.42989 5.09049C6.10682 4.57656 6.80936 4.18622 7.55014 3.92913C9.92611 3.09505 12.5711 3.60923 14.6451 5.56729C17.5412 8.28189 17.2819 12.655 14.9701 15.5616C12.0485 19.8947 7.02818 25.9403 13.9793 31.3558C15.2292 32.3295 16.1563 33.1323 20.0933 34.27C17.5183 34.7445 15.131 34.5968 12.4737 33.918C10.5939 32.8571 7.63864 30.5855 6.63318 27.5172C5.11352 22.8644 9.30859 15.9089 11.3359 13.2299C14.1197 9.52259 9.61552 5.50906 6.29955 9.98972C4.56618 12.3249 1.53377 18.9325 2.58756 23.8338C3.20372 26.6132 4.02501 28.6392 7.28138 31.4221C6.67751 31.0659 6.09113 30.6616 5.52227 30.2094C-2.04367 23.1619 -1.16587 12.2646 4.12228 6.42325Z" fill="url(#paint0_linear_11958_32836)"/>
<path d="M29.8779 28.6699C29.6669 28.9354 29.4431 29.1907 29.2193 29.446C29.2094 29.4587 29.1865 29.4612 29.1766 29.4737C29.1565 29.4991 29.1237 29.5144 29.1036 29.5396L29.0835 29.565C28.9276 29.7092 28.7616 29.8658 28.5704 30.0026C27.8932 30.5166 27.1908 30.9069 26.4501 31.1637C24.0739 31.9981 21.4293 31.4839 19.355 29.5258C16.4591 26.8112 16.7185 22.4381 19.0303 19.5313C21.9516 15.1984 26.9719 9.15279 20.0207 3.73734C18.7709 2.76365 17.8437 1.96059 13.9067 0.823008C16.4817 0.348647 18.869 0.496188 21.5264 1.17492C23.4062 2.23599 26.3616 4.5076 27.367 7.57592C28.8867 12.2287 24.6916 19.1842 22.6641 21.8629C19.8806 25.5705 24.3847 29.5838 27.7007 25.1034C29.4339 22.7682 32.4664 16.1606 31.4126 11.2594C30.7964 8.47993 29.9751 6.45397 26.7188 3.67098C27.3225 4.02724 27.9089 4.43131 28.4778 4.8837C36.0438 11.9312 35.166 22.8285 29.8779 28.6699Z" fill="url(#paint1_linear_11958_32836)"/>
<defs>
<linearGradient id="paint0_linear_11958_32836" x1="-6.33702e-06" y1="17.5466" x2="33.9999" y2="17.5466" gradientUnits="userSpaceOnUse">
<stop stop-color="#0082FA"/>
<stop offset="1" stop-color="#00F2FE"/>
</linearGradient>
<linearGradient id="paint1_linear_11958_32836" x1="0.000130505" y1="17.5463" x2="34" y2="17.5463" gradientUnits="userSpaceOnUse">
<stop stop-color="#0082FA"/>
<stop offset="1" stop-color="#00F2FE"/>
</linearGradient>
</defs>
</svg>
