<svg width="128" height="128" viewBox="0 0 128 128" fill="none" xmlns="http://www.w3.org/2000/svg">
<g id="INJ" clip-path="url(#clip0_11958_32820)">
<path id="Vector" d="M128 0H0V128H128V0Z" fill="#14151A"/>
<path id="Vector_2" d="M33.2956 37.4778C33.7989 36.8451 34.3323 36.2362 34.8657 35.6275C34.8897 35.5973 34.9438 35.5911 34.9678 35.561C35.0156 35.5007 35.0937 35.4644 35.1417 35.4041L35.1896 35.3439C35.5614 35.0001 35.9572 34.6262 36.4133 34.3002C38.0274 33.0749 39.7025 32.144 41.4687 31.5315C47.1337 29.5426 53.4399 30.7683 58.3852 35.437C65.2903 41.9095 64.6719 52.3364 59.1598 59.2668C52.1943 69.5984 40.2241 84.0127 56.798 96.9248C59.7779 99.2467 61.9886 101.161 71.3755 103.873C65.2363 105.005 59.5438 104.653 53.2078 103.035C48.726 100.505 41.6797 95.0884 39.2824 87.7728C35.659 76.6789 45.6614 60.0948 50.4954 53.7075C57.1324 44.8679 46.3932 35.2984 38.4869 45.9816C34.354 51.5491 27.1238 67.3039 29.6363 78.99C31.1054 85.6173 33.0636 90.448 40.8279 97.0835C39.388 96.2336 37.9899 95.2702 36.6336 94.1916C18.5941 77.3881 20.687 51.4059 33.2956 37.4778Z" fill="url(#paint0_linear_11958_32820)"/>
<path id="Vector_3" d="M94.7048 90.5217C94.2013 91.1549 93.668 91.7633 93.1346 92.3726C93.1107 92.4025 93.0561 92.4084 93.0322 92.4391C92.9844 92.4989 92.9068 92.5356 92.8581 92.5953L92.8104 92.6559C92.4392 92.9998 92.0432 93.3736 91.5867 93.6995C89.973 94.9249 88.2979 95.8559 86.5315 96.4686C80.8665 98.4569 74.5604 97.2315 69.615 92.5629C62.71 86.0903 63.3284 75.6635 68.8404 68.733C75.8059 58.4015 87.7757 43.9872 71.2023 31.0748C68.2223 28.7532 66.0116 26.8389 56.6248 24.1263C62.7639 22.9953 68.4564 23.3471 74.7924 24.9654C79.2743 27.4952 86.3208 32.9116 88.7178 40.2273C92.341 51.3209 82.3388 67.905 77.5048 74.2924C70.8678 83.132 81.607 92.7011 89.5131 82.0182C93.6466 76.4508 100.876 60.696 98.3638 49.0099C96.8944 42.3829 94.9369 37.5522 87.1724 30.9166C88.612 31.766 90.0106 32.7299 91.3665 33.808C109.406 50.6118 107.314 76.594 94.7048 90.5217Z" fill="url(#paint1_linear_11958_32820)"/>
</g>
<defs>
<linearGradient id="paint0_linear_11958_32820" x1="23.4668" y1="63.9998" x2="104.533" y2="63.9998" gradientUnits="userSpaceOnUse">
<stop stop-color="#0082FA"/>
<stop offset="1" stop-color="#00F2FE"/>
</linearGradient>
<linearGradient id="paint1_linear_11958_32820" x1="23.4668" y1="64.0001" x2="104.533" y2="64.0001" gradientUnits="userSpaceOnUse">
<stop stop-color="#0082FA"/>
<stop offset="1" stop-color="#00F2FE"/>
</linearGradient>
<clipPath id="clip0_11958_32820">
<rect width="128" height="128" fill="white"/>
</clipPath>
</defs>
</svg>
