<svg width="222" height="64" viewBox="0 0 222 64" fill="none" xmlns="http://www.w3.org/2000/svg">
<path d="M58.1465 63.1197H48.9281V18.2607H58.1465V63.1197Z" fill="#121212"/>
<path d="M91.4556 17.3804C96.5441 17.3804 100.702 19.1647 103.923 22.7334C107.139 26.3021 108.752 30.8394 108.752 36.3407V63.1151H99.5334V37.745C99.5334 34.2922 98.4215 31.4373 96.1966 29.1848C93.9723 26.9324 91.2237 25.8062 87.9468 25.8062C84.2578 25.8062 81.2454 26.9324 78.9048 29.1848C76.5642 31.4373 75.3919 34.2922 75.3919 37.745V63.1151H66.1737V18.261H75.3919V29.8476C76.62 25.9869 78.6546 22.9419 81.4956 20.7173C84.3319 18.4927 87.6551 17.3804 91.4603 17.3804H91.4556Z" fill="#121212"/>
<path d="M137.491 17.3804C144.689 17.3804 150.542 19.9572 155.047 25.1063C159.552 30.26 161.397 36.489 160.577 43.8071H123.444C124.088 47.436 125.756 50.379 128.449 52.6315C131.142 54.8837 134.386 56.0104 138.191 56.0104C141.116 56.0104 143.734 55.2917 146.047 53.8596C148.36 52.4275 150.158 50.481 151.446 48.02L159.172 51.445C157.184 55.2502 154.343 58.2905 150.658 60.5753C146.974 62.8601 142.728 64.0004 137.927 64.0004C131.198 64.0004 125.548 61.7755 120.983 57.331C116.418 52.8865 114.133 47.3526 114.133 40.739C114.133 34.1253 116.371 28.5823 120.848 24.1006C125.325 19.6236 130.869 17.385 137.486 17.385L137.491 17.3804ZM137.491 25.3705C134.094 25.3705 131.156 26.4086 128.667 28.4896C126.178 30.5659 124.523 33.2726 123.708 36.6095H151.275C150.515 33.2726 148.888 30.5659 146.404 28.4896C143.915 26.4133 140.944 25.3705 137.491 25.3705Z" fill="#121212"/>
<path d="M186.062 17.3804C191.448 17.3804 195.837 18.7847 199.229 21.5933C202.622 24.4019 204.323 28.4433 204.323 33.7082V63.1198H195.105V51.1808C192.352 59.7273 186.823 64.0004 178.512 64.0004C174.647 64.0004 171.431 62.8465 168.854 60.5338C166.277 58.2211 164.993 55.1945 164.993 51.4496C164.993 47.0606 166.542 43.7654 169.647 41.5732C172.747 39.381 176.7 38.0185 181.498 37.4901L190.187 36.6095C193.464 36.3175 195.105 34.853 195.105 32.2205C195.105 30.0561 194.27 28.3274 192.602 27.0436C190.933 25.7552 188.755 25.111 186.062 25.111C183.37 25.111 180.983 25.8154 179.083 27.2197C177.182 28.624 175.968 30.6725 175.44 33.3653L166.31 31.1685C167.13 26.9556 169.322 23.6047 172.896 21.1159C176.464 18.6317 180.853 17.385 186.062 17.385V17.3804ZM181.498 56.534C185.302 56.534 188.519 55.2591 191.152 52.7151C193.784 50.1705 195.1 47.1997 195.1 43.8025V41.3461C194.4 42.5187 192.699 43.2463 190.007 43.5383L181.493 44.5904C179.268 44.887 177.498 45.5405 176.181 46.5647C174.865 47.589 174.207 48.9794 174.207 50.7359C174.207 52.4925 174.865 53.8969 176.181 54.9489C177.498 56.0009 179.268 56.5293 181.493 56.5293L181.498 56.534Z" fill="#121212"/>
<path d="M42.5785 63.1197H0V18.2607H9.742V54.4293H42.5785V63.1197Z" fill="#121212"/>
<path d="M213.013 17.3799C217.812 17.3799 221.703 13.4893 221.703 8.68996C221.703 3.89062 217.812 0 213.013 0C208.214 0 204.323 3.89062 204.323 8.68996C204.323 13.4893 208.214 17.3799 213.013 17.3799Z" fill="#121212"/>
</svg>
