<svg width="128" height="128" viewBox="0 0 128 128" fill="none" xmlns="http://www.w3.org/2000/svg">
<g clip-path="url(#clip0_13051_36296)">
<path d="M128 0H0V128H128V0Z" fill="black"/>
<path fill-rule="evenodd" clip-rule="evenodd" d="M41.7196 93.9662C32.6333 87.1531 26.738 76.2638 26.738 64.0005C26.738 43.3573 43.4283 26.6087 63.9998 26.6087C80.9843 26.6087 99.5303 36.7941 104.011 52.3958C98.9986 34.9659 82.9872 22.2144 63.9998 22.2144C41.0068 22.2144 22.3589 40.9272 22.3589 64.0005C22.3589 87.0737 41.0068 105.787 63.9998 105.787C86.9929 105.787 105.641 87.0737 105.641 64.0005V61.7976H103.355C103.287 61.7976 103.185 61.7976 103.05 61.7976C102.778 61.7976 102.393 61.7863 101.895 61.7635C100.911 61.7296 99.553 61.6613 98.0255 61.5252C94.9024 61.2525 91.338 60.7189 88.9165 59.7423C85.0126 58.1753 82.8061 56.1088 80.2941 53.6788L80.147 53.5426C77.6236 51.1126 74.7949 48.3761 69.8725 46.0598C65.0295 43.7774 59.6774 44.1407 55.7509 44.9582C53.7594 45.367 52.0394 45.9121 50.8286 46.3549C50.2175 46.5706 49.7311 46.775 49.3915 46.9113C47.4114 47.7516 45.4877 48.7395 43.5528 49.6591C43.5528 49.6591 47.3661 50.7038 49.2444 51.2944C49.3123 51.317 49.4142 51.3511 49.5613 51.3966C49.8442 51.4873 50.2515 51.6349 50.7381 51.8393C51.7338 52.2481 53.0351 52.85 54.3251 53.6903C56.3618 54.9961 58.0479 56.6538 58.7382 58.675C54.4269 59.2428 50.376 61.1503 47.3435 62.9332C45.5103 64.0118 43.9827 65.1019 42.9077 65.9082C42.376 66.3168 41.946 66.6575 41.6517 66.8959C41.4029 67.1003 37.5103 70.5409 37.5103 70.5409C37.5103 70.5409 42.5344 71.0745 45.0125 71.5742C46.6645 71.9034 48.8824 72.4486 51.2134 73.2547C53.5444 74.0723 55.898 75.1396 57.8555 76.5137C59.8132 77.8876 61.2501 79.4659 61.9517 81.2827C64.0111 86.574 61.9857 91.7179 57.9234 94.6133C53.9064 97.4748 47.8073 98.1561 41.7083 93.9547L41.7196 93.9662ZM55.9319 100.507C57.5726 99.9729 59.1002 99.1894 60.4807 98.2128C66.0027 94.2728 68.9107 87.0509 66.048 79.6929C64.9165 76.7975 62.7664 74.5946 60.3788 72.9141C57.98 71.2336 55.2303 70.0072 52.673 69.1102C50.9984 68.5198 49.3689 68.0656 47.9544 67.7248C48.4637 67.3956 48.9954 67.0549 49.5726 66.7143C52.9446 64.7272 57.1993 62.8991 61.2727 62.8991C67.417 62.8991 71.9886 64.7953 76.3563 66.8165C76.7524 66.9981 77.1485 67.1912 77.5557 67.373C81.4596 69.2124 85.5559 71.1428 90.3196 71.1428C95.0834 71.1428 98.5346 69.8369 101.013 68.4744C98.8062 87.0055 83.0891 101.381 64.0224 101.381C61.2501 101.381 58.5458 101.074 55.9546 100.507H55.9319ZM96.2602 65.7832C94.6194 66.3396 92.628 66.7484 90.3083 66.7484C86.5742 66.7484 83.3607 65.2495 79.2871 63.3418C78.9249 63.1715 78.5628 63.0013 78.1895 62.831C74.1045 60.9346 69.386 58.9248 63.2417 58.5615C62.4157 54.4851 59.3379 51.6917 56.69 49.9885C56.3958 49.7955 56.1017 49.6139 55.8074 49.4434C56.0677 49.3866 56.3392 49.3186 56.6221 49.2618C60.1751 48.5238 64.4072 48.342 67.9942 50.0453C72.2489 52.055 74.6591 54.3716 77.1598 56.7788L77.2503 56.8582C79.8188 59.3337 82.5459 61.9338 87.287 63.8415C89.9235 64.8975 93.3408 65.4652 96.2602 65.7832Z" fill="url(#paint0_linear_13051_36296)"/>
</g>
<defs>
<linearGradient id="paint0_linear_13051_36296" x1="21.6121" y1="64.7726" x2="106.388" y2="63.2278" gradientUnits="userSpaceOnUse">
<stop stop-color="#29CCB9"/>
<stop offset="0.49" stop-color="#0091FF"/>
<stop offset="1" stop-color="#FF66B7"/>
</linearGradient>
<clipPath id="clip0_13051_36296">
<rect width="128" height="128" fill="white"/>
</clipPath>
</defs>
</svg>
