<svg width="113" height="34" viewBox="0 0 113 34" fill="none" xmlns="http://www.w3.org/2000/svg">
<g clip-path="url(#clip0_13051_36280)">
<path fill-rule="evenodd" clip-rule="evenodd" d="M7.87671 29.1915C4.18006 26.4197 1.78159 21.9895 1.78159 17.0002C1.78159 8.60177 8.57188 1.7878 16.9412 1.7878C23.8511 1.7878 31.3964 5.93161 33.2195 12.279C31.1801 5.18784 24.666 0 16.9412 0C7.58671 0 0 7.61313 0 17.0002C0 26.3874 7.58671 34.0005 16.9412 34.0005C26.2957 34.0005 33.8824 26.3874 33.8824 17.0002V16.104H32.9524C32.9248 16.104 32.8834 16.104 32.8282 16.104C32.7177 16.104 32.5611 16.0994 32.3586 16.0902C31.958 16.0764 31.4056 16.0486 30.7842 15.9932C29.5136 15.8823 28.0634 15.6652 27.0783 15.2678C25.49 14.6303 24.5923 13.7896 23.5703 12.801L23.5105 12.7456C22.4839 11.7569 21.333 10.6436 19.3304 9.70126C17.3601 8.77269 15.1826 8.92052 13.5852 9.25309C12.775 9.41941 12.0752 9.64119 11.5826 9.82132C11.334 9.90909 11.1361 9.99225 10.998 10.0477C10.1924 10.3896 9.40971 10.7915 8.62252 11.1656C8.62252 11.1656 10.1739 11.5906 10.9381 11.8309C10.9657 11.8401 11.0072 11.854 11.067 11.8725C11.1821 11.9094 11.3478 11.9694 11.5458 12.0526C11.9509 12.2189 12.4803 12.4638 13.0051 12.8056C13.8337 13.3369 14.5197 14.0113 14.8006 14.8336C13.0466 15.0646 11.3985 15.8407 10.1647 16.566C9.41891 17.0048 8.79741 17.4483 8.36008 17.7764C8.14375 17.9426 7.96879 18.0812 7.84908 18.1782C7.74786 18.2614 6.1642 19.6611 6.1642 19.6611C6.1642 19.6611 8.20821 19.8782 9.2164 20.0815C9.88848 20.2155 10.7908 20.4373 11.7392 20.7652C12.6875 21.0979 13.645 21.5321 14.4414 22.0911C15.2379 22.6501 15.8225 23.2922 16.1079 24.0313C16.9458 26.1841 16.1218 28.2768 14.469 29.4548C12.8348 30.6189 10.3534 30.8961 7.87211 29.1868L7.87671 29.1915ZM13.6588 31.8524C14.3263 31.6353 14.9478 31.3165 15.5095 30.9192C17.756 29.3162 18.9391 26.3781 17.7745 23.3845C17.3141 22.2066 16.4394 21.3104 15.468 20.6267C14.4921 19.943 13.3734 19.444 12.333 19.0791C11.6517 18.8389 10.9887 18.6541 10.4133 18.5155C10.6205 18.3815 10.8368 18.2429 11.0716 18.1043C12.4435 17.2959 14.1744 16.5521 15.8317 16.5521C18.3314 16.5521 20.1913 17.3236 21.9683 18.1459C22.1294 18.2198 22.2906 18.2984 22.4563 18.3723C24.0445 19.1207 25.711 19.906 27.6491 19.906C29.5872 19.906 30.9913 19.3748 31.9995 18.8204C31.1018 26.3596 24.7074 32.2081 16.9504 32.2081C15.8225 32.2081 14.7223 32.0834 13.6681 31.8524H13.6588ZM30.066 17.7255C29.3985 17.9519 28.5882 18.1182 27.6445 18.1182C26.1253 18.1182 24.8179 17.5084 23.1606 16.7323C23.0133 16.663 22.866 16.5937 22.7141 16.5245C21.0522 15.7529 19.1325 14.9353 16.6328 14.7874C16.2967 13.129 15.0445 11.9925 13.9673 11.2996C13.8475 11.2211 13.7279 11.1472 13.6082 11.0779C13.7141 11.0548 13.8245 11.0271 13.9396 11.004C15.3851 10.7037 17.1069 10.6298 18.5662 11.3227C20.2972 12.1404 21.2778 13.0828 22.2952 14.0622L22.332 14.0945C23.377 15.1016 24.4864 16.1594 26.4153 16.9356C27.488 17.3652 28.8782 17.5962 30.066 17.7255Z" fill="url(#paint0_linear_13051_36280)"/>
<path d="M44.8481 13.337V3.29395H46.7632L48.4205 7.32688L50.0778 3.29395H51.9929V13.337H50.4922V5.61762L48.4067 10.593L46.3213 5.61762V13.337H44.8481Z" fill="black"/>
<path d="M54.2668 13.337L57.4111 3.29395H59.4413L62.5856 13.337H60.8408L60.1134 10.9117H56.67L55.9564 13.337H54.2715H54.2668ZM57.0521 9.57665H59.7406L58.3963 5.11408L57.0521 9.57665Z" fill="black"/>
<path d="M65.0439 13.337V3.29395H66.7749L70.3933 10.3204L70.3657 3.29395H71.8253V13.337H70.2368L66.4757 6.07958L66.5033 13.337H65.0439Z" fill="black"/>
<path d="M77.5791 13.337V4.75837H74.4766V3.29395H82.3951V4.75837H79.2919V13.337H77.5749H77.5791Z" fill="black"/>
<path d="M84.2871 13.337L87.4314 3.29395H89.4616L92.6052 13.337H90.8605L90.1331 10.9117H86.6898L85.9765 13.337H84.2914H84.2871ZM87.0723 9.57665H89.7605L88.416 5.11408L87.0723 9.57665Z" fill="black"/>
<path d="M45.0322 30.5499V20.5068H46.7631L50.3816 27.5332L50.3539 20.5068H51.8133V30.5499H50.225L46.4639 23.2925L46.4916 30.5499H45.0322Z" fill="black"/>
<path d="M55.3811 30.5499V20.5068H61.9274V21.9713H57.0936V24.7707H60.2241V26.2028H57.0936V29.0855H61.9826V30.5499H55.3765H55.3811Z" fill="black"/>
<path d="M67.576 30.5499V21.9713H64.4731V20.5068H72.3913V21.9713H69.2885V30.5499H67.5714H67.576Z" fill="black"/>
<path d="M75.5675 30.5499L74.3938 20.5068H75.9082L76.5394 27.136L77.8236 20.5068H79.1078L80.392 27.0759L81.0232 20.5068H82.4824L81.3221 30.5499H79.78L78.4498 23.4634L77.1053 30.5499H75.5633H75.5675Z" fill="black"/>
<path d="M88.4439 30.7069C87.7398 30.7069 87.0909 30.5036 86.5016 30.1063C85.9122 29.7044 85.4376 29.1178 85.0884 28.3509C84.7336 27.5794 84.5586 26.6416 84.5586 25.5329C84.5586 24.4242 84.7336 23.4818 85.0884 22.7149C85.4426 21.9435 85.9122 21.3614 86.5016 20.9595C87.0909 20.5576 87.7398 20.3589 88.4439 20.3589C89.1487 20.3589 89.7933 20.5622 90.3819 20.9595C90.967 21.3614 91.4409 21.9481 91.7957 22.7149C92.1549 23.4864 92.3298 24.4242 92.3298 25.5329C92.3298 26.6416 92.1499 27.584 91.7957 28.3509C91.4366 29.1224 90.967 29.7044 90.3819 30.1063C89.7975 30.5082 89.1487 30.7069 88.4439 30.7069ZM88.4439 29.1593C88.8448 29.1593 89.2082 29.0253 89.5397 28.7482C89.8669 28.4756 90.129 28.0691 90.3174 27.5286C90.5066 26.9881 90.6029 26.3229 90.6029 25.5283C90.6029 24.7337 90.5066 24.0685 90.3174 23.5326C90.129 22.9968 89.8669 22.5902 89.5397 22.313C89.2131 22.0358 88.8448 21.8973 88.4439 21.8973C88.0436 21.8973 87.6803 22.0358 87.3488 22.313C87.0215 22.5902 86.7594 22.9968 86.5703 23.5326C86.3819 24.0685 86.2848 24.7337 86.2848 25.5283C86.2848 26.3229 86.3819 26.9881 86.5703 27.5286C86.7594 28.0691 87.0215 28.4756 87.3488 28.7482C87.6753 29.0207 88.0436 29.1593 88.4439 29.1593Z" fill="black"/>
<path d="M95.3353 30.5499V20.5068H98.7375C99.4055 20.5068 99.9898 20.6316 100.487 20.8857C100.989 21.1397 101.375 21.4908 101.661 21.9482C101.942 22.4009 102.084 22.9321 102.084 23.5327C102.084 24.1933 101.914 24.7615 101.569 25.2373C101.224 25.7178 100.758 26.0642 100.169 26.286L102.356 30.5453H100.51L98.5214 26.5308H97.0481V30.5453H95.3311L95.3353 30.5499ZM97.053 25.1588H98.5951C99.1292 25.1588 99.5528 25.011 99.8751 24.7199C100.192 24.4289 100.353 24.0454 100.353 23.565C100.353 23.0846 100.192 22.6873 99.8751 22.3963C99.557 22.1052 99.1292 21.9574 98.5951 21.9574H97.053V25.1542V25.1588Z" fill="black"/>
<path d="M105.182 30.5499V20.5068H106.899V24.9971L110.486 20.5068H112.442L108.41 25.3713L112.626 30.5499H110.467L106.895 25.958V30.5499H105.177H105.182Z" fill="black"/>
</g>
<defs>
<linearGradient id="paint0_linear_13051_36280" x1="-0.303836" y1="17.3144" x2="34.1863" y2="16.6859" gradientUnits="userSpaceOnUse">
<stop stop-color="#29CCB9"/>
<stop offset="0.49" stop-color="#0091FF"/>
<stop offset="1" stop-color="#FF66B7"/>
</linearGradient>
<clipPath id="clip0_13051_36280">
<rect width="112.627" height="34.0005" fill="white"/>
</clipPath>
</defs>
</svg>
