<svg width="430" height="83" viewBox="0 0 430 83" fill="none" xmlns="http://www.w3.org/2000/svg">
<path d="M245.7 9.56037C245.8 11.7604 245.1 13.9604 244.7 16.0604C242.9 24.3604 242.4 32.9604 240.2 41.1604C243.5 38.2604 247.2 35.2604 251.8 34.8604C257.5 34.0604 263.4 37.7604 265.3 43.0604C266.5 47.4604 266 52.0604 265.1 56.4604C267.4 56.6604 269.6 56.5604 271.9 56.2604C271.3 50.9604 272.7 45.4604 276.2 41.3604C280.6 35.9604 288.3 33.7604 295 35.3604C300.8 37.0604 304.1 44.6604 300.5 49.6604C296.6 55.2604 290 58.0604 283.9 60.6604C285.5 62.4604 287.8 63.7604 290.3 63.5604C297.3 63.1604 303.5 59.3604 309.1 55.5604C308.8 49.0604 310.5 41.7604 316.1 37.7604C321.8 33.6604 329.9 34.4604 335.5 38.2604C338.5 36.0604 343.4 36.2604 345 40.0604C345.4 46.6604 343.6 53.3604 345.5 59.8604C346 61.5604 347.8 63.5604 349.7 62.4604C354 60.1604 356.7 56.0604 359.4 52.1604C361 47.9604 360.5 43.2604 361.8 38.9604C362.7 36.9604 365.4 35.9604 367.3 37.3604C369.4 38.3604 369.6 40.7604 370 42.7604C372.8 39.0604 376.4 35.0604 381.5 35.1604C385.9 34.5604 390 37.1604 391.7 41.0604C394.4 37.3604 398.7 34.5604 403.5 35.2604C408.9 35.0604 413.6 39.6604 413.6 44.8604C414.1 50.6604 408.8 54.8604 408.6 60.4604C408.5 63.2604 411.9 63.5604 413.9 62.8604C419.6 60.8604 422.5 55.3604 426.3 51.1604C428.4 52.3604 431 54.7604 429.5 57.3604C426.3 61.9604 422.5 66.5604 417.6 69.5604C413.9 71.8604 408.9 72.5604 404.8 70.7604C400.8 69.1604 398.7 64.6604 398.9 60.5604C399.2 55.9604 402.2 52.2604 403.4 47.8604C404 46.2604 403.2 44.0604 401.4 43.7604C398.3 43.4604 395.4 45.4604 393.6 47.8604C390.9 51.5604 389.6 55.9604 388.3 60.2604C387.4 63.4604 387.7 67.0604 386.3 70.1604C384.3 73.7604 378.3 70.8604 378.3 67.3604C377.9 63.2604 379.1 59.4604 380.6 55.7604L381.6 53.1604C382.4 51.1604 383.1 49.0604 383.6 46.9604C383.9 45.2604 382.3 43.6604 380.6 43.7604C376.7 44.0604 373.8 47.1604 372.1 50.4604C369.4 55.7604 367.7 61.5604 367.2 67.4604C367 69.6604 365.5 72.5604 362.7 71.7604C359.2 71.1604 357.8 67.4604 358.4 64.3604C358.1 64.6604 357.8 64.8604 357.5 65.1604L356.6 65.9604C353.5 68.8604 350.2 71.8604 345.7 71.7604C340 71.0604 336.9 65.2604 336.2 60.2604C333.6 64.9604 330.6 70.2604 324.9 71.5604C318.8 72.5604 312.9 68.5604 310.2 63.3604C304 68.2604 296.3 71.9604 288.2 71.7604C282.5 71.5604 277.8 67.7604 274.6 63.5604C270.3 64.8604 265.6 65.4604 261.5 63.1604C257.6 71.2604 246.9 74.7604 238.7 71.1604C235.1 69.6604 232.9 66.3604 231.3 62.9604C226.3 67.3604 220.3 70.8604 213.6 71.8604C209.9 72.4604 206.7 69.3604 206 65.9604C204.3 59.4604 208.1 53.2604 208.8 46.9604C209.2 45.1604 207.4 43.4604 205.6 43.9604C201.2 44.2604 198.3 48.1604 196.4 51.6604C194.2 56.0604 192.4 60.7604 191.6 65.5604C191.2 67.5604 191 69.7604 189.5 71.3604C186.6 73.1604 182.7 70.6604 182.4 67.5604C182.2 64.3604 182.9 61.1604 183.5 57.9604C180.6 61.5604 175.5 62.2604 171.6 59.7604C169 68.0604 159.7 73.1604 151.1 71.5604C145.3 70.4604 140.1 65.8604 139 60.0604C137.7 53.7604 138.6 46.7604 142.4 41.3604C148.7 33.0604 163.2 33.3604 169.6 41.4604C172.1 44.6604 172.4 48.7604 172.2 52.6604C174 53.4604 176.1 53.9604 177.7 52.5604C182.1 49.2604 185.3 44.3604 186.8 39.1604C187.6 37.0604 190.5 36.1604 192.3 37.5604C194.2 38.6604 194.6 40.8604 194.6 42.7604C198.6 37.8604 205.1 34.5604 211.6 35.3604C215.1 35.7604 217.5 38.8604 217.9 42.1604C218.7 46.7604 217.4 51.0604 216 55.3604L215.5 57.0604C215 58.4604 214.6 59.9604 214.3 61.3604C214 63.6604 216.9 63.0604 218.1 62.2604C222.4 60.2604 226.3 57.4604 229.8 54.1604C230.7 39.2604 233.5 24.5604 235.4 9.76036C236.5 4.56036 245 4.76037 245.7 9.56037ZM34.2 1.76036C39.1 15.3604 41.8 29.6604 44 43.8604C45.4 42.2604 45.7 40.0604 46.5 38.0604C49.7 29.4604 52.7 20.7604 56.3 12.2604C57.7 8.96036 59.1 5.56037 61.3 2.56037C62.1 1.26037 63.7 0.66036 65.2 0.96036C67.6 2.46036 68.1 5.46036 68.4 7.96036C69.8 23.2604 70.6 38.6604 71.9 53.9604C72.2 58.5604 74.2 63.0604 74 67.6604C73.2 72.0604 65.1 72.5604 64.6 67.6604C63 52.5604 61.8 37.2604 61.2 22.0604C56.8 33.1604 53.8 44.8604 49.3 55.9604C47.6 58.9604 45.4 63.3604 41.3 62.8604C38.8 62.7604 38.7 59.9604 38.3 58.1604C35.8 47.3604 33.5 36.5604 31.5 25.6604C28.3 37.5604 24.8 49.4604 18.8 60.3604C16.2 64.7604 13.1 69.5604 7.7 70.9604C5.1 71.8604 0.8 72.0604 0 68.7604C0 65.3604 4.1 64.6604 6 62.4604C9.5 58.3604 11.7 53.3604 13.8 48.4604C19.6 33.7604 23.5 18.3604 27.2 3.06037C27.5 -0.139634 32.8 -1.23964 34.2 1.76036ZM153 44.1604C146.7 47.6604 147 57.1604 152 61.6604C154.8 63.9604 159.2 62.6604 161.3 59.9604C164.6 55.8604 164.1 49.8604 161.3 45.6604C159.4 43.0604 155.6 42.6604 153 44.1604ZM247.1 43.7604C240.9 46.3604 237.8 54.6604 241.5 60.3604C243.4 63.3604 247.7 63.1604 250.6 61.9604C256.9 59.1604 259.2 50.4604 255.3 44.8604C253.5 42.1604 249.7 42.5604 247.1 43.7604ZM323.5 43.9604C316.5 46.5604 316 56.5604 320.9 61.3604C322.4 62.7604 325.1 63.2604 326.7 61.6604C330.5 58.1604 332.7 53.1604 333.6 48.1604C332.4 44.3604 327.1 42.8604 323.5 43.9604ZM285.4 43.3604C282.4 46.4604 282.1 50.9604 281.4 54.9604C285.2 52.6604 288.7 49.8604 292 46.9604C293.2 45.9604 294.2 44.2604 293.4 42.6604C291.3 40.2604 287.4 41.4604 285.4 43.3604ZM118.6 35.6604C125.2 38.4604 129.6 45.3604 129.1 52.3604C117.3 52.3604 105.5 52.4604 93.7 52.2604C93.7 47.5604 95.3 42.7604 98.7 39.4604C103.7 34.3604 112 32.7604 118.6 35.6604Z" fill="#5FC0C1"/>
<path d="M118.1 80.6602C118.8 80.6602 119.4 81.0602 119.4 81.5602C119.4 82.0602 118.8 82.4602 118.1 82.4602H99.1001C98.4001 82.4602 97.8 82.0602 97.8 81.5602C97.8 81.0602 98.4001 80.6602 99.1001 80.6602H118.1Z" fill="#E1177C"/>
<path d="M95.0001 82.4603C95.718 82.4603 96.3001 81.8783 96.3001 81.1603C96.3001 80.4424 95.718 79.8604 95.0001 79.8604C94.2821 79.8604 93.7001 80.4424 93.7001 81.1603C93.7001 81.8783 94.2821 82.4603 95.0001 82.4603Z" fill="#E1177C"/>
<path d="M106.4 77.66C107.118 77.66 107.7 77.078 107.7 76.3601C107.7 75.6421 107.118 75.0601 106.4 75.0601C105.682 75.0601 105.1 75.6421 105.1 76.3601C105.1 77.078 105.682 77.66 106.4 77.66Z" fill="#E1177C"/>
<path d="M128.7 75.0601C129.4 75.0601 130 75.6601 130 76.3601C130 77.0601 129.4 77.66 128.7 77.66H110.1C109.4 77.66 108.8 77.0601 108.8 76.3601C108.8 75.6601 109.4 75.0601 110.1 75.0601H128.7Z" fill="#E1177C"/>
<path d="M82.0001 72.8603C82.718 72.8603 83.3001 72.2782 83.3001 71.5603C83.3001 70.8423 82.718 70.2603 82.0001 70.2603C81.2821 70.2603 80.7001 70.8423 80.7001 71.5603C80.7001 72.2782 81.2821 72.8603 82.0001 72.8603Z" fill="#E1177C"/>
<path d="M100.5 70.2603C101.2 70.2603 101.8 70.8603 101.8 71.5603C101.8 72.2603 101.2 72.8603 100.5 72.8603H85.2C84.5 72.8603 83.9 72.2603 83.9 71.5603C83.9 70.8603 84.5 70.2603 85.2 70.2603H100.5Z" fill="#E1177C"/>
<path d="M134.8 70.2603C135.5 70.2603 136.1 70.8603 136.1 71.5603C136.1 72.2603 135.5 72.8603 134.8 72.8603H104.4C103.7 72.8603 103.1 72.2603 103.1 71.5603C103.1 70.8603 103.7 70.2603 104.4 70.2603H134.8Z" fill="#E1177C"/>
<path d="M129.1 65.4604C129.8 65.4604 130.4 66.0605 130.4 66.7605C130.4 67.4605 129.8 68.0605 129.1 68.0605H91.8C91.1 68.0605 90.5 67.4605 90.5 66.7605C90.5 66.0605 91.1 65.4604 91.8 65.4604H129.1Z" fill="#E1177C"/>
<path d="M87.7 68.0605C88.418 68.0605 89 67.4784 89 66.7605C89 66.0425 88.418 65.4604 87.7 65.4604C86.9821 65.4604 86.4 66.0425 86.4 66.7605C86.4 67.4784 86.9821 68.0605 87.7 68.0605Z" fill="#E1177C"/>
<path d="M121.3 60.7603C122 60.7603 122.6 61.3603 122.6 62.0603C122.6 62.7603 122 63.3603 121.3 63.3603H84.0001C83.3001 63.3603 82.7001 62.7603 82.7001 62.0603C82.7001 61.3603 83.3001 60.7603 84.0001 60.7603H121.3Z" fill="#E1177C"/>
<path d="M79.5001 63.3603C80.218 63.3603 80.8001 62.7782 80.8001 62.0603C80.8001 61.3423 80.218 60.7603 79.5001 60.7603C78.7821 60.7603 78.2001 61.3423 78.2001 62.0603C78.2001 62.7782 78.7821 63.3603 79.5001 63.3603Z" fill="#E1177C"/>
<path d="M87.7 58.5605C88.418 58.5605 89 57.9784 89 57.2605C89 56.5425 88.418 55.9604 87.7 55.9604C86.9821 55.9604 86.4 56.5425 86.4 57.2605C86.4 57.9784 86.9821 58.5605 87.7 58.5605Z" fill="#E1177C"/>
<path d="M132.7 55.9604C133.4 55.9604 134 56.5605 134 57.2605C134 57.9605 133.4 58.5605 132.7 58.5605H92.1001C91.4001 58.5605 90.8 57.9605 90.8 57.2605C90.8 56.5605 91.4001 55.9604 92.1001 55.9604H132.7Z" fill="#E1177C"/>
</svg>
