<svg width="128" height="128" viewBox="0 0 128 128" fill="none" xmlns="http://www.w3.org/2000/svg">
<rect width="128" height="128" fill="#1D1336"/>
<circle cx="64" cy="64" r="64" fill="#1D1336"/>
<path d="M36.6101 62.3963C36.6101 61.6259 37.2376 61.0015 38.0117 61.0015H89.8689C90.643 61.0015 91.2704 61.6259 91.2704 62.3963C91.2704 63.1666 90.643 63.791 89.8689 63.791H38.0117C37.2376 63.791 36.6101 63.1666 36.6101 62.3963Z" fill="#E1147B"/>
<path d="M26.0985 68.5333C26.0985 67.763 26.726 67.1385 27.5001 67.1385H65.3418C66.1159 67.1385 66.7434 67.763 66.7434 68.5333C66.7434 69.3037 66.1159 69.9281 65.3418 69.9281H27.5001C26.726 69.9281 26.0985 69.3037 26.0985 68.5333Z" fill="#E1147B"/>
<path d="M61.2773 85.5498C60.5033 85.5498 59.8758 86.1743 59.8758 86.9446C59.8758 87.7149 60.5033 88.3394 61.2773 88.3394H84.6832C85.4572 88.3394 86.0847 87.7149 86.0847 86.9446C86.0847 86.1743 85.4572 85.5498 84.6832 85.5498H61.2773Z" fill="#E1147B"/>
<path d="M45.58 93.0817C45.58 92.3113 46.2075 91.6869 46.9816 91.6869H70.2472C71.0213 91.6869 71.6488 92.3113 71.6488 93.0817C71.6488 93.852 71.0213 94.4765 70.2472 94.4765H46.9816C46.2075 94.4765 45.58 93.852 45.58 93.0817Z" fill="#E1147B"/>
<path d="M38.0117 73.2756C37.2376 73.2756 36.6101 73.9001 36.6101 74.6704C36.6101 75.4407 37.2376 76.0652 38.0117 76.0652H83.7021C84.4762 76.0652 85.1036 75.4407 85.1036 74.6704C85.1036 73.9001 84.4762 73.2756 83.7021 73.2756H38.0117Z" fill="#E1147B"/>
<path d="M28.7614 80.8075C28.7614 80.0372 29.3889 79.4127 30.163 79.4127H48.3831C49.1572 79.4127 49.7847 80.0372 49.7847 80.8075C49.7847 81.5778 49.1572 82.2023 48.3831 82.2023H30.163C29.3889 82.2023 28.7614 81.5778 28.7614 80.8075Z" fill="#E1147B"/>
<path d="M53.709 79.4127C52.9349 79.4127 52.3074 80.0372 52.3074 80.8075C52.3074 81.5778 52.9349 82.2023 53.709 82.2023H91.5507C92.3248 82.2023 92.9523 81.5778 92.9523 80.8075C92.9523 80.0372 92.3248 79.4127 91.5507 79.4127H53.709Z" fill="#E1147B"/>
<path d="M34.6479 62.3963C34.6479 63.1666 34.0205 63.791 33.2464 63.791C32.4723 63.791 31.8449 63.1666 31.8449 62.3963C31.8449 61.6259 32.4723 61.0015 33.2464 61.0015C34.0205 61.0015 34.6479 61.6259 34.6479 62.3963Z" fill="#E1147B"/>
<path d="M22.7348 69.9281C23.5089 69.9281 24.1363 69.3037 24.1363 68.5333C24.1363 67.763 23.5089 67.1385 22.7348 67.1385C21.9607 67.1385 21.3333 67.763 21.3333 68.5333C21.3333 69.3037 21.9607 69.9281 22.7348 69.9281Z" fill="#E1147B"/>
<path d="M57.9136 86.9446C57.9136 87.7149 57.2861 88.3394 56.5121 88.3394C55.738 88.3394 55.1105 87.7149 55.1105 86.9446C55.1105 86.1743 55.738 85.5498 56.5121 85.5498C57.2861 85.5498 57.9136 86.1743 57.9136 86.9446Z" fill="#E1147B"/>
<path d="M42.2163 94.4765C42.9904 94.4765 43.6178 93.852 43.6178 93.0817C43.6178 92.3113 42.9904 91.6869 42.2163 91.6869C41.4422 91.6869 40.8148 92.3113 40.8148 93.0817C40.8148 93.852 41.4422 94.4765 42.2163 94.4765Z" fill="#E1147B"/>
<path d="M34.6479 74.6704C34.6479 75.4407 34.0205 76.0652 33.2464 76.0652C32.4723 76.0652 31.8449 75.4407 31.8449 74.6704C31.8449 73.9001 32.4723 73.2756 33.2464 73.2756C34.0205 73.2756 34.6479 73.9001 34.6479 74.6704Z" fill="#E1147B"/>
<path d="M25.3977 82.2023C26.1718 82.2023 26.7993 81.5778 26.7993 80.8075C26.7993 80.0372 26.1718 79.4127 25.3977 79.4127C24.6237 79.4127 23.9962 80.0372 23.9962 80.8075C23.9962 81.5778 24.6237 82.2023 25.3977 82.2023Z" fill="#E1147B"/>
<path d="M84.6589 47.3004C85.7858 50.0079 86.3659 52.9099 86.3659 55.8406C86.3659 56.4569 85.8639 56.9564 85.2446 56.9564H42.6376C42.0184 56.9564 41.5164 56.4569 41.5164 55.8406C41.5164 52.9099 42.0964 50.0079 43.2233 47.3004C44.3503 44.5928 46.0021 42.1326 48.0844 40.0603C50.1667 37.988 52.6388 36.3442 55.3595 35.2227C58.0802 34.1012 60.9963 33.5239 63.9411 33.5239C66.886 33.5239 69.802 34.1012 72.5227 35.2227C75.2434 36.3442 77.7155 37.988 79.7978 40.0603C81.8801 42.1326 83.5319 44.5928 84.6589 47.3004Z" fill="#53CBC7"/>
</svg>
