<svg xmlns="http://www.w3.org/2000/svg" width="128" height="128" viewBox="0 0 128 128" fill="none">
  <g clip-path="url(#clip0_7495_77091)">
    <rect width="128" height="128" fill="#F1F3F4"/>
    <mask id="mask0_7495_77091" style="mask-type:alpha" maskUnits="userSpaceOnUse" x="0" y="0" width="128" height="128">
      <rect width="128" height="128" fill="#F1F3F4"/>
    </mask>
    <g mask="url(#mask0_7495_77091)">
      <path d="M92.3994 49.7965L92.5159 49.7474C92.8627 49.5989 93.1174 49.5179 93.3178 49.4924L93.5381 49.455C93.9895 49.3621 94.4555 49.3157 94.9214 49.3157C97.7243 49.3157 100.065 48.4423 101.69 46.7904C102.859 45.601 103.595 44.0574 103.853 42.2707L103.995 42.2725V32H86.877V39.4321C86.8356 39.9675 86.8389 40.4602 86.8425 40.8964C86.8462 41.3755 86.849 41.8281 86.7913 42.1714L86.775 42.2807C86.5816 43.7323 85.8801 45.0801 84.8002 46.0755C83.6941 47.0954 83.1766 47.3195 83.0061 47.3677C82.8344 47.4169 82.5852 47.3941 81.8645 47.2967C81.2433 47.2129 80.3919 47.0982 79.3534 47.0982C74.9171 47.0982 71.1989 50.4477 70.704 54.8927C70.5937 55.9035 70.6561 56.6594 70.7011 57.2104C70.7519 57.8233 70.7672 58.0082 70.5549 58.6183C70.1343 59.8176 69.2384 60.9306 68.0331 61.7509C66.8276 62.5715 65.4397 63.0242 64.1268 63.0242L63.9986 63.0224L63.8702 63.0242C62.5573 63.0242 61.1696 62.5725 59.9641 61.7509C58.7579 60.9306 57.862 59.8176 57.4431 58.6211C57.2298 58.0082 57.2443 57.8224 57.2958 57.2086C57.3411 56.6576 57.4033 55.9026 57.2933 54.889C56.7994 50.4468 53.0809 47.0973 48.6447 47.0973C47.6061 47.0973 46.7547 47.212 46.1289 47.2967C45.4138 47.3932 45.1637 47.416 44.9921 47.3668C44.8214 47.3176 44.304 47.0945 43.1979 46.0737C42.118 45.0792 41.4173 43.7314 41.2231 42.2798L41.2069 42.1705C41.1789 42.0038 41.1653 41.8117 41.159 41.6031V32H24.037V40.707C24.0172 43.1595 24.8018 45.2632 26.3044 46.7913C27.9288 48.4433 30.2693 49.3157 33.0721 49.3157C33.538 49.3157 34.003 49.363 34.4563 49.4559L34.6757 49.4924C34.8753 49.5188 35.1299 49.5998 35.4794 49.7483L35.5941 49.7965C36.7544 50.2591 37.7711 51.0342 38.5341 52.0386C40.4123 54.5084 40.4177 57.9644 38.5486 60.4414C37.9363 61.2537 37.1399 61.9314 36.2469 62.4022L36.1665 62.446C35.9218 62.5806 35.7033 62.6807 35.5028 62.7509C35.4135 62.782 35.3331 62.8073 35.2581 62.8293L35.1733 62.8547C34.4979 63.0734 33.7908 63.1834 33.073 63.1834C27.6462 63.1834 24 66.5493 24 71.5589C24 75.4695 25.768 77.4986 27.2507 78.512C29.0602 79.7488 31.2427 80.0993 33.3321 80.2924L33.4766 80.309C34.031 80.3817 34.4987 80.4964 35.036 80.6913L35.2952 80.7907L35.3394 80.807C36.7462 81.2916 37.9246 82.2815 38.6587 83.5954C39.0732 84.3378 39.3603 85.3096 39.4669 86.3302C39.5084 86.732 39.5364 87.1208 39.5635 87.5052C39.5843 87.7974 39.6077 88.1254 39.6393 88.4549V95.9972H56.7577V85.9259L56.6368 85.9241C56.3549 83.9871 55.443 82.2131 54.0001 80.8353C53.8727 80.7152 53.7555 80.6132 53.6615 80.5319L53.6035 80.4819C51.7615 78.8718 49.3661 78.8291 47.6162 78.797H47.5971C47.3046 78.7916 47.0274 78.7862 46.7827 78.7745L46.5199 78.7334L45.9574 78.6068L45.4273 78.4419L44.8558 78.2125C44.2571 77.9384 43.6982 77.5815 43.2024 77.1562L43.0913 77.0596C41.5076 75.6315 40.722 73.8713 40.6895 71.6793C40.694 70.113 41.1906 68.6285 42.1261 67.3854C43.0381 66.1743 44.3302 65.2727 45.7641 64.8463C47.2161 64.4156 49.9242 64.4047 51.2298 64.8256C53.609 65.5913 55.2977 67.7934 55.4303 70.3051C55.4411 70.5127 55.4331 70.7304 55.4241 70.9853C55.3969 71.722 55.3599 72.731 55.7815 74.0069C56.9743 77.5569 60.274 79.951 64.0012 79.9655C67.7189 79.951 71.0172 77.5558 72.2129 74.0007C72.6327 72.7321 72.5957 71.7231 72.5685 70.9827C72.5595 70.7304 72.5514 70.5127 72.5623 70.3061C72.6951 67.7944 74.3836 65.5913 76.7627 64.8264C78.0687 64.4058 80.7758 64.4166 82.2277 64.8474C83.6625 65.2745 84.9555 66.1761 85.8667 67.3872C86.8019 68.6303 87.2986 70.1148 87.303 71.6811C87.2707 73.8731 86.4851 75.6336 84.9004 77.0622L84.7991 77.1507C84.2954 77.5822 83.7355 77.9402 83.1368 78.2144L82.5663 78.4437L82.0361 78.6086L81.5756 78.716L81.2109 78.7763C80.9671 78.788 80.689 78.7934 80.3963 78.7991H80.3774C78.6275 78.8309 76.2318 78.8737 74.3945 80.4801L74.3311 80.5358C74.2374 80.6168 74.1209 80.7177 73.9907 80.8407C72.6011 82.1676 71.7037 83.8696 71.3902 85.7302H71.2367V96H88.355V88.4578C88.3866 88.129 88.4102 87.8003 88.4309 87.5078C88.4581 87.1298 88.486 86.7392 88.5277 86.3349C88.6341 85.3121 88.9211 84.3404 89.3358 83.5983C90.0699 82.2851 91.2482 81.2952 92.6551 80.8096L92.9585 80.6942C93.4956 80.5 93.9634 80.3854 94.5186 80.3116L94.6623 80.2953C96.7518 80.1022 98.9342 79.7514 100.744 78.5149C103.431 76.6788 103.995 73.7201 103.995 71.5618C103.995 66.5522 100.348 63.1863 94.9214 63.1863C94.2036 63.1863 93.4967 63.0752 92.821 62.8575L92.7364 62.8319C92.6613 62.8102 92.5811 62.7845 92.497 62.7556C92.2912 62.6844 92.0727 62.5834 91.8224 62.446L91.7476 62.4048C90.8545 61.934 90.058 61.2565 89.4451 60.4442C87.5759 57.9673 87.5813 54.5111 89.4596 52.0414C90.2224 51.0378 91.2392 50.2619 92.3994 49.8002V49.7965Z" fill="black"/>
    </g>
  </g>
  <defs>
    <clipPath id="clip0_7495_77091">
      <rect width="128" height="128" fill="white"/>
    </clipPath>
  </defs>
</svg>