<svg width="89" height="34" viewBox="0 0 89 34" fill="none" xmlns="http://www.w3.org/2000/svg">
<g clip-path="url(#clip0_10856_102428)">
<path d="M26.1036 3.65137H0.593425C0.436101 3.65137 0.285214 3.71382 0.174014 3.82514C0.062696 3.93634 0.000244141 4.08722 0.000244141 4.24467V29.7548C0.000244141 29.9121 0.062696 30.063 0.174014 30.1742C0.285214 30.2855 0.436101 30.348 0.593425 30.348H26.1036C26.261 30.348 26.4119 30.2855 26.5231 30.1742C26.6344 30.063 26.6969 29.9121 26.6969 29.7548V4.24467C26.6969 4.08722 26.6344 3.93634 26.5231 3.82514C26.4119 3.71382 26.261 3.65137 26.1036 3.65137ZM17.798 20.8559C17.798 21.0132 17.7355 21.1641 17.6242 21.2754C17.513 21.3866 17.3621 21.4492 17.2048 21.4492H9.49234C9.33502 21.4492 9.18413 21.3866 9.07281 21.2754C8.96161 21.1641 8.89916 21.0132 8.89916 20.8559V13.1435C8.89916 12.9861 8.96161 12.8353 9.07281 12.7241C9.18413 12.6127 9.33502 12.5503 9.49234 12.5503H17.2048C17.3621 12.5503 17.513 12.6127 17.6242 12.7241C17.7355 12.8353 17.798 12.9861 17.798 13.1435V20.8559Z" fill="black"/>
<path d="M79.5117 12.5513H71.7994C71.4717 12.5513 71.2061 12.8168 71.2061 13.1444V20.8569C71.2061 21.1845 71.4717 21.4502 71.7994 21.4502H79.5117C79.8393 21.4502 80.105 21.1845 80.105 20.8569V13.1444C80.105 12.8168 79.8393 12.5513 79.5117 12.5513Z" fill="black"/>
<path d="M70.6093 3.65137H62.897C62.5694 3.65137 62.3037 3.91691 62.3037 4.24467V11.957C62.3037 12.2846 62.5694 12.5503 62.897 12.5503H70.6093C70.9371 12.5503 71.2026 12.2846 71.2026 11.957V4.24467C71.2026 3.91691 70.9371 3.65137 70.6093 3.65137Z" fill="black"/>
<path d="M88.4068 3.65137H80.6944C80.3667 3.65137 80.1011 3.91691 80.1011 4.24467V11.957C80.1011 12.2846 80.3667 12.5503 80.6944 12.5503H88.4068C88.7345 12.5503 89 12.2846 89 11.957V4.24467C89 3.91691 88.7345 3.65137 88.4068 3.65137Z" fill="black"/>
<path d="M70.6093 21.4502H62.897C62.5694 21.4502 62.3037 21.7157 62.3037 22.0434V29.7558C62.3037 30.0835 62.5694 30.3491 62.897 30.3491H70.6093C70.9371 30.3491 71.2026 30.0835 71.2026 29.7558V22.0434C71.2026 21.7157 70.9371 21.4502 70.6093 21.4502Z" fill="black"/>
<path d="M88.4068 21.4502H80.6944C80.3667 21.4502 80.1011 21.7157 80.1011 22.0434V29.7558C80.1011 30.0835 80.3667 30.3491 80.6944 30.3491H88.4068C88.7345 30.3491 89 30.0835 89 29.7558V22.0434C89 21.7157 88.7345 21.4502 88.4068 21.4502Z" fill="black"/>
<path d="M57.2497 3.65137H49.5374C49.2098 3.65137 48.9441 3.91691 48.9441 4.24467V11.957C48.9441 12.2846 49.2098 12.5503 49.5374 12.5503H57.2497C57.5773 12.5503 57.843 12.2846 57.843 11.957V4.24467C57.843 3.91691 57.5773 3.65137 57.2497 3.65137Z" fill="black"/>
<path d="M57.2497 21.4502H49.5374C49.2098 21.4502 48.9441 21.7157 48.9441 22.0434V29.7558C48.9441 30.0835 49.2098 30.3491 49.5374 30.3491H57.2497C57.5773 30.3491 57.843 30.0835 57.843 29.7558V22.0434C57.843 21.7157 57.5773 21.4502 57.2497 21.4502Z" fill="black"/>
<path d="M48.9438 13.1368C48.9438 12.9795 48.8813 12.8286 48.7701 12.7174C48.6587 12.6061 48.5078 12.5436 48.3505 12.5436H40.0449V4.24467C40.0449 4.08722 39.9823 3.93634 39.8711 3.82514C39.7598 3.71382 39.6089 3.65137 39.4516 3.65137H31.7393C31.5819 3.65137 31.431 3.71382 31.3198 3.82514C31.2084 3.93634 31.146 4.08722 31.146 4.24467V29.7415C31.146 29.8988 31.2084 30.0497 31.3198 30.1609C31.431 30.2722 31.5819 30.3347 31.7393 30.3347H39.4516C39.6089 30.3347 39.7598 30.2722 39.8711 30.1609C39.9823 30.0497 40.0449 29.8988 40.0449 29.7415V21.4425H48.3505C48.5078 21.4425 48.6587 21.38 48.7701 21.2688C48.8813 21.1574 48.9438 21.0066 48.9438 20.8492V13.1368Z" fill="black"/>
</g>
<defs>
<clipPath id="clip0_10856_102428">
<rect width="89" height="34" fill="white"/>
</clipPath>
</defs>
</svg>
