<svg width="64" height="64" viewBox="0 0 64 64" fill="none" xmlns="http://www.w3.org/2000/svg">
<rect width="64" height="64" fill="black"/>
<path d="M38.9412 23.9995H25.0723C24.4831 23.9995 24.0054 24.477 24.0054 25.0662V38.9353C24.0054 39.5245 24.4831 40.0023 25.0723 40.0023H38.9412C39.5304 40.0023 40.0081 39.5245 40.0081 38.9353V25.0662C40.0081 24.477 39.5304 23.9995 38.9412 23.9995Z" fill="white"/>
<path d="M22.9319 7.99609H9.06302C8.47384 7.99609 7.99609 8.47361 7.99609 9.06301V22.9319C7.99609 23.5211 8.47384 23.9988 9.06302 23.9988H22.9319C23.5213 23.9988 23.9988 23.5211 23.9988 22.9319V9.06301C23.9988 8.47361 23.5213 7.99609 22.9319 7.99609Z" fill="white"/>
<path d="M54.9375 7.99609H41.0684C40.4792 7.99609 40.0015 8.47361 40.0015 9.06301V22.9319C40.0015 23.5211 40.4792 23.9988 41.0684 23.9988H54.9375C55.5267 23.9988 56.0042 23.5211 56.0042 22.9319V9.06301C56.0042 8.47361 55.5267 7.99609 54.9375 7.99609Z" fill="white"/>
<path d="M22.9319 40.001H9.06302C8.47384 40.001 7.99609 40.4785 7.99609 41.0677V54.9368C7.99609 55.526 8.47384 56.0037 9.06302 56.0037H22.9319C23.5213 56.0037 23.9988 55.526 23.9988 54.9368V41.0677C23.9988 40.4785 23.5213 40.001 22.9319 40.001Z" fill="white"/>
<path d="M54.9375 40.001H41.0684C40.4792 40.001 40.0015 40.4785 40.0015 41.0677V54.9368C40.0015 55.526 40.4792 56.0037 41.0684 56.0037H54.9375C55.5267 56.0037 56.0042 55.526 56.0042 54.9368V41.0677C56.0042 40.4785 55.5267 40.001 54.9375 40.001Z" fill="white"/>
</svg>
