<svg width="456" height="115" viewBox="0 0 456 115" fill="none" xmlns="http://www.w3.org/2000/svg">
<path d="M149.363 96.6124V39.1897H157.907L158.721 43.8246H159.128C161.568 40.6499 165.717 38.376 171.493 38.376C182.063 38.376 190.527 46.9994 190.527 59.7644C190.527 72.529 182.071 81.1523 171.493 81.1523C165.797 81.1523 161.815 78.7911 159.701 76.1104H159.294V96.605H149.371L149.363 96.6124ZM180.596 59.7714C180.596 52.2886 175.794 47.5736 169.938 47.5736C164.082 47.5736 159.28 52.2886 159.28 59.7714C159.28 67.2546 164.082 71.9696 169.938 71.9696C175.794 71.9696 180.596 67.2546 180.596 59.7714Z" fill="white"/>
<path d="M195.565 59.7744C195.565 47.3293 204.508 38.3862 216.466 38.3862C228.424 38.3862 237.367 47.3293 237.367 59.7744C237.367 72.2194 228.424 81.1627 216.466 81.1627C204.508 81.1627 195.565 72.1324 195.565 59.7744ZM227.364 59.7744C227.364 52.4513 222.482 47.5766 216.466 47.5766C210.451 47.5766 205.489 52.4587 205.489 59.7744C205.489 67.0904 210.451 71.8925 216.466 71.8925C222.482 71.8925 227.364 67.0974 227.364 59.7744Z" fill="white"/>
<path d="M244.553 80.3462V23.4175H254.477V80.3532H244.553V80.3462Z" fill="white"/>
<path d="M291.321 39.1904H301.892L283.998 89.2101C282.211 94.172 279.77 96.6128 273.34 96.6128H263.743V87.4227H271.88C273.348 87.4227 274.154 86.6892 274.648 85.4685L275.621 82.7878L258.868 39.1904H269.439L280.097 67.7421H281.724L291.321 39.1904Z" fill="white"/>
<path d="M303.79 82.3799H313.873C314.28 85.0611 316.961 88.7226 323.311 88.7226C329.246 88.7226 333.155 84.981 333.155 79.2852V73.5097H332.748C330.554 75.8705 326.486 77.9849 321.276 77.9849C310.706 77.9849 302.569 69.8478 302.569 58.1367C302.569 46.4256 310.706 38.376 321.276 38.376C326.725 38.376 330.714 40.57 333.234 43.6648H333.641L334.455 39.1897H343.079V79.2852C343.079 90.1827 335.755 97.4261 323.311 97.4261C309.406 97.4261 304.037 88.3156 303.79 82.3799ZM333.155 58.1441C333.155 51.7218 328.6 47.2466 322.824 47.2466C317.048 47.2466 312.573 51.7218 312.573 58.1441C312.573 64.5664 317.128 69.1217 322.824 69.1217C328.52 69.1217 333.155 64.6461 333.155 58.1441Z" fill="white"/>
<path d="M349.975 59.7744C349.975 47.3293 358.919 38.3862 370.877 38.3862C382.835 38.3862 391.778 47.3293 391.778 59.7744C391.778 72.2194 382.835 81.1627 370.877 81.1627C358.919 81.1627 349.975 72.1324 349.975 59.7744ZM381.775 59.7744C381.775 52.4513 376.892 47.5766 370.877 47.5766C364.861 47.5766 359.9 52.4587 359.9 59.7744C359.9 67.0904 364.861 71.8925 370.877 71.8925C376.892 71.8925 381.775 67.0974 381.775 59.7744Z" fill="white"/>
<path d="M398.687 80.3461V39.1897H407.223L408.037 43.091H408.444C410.071 41.2239 414.14 38.376 420.317 38.376C429.751 38.376 436.581 45.205 436.581 55.6157V80.3387H426.658V56.9165C426.658 51.6273 422.917 47.806 417.795 47.806C412.674 47.806 408.604 51.7945 408.604 56.9165V80.3387H398.68L398.687 80.3461Z" fill="white"/>
<path d="M91.5999 75.5449L115.996 61.4582C117.289 60.7099 118.088 59.3221 118.088 57.8329V29.6593C118.088 28.1699 117.289 26.7823 115.996 26.034L91.5999 11.9472C90.3066 11.1989 88.7011 11.2061 87.4152 11.9472L63.0191 26.034C61.7262 26.7823 60.927 28.1699 60.927 29.6593V80.0057L43.8178 89.8788L26.7088 80.0057V60.2524L43.8178 50.3792L55.1006 56.8956V43.6443L45.91 38.3337C45.2779 37.9704 44.5518 37.7743 43.8178 37.7743C43.0839 37.7743 42.3578 37.9704 41.7257 38.3337L17.3296 52.4205C16.0365 53.1688 15.2373 54.5566 15.2373 56.0458V84.2196C15.2373 85.7089 16.0365 87.0962 17.3296 87.8446L41.7257 101.932C43.0186 102.673 44.6171 102.673 45.91 101.932L70.306 87.8446C71.5994 87.0962 72.3982 85.7089 72.3982 84.2196V33.8657L72.7034 33.6913L89.5004 23.9925L106.609 33.8657V53.6193L89.5004 63.4925L78.232 56.9901V70.2418L87.4078 75.5379C88.7011 76.2789 90.3066 76.2789 91.5925 75.5379L91.5999 75.5449Z" fill="url(#paint0_linear_3667_66138)"/>
<defs>
<linearGradient id="paint0_linear_3667_66138" x1="14.9031" y1="86.98" x2="113.671" y2="29.652" gradientUnits="userSpaceOnUse">
<stop stop-color="#A726C1"/>
<stop offset="0.88" stop-color="#803BDF"/>
<stop offset="1" stop-color="#7B3FE4"/>
</linearGradient>
</defs>
</svg>
