<svg width="644" height="136" viewBox="0 0 644 136" fill="none" xmlns="http://www.w3.org/2000/svg">
<path d="M36.9 41.275C39.7 39.575 43.3 39.575 46.4 41.275L68.1001 54.475L82.9 63.075L104.6 76.275C107.4 77.975 111 77.975 114.1 76.275L131.4 65.975C134.2 64.275 136.1 61.075 136.1 57.675V37.375C136.1 33.975 134.4 30.775 131.4 29.075L114.4 19.075C111.6 17.375 108 17.375 104.9 19.075L87.9 29.075C85.1 30.775 83.2 33.975 83.2 37.375V50.575L68.4 41.675V28.475C68.4 25.075 70.1001 21.875 73.1001 20.175L104.6 1.275C107.4 -0.425 111 -0.425 114.1 1.275L146.1 20.175C149.2 21.875 150.8 25.075 150.8 28.475V66.475C150.8 69.875 149.1 73.075 146.1 74.775L114.1 93.675C111.3 95.375 107.7 95.375 104.6 93.675L82.9 80.775L68.1001 71.875L46.4 58.975C43.6 57.275 40 57.275 36.9 58.975L19.9 68.975C17.1 70.675 15.2 73.875 15.2 77.275V97.575C15.2 100.975 16.9 104.175 19.9 105.875L36.9 116.175C39.7 117.875 43.3 117.875 46.4 116.175L63.4 106.175C66.2 104.475 68.1001 101.275 68.1001 97.875V84.675L82.9 93.575V106.775C82.9 110.175 81.2 113.375 78.2 115.075L46.2 133.975C43.4 135.675 39.8 135.675 36.7 133.975L4.70004 115.075C1.90004 113.375 4.57764e-05 110.175 4.57764e-05 106.775V68.775C4.57764e-05 65.375 1.70004 62.175 4.70004 60.475L36.9 41.275Z" fill="url(#paint0_linear_6917_49526)"/>
<path d="M209.8 123.075V91.4753C213.2 95.7753 219.4 98.1753 226.5 98.1753C244.7 98.1753 257.1 85.0753 257.1 65.1753C257.1 45.2753 245.8 32.1753 228 32.1753C219.8 32.1753 213.5 35.1753 209.8 40.1753V33.1753H192.3V122.975H209.8V123.075ZM224.4 82.9753C215 82.9753 208.8 75.8753 208.8 65.1753C208.8 54.3753 215 47.2753 224.4 47.2753C233.6 47.2753 239.9 54.3753 239.9 65.1753C239.8 75.8753 233.5 82.9753 224.4 82.9753Z" fill="black"/>
<path d="M296.8 98.1753C316.3 98.1753 330.3 84.1753 330.3 65.1753C330.3 46.1753 316.3 32.1753 296.8 32.1753C277.3 32.1753 263.3 46.1753 263.3 65.1753C263.3 84.1753 277.3 98.1753 296.8 98.1753ZM296.8 82.9753C287.4 82.9753 280.9 75.7753 280.9 65.1753C280.9 54.4753 287.3 47.2753 296.8 47.2753C306.2 47.2753 312.7 54.4753 312.7 65.1753C312.7 75.7753 306.2 82.9753 296.8 82.9753Z" fill="black"/>
<path d="M358.3 97.1751V5.4751H340.8V97.1751H358.3Z" fill="black"/>
<path d="M410.9 33.2749L397.7 74.4749L384.4 33.2749H366.5L389.5 96.6749L380.2 123.075H396.9L405.8 96.9749L428.8 33.2749H410.9Z" fill="black"/>
<path d="M478.1 39.5753C474.6 35.1753 468.3 32.1753 460.6 32.1753C442.1 32.1753 430.9 45.2753 430.9 65.1753C430.9 85.0753 442.1 98.1753 460.9 98.1753C468.3 98.1753 475 95.3753 478.3 90.6753V99.0753C478.3 105.075 474.4 109.175 469.1 109.175H439.8V122.975H471.8C486.1 122.975 495.7 114.175 495.7 100.875V33.1753H478.1V39.5753ZM463.6 82.9753C454.3 82.9753 448.1 75.9753 448.1 65.1753C448.1 54.3753 454.3 47.2753 463.6 47.2753C473 47.2753 479.2 54.3753 479.2 65.1753C479.2 75.9753 473 82.9753 463.6 82.9753Z" fill="black"/>
<path d="M539.8 98.1753C559.3 98.1753 573.3 84.1753 573.3 65.1753C573.3 46.1753 559.3 32.1753 539.8 32.1753C520.3 32.1753 506.3 46.1753 506.3 65.1753C506.3 84.1753 520.3 98.1753 539.8 98.1753ZM539.8 82.9753C530.4 82.9753 523.9 75.7753 523.9 65.1753C523.9 54.4753 530.3 47.2753 539.8 47.2753C549.2 47.2753 555.7 54.4753 555.7 65.1753C555.6 75.7753 549.2 82.9753 539.8 82.9753Z" fill="black"/>
<path d="M600.4 97.1749V62.1749C600.4 53.9749 605.8 47.9749 613.5 47.9749C620.8 47.9749 625.7 53.5749 625.7 61.2749V97.1749H643.3V57.3749C643.3 42.6749 634 32.2749 619.6 32.2749C610.9 32.2749 603.9 35.9749 600.3 42.1749V33.2749H582.8V97.1749H600.4Z" fill="black"/>
<defs>
<linearGradient id="paint0_linear_6917_49526" x1="151.29" y1="112.227" x2="5.56945" y2="28.6972" gradientUnits="userSpaceOnUse">
<stop stop-color="#A726C1"/>
<stop offset="0.88" stop-color="#803BDF"/>
<stop offset="1" stop-color="#7B3FE4"/>
</linearGradient>
</defs>
</svg>
