<svg width="128" height="128" viewBox="0 0 128 128" fill="none" xmlns="http://www.w3.org/2000/svg">
<g clip-path="url(#clip0_6917_49498)">
<rect width="128" height="128" fill="#F1F3F4"/>
<path d="M86.0789 79.6357L107.189 67.4199C108.308 66.771 109 65.5675 109 64.276V39.8441C109 38.5526 108.308 37.3492 107.189 36.7003L86.0789 24.4843C84.9598 23.8354 83.5705 23.8417 82.4577 24.4843L61.3471 36.7003C60.2283 37.3492 59.5367 38.5526 59.5367 39.8441V83.5041L44.7316 92.066L29.9266 83.5041V66.3742L44.7316 57.8123L54.4949 63.4632V51.9718L46.5421 47.3665C45.9951 47.0515 45.3667 46.8814 44.7316 46.8814C44.0965 46.8814 43.4682 47.0515 42.9212 47.3665L21.8106 59.5824C20.6915 60.2314 20 61.4349 20 62.7263V87.1584C20 88.4498 20.6915 89.653 21.8106 90.3019L42.9212 102.518C44.04 103.161 45.4232 103.161 46.5421 102.518L67.6527 90.3019C68.7718 89.653 69.4631 88.4498 69.4631 87.1584V43.4919L69.7272 43.3407L84.2621 34.93L99.0672 43.4919V60.6221L84.2621 69.184L74.5113 63.5451V75.0369L82.4513 79.6297C83.5705 80.2722 84.9598 80.2722 86.0725 79.6297L86.0789 79.6357Z" fill="url(#paint0_linear_6917_49498)"/>
<path d="M86.0789 79.6357L107.189 67.4199C108.308 66.771 109 65.5675 109 64.276V39.8441C109 38.5526 108.308 37.3492 107.189 36.7003L86.0789 24.4843C84.9598 23.8354 83.5705 23.8417 82.4577 24.4843L61.3471 36.7003C60.2283 37.3492 59.5367 38.5526 59.5367 39.8441V83.5041L44.7316 92.066L29.9266 83.5041V66.3742L44.7316 57.8123L54.4949 63.4632V51.9718L46.5421 47.3665C45.9951 47.0515 45.3667 46.8814 44.7316 46.8814C44.0965 46.8814 43.4682 47.0515 42.9212 47.3665L21.8106 59.5824C20.6915 60.2314 20 61.4349 20 62.7263V87.1584C20 88.4498 20.6915 89.653 21.8106 90.3019L42.9212 102.518C44.04 103.161 45.4232 103.161 46.5421 102.518L67.6527 90.3019C68.7718 89.653 69.4631 88.4498 69.4631 87.1584V43.4919L69.7272 43.3407L84.2621 34.93L99.0672 43.4919V60.6221L84.2621 69.184L74.5113 63.5451V75.0369L82.4513 79.6297C83.5705 80.2722 84.9598 80.2722 86.0725 79.6297L86.0789 79.6357Z" fill="url(#paint1_linear_6917_49498)"/>
</g>
<defs>
<linearGradient id="paint0_linear_6917_49498" x1="19.7108" y1="89.5522" x2="105.27" y2="39.9974" gradientUnits="userSpaceOnUse">
<stop stop-color="#A726C1"/>
<stop offset="0.88" stop-color="#803BDF"/>
<stop offset="1" stop-color="#7B3FE4"/>
</linearGradient>
<linearGradient id="paint1_linear_6917_49498" x1="19.7108" y1="89.5522" x2="105.27" y2="39.9974" gradientUnits="userSpaceOnUse">
<stop stop-color="#A726C1"/>
<stop offset="0.88" stop-color="#803BDF"/>
<stop offset="1" stop-color="#7B3FE4"/>
</linearGradient>
<clipPath id="clip0_6917_49498">
<rect width="128" height="128" fill="white"/>
</clipPath>
</defs>
</svg>
