<svg width="125" height="34" viewBox="0 0 125 34" fill="none" xmlns="http://www.w3.org/2000/svg">
<g id="Scroll text" clip-path="url(#clip0_13008_50734)">
<g id="Group">
<path id="Vector" d="M47.5348 9.39093C45.2289 9.39093 43.4261 10.7325 43.4261 12.6611C43.4261 14.5897 44.9355 15.2186 46.8221 15.5959L49.2119 15.9732C52.3563 16.4763 54.5364 17.9437 54.5364 21.3816C54.5364 24.9872 51.6016 27.0835 47.8283 27.0835C44.4324 27.0835 41.246 25.071 40.7848 21.172C40.7429 20.8366 40.9945 20.5431 41.3299 20.5431H42.7553C43.0069 20.5431 43.2584 20.7527 43.3004 21.0043C43.5938 23.7713 45.732 24.8614 47.8283 24.8614C50.1342 24.8614 51.937 23.7294 51.937 21.4235C51.937 19.3692 50.4696 18.6564 48.541 18.2791L46.1932 17.8599C42.923 17.3148 40.8687 15.7217 40.8687 12.745C40.8687 9.26515 43.8873 7.12695 47.5348 7.12695C50.4277 7.12695 53.656 8.76205 54.2848 12.6611C54.3268 12.9965 54.0752 13.29 53.7398 13.29H52.2305C51.9789 13.29 51.7274 13.0804 51.6855 12.8288C51.2662 10.3552 49.3796 9.39093 47.5348 9.39093Z" fill="#101010"/>
<path id="Vector_2" d="M63.9271 11.5288C67.4489 11.5288 69.9225 13.4155 70.8029 16.476C70.8868 16.8114 70.6352 17.1887 70.2579 17.1887H68.6228C68.3712 17.1887 68.2035 17.021 68.1197 16.8114C67.4908 15.0505 66.1073 14.0863 63.9271 14.0863C60.9924 14.0863 59.3573 16.476 59.3573 19.3689C59.3573 22.2198 60.9924 24.6515 63.9271 24.6515C66.0653 24.6515 67.4908 23.6453 68.1197 21.9263C68.2035 21.7167 68.4132 21.549 68.6228 21.549H70.2579C70.6352 21.549 70.8868 21.8844 70.761 22.2617C69.8386 25.448 67.407 27.2089 63.8852 27.2089C59.3573 27.2089 56.5063 23.7291 56.5063 19.4108C56.5483 15.0505 59.4411 11.5288 63.9271 11.5288Z" fill="#101010"/>
<path id="Vector_3" d="M73.4855 24.6098H77.0072V14.7992H73.8628C73.5693 14.7992 73.3178 14.5477 73.3178 14.2542V12.8707C73.3178 12.5772 73.5693 12.3256 73.8628 12.3256H78.1392C79.0196 12.3256 79.7743 13.0803 79.7743 13.9607V14.3381C80.5709 12.4514 82.2479 11.9902 84.8473 11.9902C85.8535 11.9902 86.5243 12.1579 86.9016 12.2837C87.1112 12.3676 87.237 12.5772 87.237 12.7868V14.2542C87.237 14.6315 86.9016 14.8831 86.5243 14.7573C86.0631 14.5896 85.3923 14.4638 84.5538 14.4638C81.7867 14.4638 79.8162 16.3505 79.8162 19.6626V24.6098H84.3442C84.6376 24.6098 84.8892 24.8613 84.8892 25.1548V26.5384C84.8892 26.8318 84.6376 27.0834 84.3442 27.0834H73.4855C73.192 27.0834 72.9404 26.8318 72.9404 26.5384V25.1548C72.9404 24.8613 73.192 24.6098 73.4855 24.6098Z" fill="#101010"/>
<path id="Vector_4" d="M89.3328 19.3269C89.3328 15.0505 92.1837 11.5288 96.7955 11.5288C101.407 11.5288 104.258 15.0086 104.258 19.3269C104.258 23.6033 101.407 27.1251 96.7955 27.1251C92.1418 27.0831 89.3328 23.6033 89.3328 19.3269ZM96.7536 24.5676C99.7303 24.5676 101.407 22.1779 101.407 19.285C101.407 16.4341 99.6883 14.0024 96.7536 14.0024C93.7769 14.0024 92.0998 16.3922 92.0998 19.285C92.0998 22.1779 93.8188 24.5676 96.7536 24.5676Z" fill="#101010"/>
<path id="Vector_5" d="M110.379 24.736H114.655C114.949 24.736 115.2 24.9875 115.2 25.281V26.5807C115.2 26.8742 114.949 27.1257 114.655 27.1257H108.283C107.989 27.1257 107.738 26.8742 107.738 26.5807V9.72666H105.599C105.306 9.72666 105.054 9.47511 105.054 9.18163V7.88194C105.054 7.58847 105.306 7.33691 105.599 7.33691H108.744C109.624 7.33691 110.379 8.09157 110.379 8.97201V24.736Z" fill="#101010"/>
<path id="Vector_6" d="M119.812 24.736H124.088C124.382 24.736 124.633 24.9875 124.633 25.281V26.5807C124.633 26.8742 124.382 27.1257 124.088 27.1257H117.716C117.422 27.1257 117.171 26.8742 117.171 26.5807V9.72666H115.032C114.739 9.72666 114.487 9.47511 114.487 9.18163V7.88194C114.487 7.58847 114.739 7.33691 115.032 7.33691H118.177C119.057 7.33691 119.812 8.09157 119.812 8.97201V24.736Z" fill="#101010"/>
<path id="Vector_7" d="M32.3161 23.1002V3.01854C32.2742 1.34157 30.9326 0 29.2556 0H8.37742C3.84961 0.0838482 0.244141 3.77317 0.244141 8.30097C0.244141 9.81024 0.663382 11.1518 1.29224 12.2838C1.83726 13.248 2.67574 14.1284 3.4723 14.7992C3.72384 15.0088 3.59807 14.925 4.31078 15.3442C5.27503 15.9312 6.40699 16.2246 6.40699 16.2246V28.2149C6.44891 28.8019 6.49083 29.3469 6.65853 29.85C7.1197 31.5269 8.29357 32.8266 9.88669 33.4554C10.5575 33.707 11.3121 33.8747 12.1087 33.9166L28.7525 34.0005C32.0645 34.0005 34.7896 31.3173 34.7896 27.9634C34.7896 25.9929 33.8254 24.1902 32.3161 23.1002Z" fill="#FFEEDA"/>
<path id="Vector_8" d="M32.7361 28.0892C32.6523 30.2274 30.8914 31.9463 28.7532 31.9463L17.2656 31.9044C18.188 30.8562 18.733 29.4727 18.733 27.9634C18.733 25.6156 17.3495 23.9805 17.3495 23.9805H28.7951C30.9752 23.9805 32.778 25.7833 32.778 27.9634L32.7361 28.0892Z" fill="#EBC28E"/>
<path id="Vector_9" d="M4.56232 13.1222C3.22075 11.8645 2.29842 10.2295 2.29842 8.30097V8.09135C2.42419 4.82127 5.10734 2.13813 8.37742 2.05428H29.2976C29.8426 2.09621 30.2618 2.47352 30.2618 3.01854V20.7524C30.723 20.8363 30.9745 20.9201 31.4357 21.0459C31.813 21.1717 32.3161 21.4651 32.3161 21.4651V3.01854C32.2742 1.34157 30.9326 0 29.2556 0H8.37742C3.84961 0.0838482 0.244141 3.77317 0.244141 8.30097C0.244141 10.9422 1.45994 13.2061 3.38845 14.7573C3.51422 14.8831 3.63999 15.0088 4.01731 15.0088C4.64617 15.0088 5.06541 14.5057 5.02349 14.0027C5.02349 13.5415 4.85579 13.3738 4.56232 13.1222Z" fill="#101010"/>
<path id="Vector_10" d="M28.7537 21.9268H12.3609C11.2708 21.9268 10.3904 22.8073 10.3904 23.9392V26.2871C10.4323 27.3771 11.3547 28.2995 12.4447 28.2995H13.6606V26.2871H12.4447V23.9812C12.4447 23.9812 12.7382 23.9812 13.1156 23.9812C15.1699 23.9812 16.7211 25.9097 16.7211 27.9641C16.7211 29.8088 15.0441 32.1147 12.277 31.947C9.80345 31.7793 8.46183 29.5992 8.46183 27.9641V7.96566C8.46183 7.08522 7.70718 6.33057 6.82674 6.33057H5.19165V8.38491H6.40749V28.006C6.32364 31.9889 9.25842 34.0014 12.277 34.0014L28.7957 34.0433C32.1078 34.0433 34.8329 31.3601 34.8329 28.006C34.791 24.652 32.1078 21.9268 28.7537 21.9268ZM32.7367 28.0899C32.6528 30.2281 30.8919 31.947 28.7537 31.947L17.2662 31.9051C18.1885 30.8569 18.7336 29.4734 18.7336 27.9641C18.7336 25.6163 17.35 23.9812 17.35 23.9812H28.7957C30.9758 23.9812 32.7786 25.784 32.7786 27.9641L32.7367 28.0899Z" fill="#101010"/>
<path id="Vector_11" d="M24.3507 8.71994H11.9827V6.70752H24.3507C24.8957 6.70752 25.3569 7.1687 25.3569 7.71373C25.3569 8.25876 24.9376 8.71994 24.3507 8.71994Z" fill="#101010"/>
<path id="Vector_12" d="M24.3507 18.3629H11.9827V16.3086H24.3507C24.8957 16.3086 25.3569 16.7698 25.3569 17.3148C25.3569 17.9018 24.9376 18.3629 24.3507 18.3629Z" fill="#101010"/>
<path id="Vector_13" d="M26.5308 13.5417H11.9827V11.4873H26.5308C27.0758 11.4873 27.537 11.9485 27.537 12.4935C27.537 13.0805 27.0758 13.5417 26.5308 13.5417Z" fill="#101010"/>
</g>
</g>
<defs>
<clipPath id="clip0_13008_50734">
<rect width="124.347" height="34.0005" fill="white" transform="translate(0.244141)"/>
</clipPath>
</defs>
</svg>
