<svg width="129" height="128" viewBox="0 0 129 128" fill="none" xmlns="http://www.w3.org/2000/svg">
<g id="Scroll" clip-path="url(#clip0_13008_50779)">
<g id="Group">
<path id="Vector" d="M128.244 -0.000488281H0.244141V128H128.244V-0.000488281Z" fill="#FFEEDA"/>
<g id="Group_2">
<path id="Vector_2" d="M96.3596 75.5309V31.884C96.302 28.2228 93.3902 25.2822 89.729 25.2822H44.1794C34.3488 25.4264 26.4497 33.4696 26.4497 43.3291C26.4497 46.6444 27.3434 49.4984 28.6984 52.0065C29.8515 54.0822 31.6677 56.0426 33.4551 57.5129C33.974 57.9165 33.7146 57.7435 35.2713 58.6948C37.4047 59.9921 39.8551 60.6552 39.8551 60.6552L39.8263 86.7741C39.8839 88.0138 39.9993 89.1957 40.3452 90.3201C41.3542 94.0101 43.92 96.8354 47.3794 98.1903C48.8209 98.7669 50.4641 99.1417 52.2227 99.1705L88.6047 99.2858C95.8407 99.2858 101.722 93.4047 101.722 86.1399C101.751 81.8156 99.5884 77.9525 96.3596 75.5309Z" fill="#FFEEDA"/>
<path id="Vector_3" d="M97.2531 86.457C97.109 91.0984 93.2748 94.8462 88.5757 94.8462L63.5522 94.7597C65.5414 92.4534 66.7522 89.4552 66.7522 86.1687C66.7522 81.0372 63.6964 77.4912 63.6964 77.4912H88.6045C93.3901 77.4912 97.282 81.3831 97.282 86.1687L97.2531 86.457Z" fill="#EBC28E"/>
<path id="Vector_4" d="M35.8479 53.8232C32.965 51.0845 30.947 47.5674 30.947 43.3584V42.9259C31.1776 35.7764 37.0587 30.0106 44.2083 29.8088H89.7578C90.9398 29.8665 91.8912 30.7025 91.8912 31.9133V70.4575C92.929 70.6304 93.4479 70.7746 94.4569 71.1494C95.2641 71.4377 96.3596 72.0719 96.3596 72.0719V31.9133C96.302 28.2521 93.3902 25.3115 89.729 25.3115H44.1794C34.3488 25.4557 26.4497 33.4989 26.4497 43.3584C26.4497 49.0953 29.0731 53.9962 33.3398 57.4268C33.6281 57.6575 33.9164 57.9746 34.6659 57.9746C35.992 57.9746 36.9434 56.9079 36.8857 55.7548C36.8857 54.7746 36.4533 54.4286 35.8479 53.8232Z" fill="#101010"/>
<path id="Vector_5" d="M88.5756 72.9941H52.8567C50.4639 73.0229 48.5324 74.9544 48.5324 77.3472V82.4787C48.59 84.8427 50.6081 86.8607 53.0297 86.8607H55.6819V82.4787H53.0009V77.4625C53.0009 77.4625 53.6639 77.4625 54.4423 77.4625C58.9684 77.4625 62.2837 81.6427 62.2837 86.14C62.2837 90.1184 58.6513 95.1922 52.5973 94.7886C47.2351 94.4427 44.3234 89.6571 44.3234 86.14V42.6085C44.3234 40.6481 42.709 39.0337 40.7486 39.0337H37.1738V43.5022H39.8261V86.1688C39.6819 94.8463 45.9955 99.1995 52.5973 99.1995L88.6045 99.3148C95.8405 99.3148 101.722 93.4337 101.722 86.1688C101.75 78.904 95.8405 72.9941 88.5756 72.9941ZM97.2531 86.4571C97.109 91.0986 93.2747 94.8463 88.5756 94.8463L63.5522 94.7598C65.5414 92.4535 66.7522 89.4553 66.7522 86.1688C66.7522 81.0373 63.6964 77.4913 63.6964 77.4913H88.6045C93.39 77.4913 97.2819 81.3832 97.2819 86.1688L97.2531 86.4571Z" fill="#101010"/>
<path id="Vector_6" d="M78.9469 44.3093H52.0208V39.8408H78.9469C80.1577 39.8408 81.1667 40.821 81.1667 42.0606C81.1955 43.3003 80.2153 44.3093 78.9469 44.3093Z" fill="#101010"/>
<path id="Vector_7" d="M78.9469 65.2683H52.0208V60.8286H78.9469C80.1577 60.8286 81.1667 61.8088 81.1667 63.0484C81.1955 64.2592 80.2153 65.2683 78.9469 65.2683Z" fill="#101010"/>
<path id="Vector_8" d="M83.7036 54.7736H52.0208V50.3052H83.6748C84.8856 50.3052 85.8946 51.2854 85.8946 52.525C85.9523 53.7646 84.9433 54.7736 83.7036 54.7736Z" fill="#101010"/>
</g>
</g>
</g>
<defs>
<clipPath id="clip0_13008_50779">
<rect width="128" height="128" fill="white" transform="translate(0.244141)"/>
</clipPath>
</defs>
</svg>
