<svg width="128" height="128" viewBox="0 0 128 128" fill="none" xmlns="http://www.w3.org/2000/svg">
<g clip-path="url(#clip0_3713_67912)">
<rect width="128" height="128" fill="#F0E3CE"/>
<path fill-rule="evenodd" clip-rule="evenodd" d="M64.3867 108C77.6063 108 89.4833 102.265 97.6527 93.1527C93.8524 89.8584 88.1254 89.6582 84.0797 92.9144L83.3068 93.5365C75.8993 99.4985 65.1054 98.6181 58.7675 91.5348C55.3106 87.6717 49.3904 87.2772 45.4493 90.6473L36.5381 98.2677C44.1705 104.358 53.8522 108 64.3867 108ZM78.8516 86.4518C85.9072 80.7729 95.8243 80.9767 102.61 86.4613C106.666 79.7578 109 71.9007 109 63.5001C109 54.1654 106.119 45.5021 101.195 38.3469C98.0202 37.6726 94.5795 38.4601 91.9677 40.7687L91.2243 41.4258C84.1003 47.7225 73.2775 47.3399 66.6184 40.556C62.9868 36.856 57.0545 36.7345 53.2734 40.2826L42.9033 50.0139L37.1986 43.9657L47.5687 34.2343C54.6515 27.5877 65.7641 27.8153 72.5674 34.7463C76.1221 38.3678 81.8997 38.572 85.7027 35.2106L86.4461 34.5536C88.7545 32.5131 91.4252 31.1376 94.2218 30.4141C86.3176 23.3183 75.8577 19 64.3867 19C41.7391 19 23.0331 35.8324 20.1567 57.6391C27.0356 54.3464 35.5208 55.6134 41.1295 61.3425C44.6704 64.9593 50.3719 65.341 54.3655 62.2288L60.1636 57.7106C67.4507 52.0322 77.7515 52.307 84.7236 58.3659L96.012 68.1759L90.5431 74.4371L79.2547 64.6274C75.2903 61.1819 69.4328 61.0255 65.2893 64.2545L59.4912 68.7729C52.1535 74.4906 41.6786 73.7894 35.1731 67.1444C31.3902 63.2803 25.2032 63.1455 21.2547 66.8411L20 68.0155C20.939 77.3097 24.7454 85.7602 30.5234 92.473L40.0305 84.343C47.4133 78.0294 58.5033 78.7684 64.9788 86.0052C68.3623 89.7866 74.1243 90.2564 78.0785 87.0737L78.8516 86.4518Z" fill="url(#paint0_linear_3713_67912)"/>
</g>
<defs>
<linearGradient id="paint0_linear_3713_67912" x1="64.5" y1="19" x2="64.5" y2="108" gradientUnits="userSpaceOnUse">
<stop stop-color="#85365C"/>
<stop offset="1" stop-color="#CF4A47"/>
</linearGradient>
<clipPath id="clip0_3713_67912">
<rect width="128" height="128" fill="white"/>
</clipPath>
</defs>
</svg>
