<svg width="128" height="128" viewBox="0 0 128 128" fill="none" xmlns="http://www.w3.org/2000/svg">
<rect width="128" height="128" fill="black"/>
<g clip-path="url(#clip0_2544_59816)">
<path d="M99.6293 82.671L87.7435 95.142C87.4851 95.4129 87.1725 95.6289 86.8251 95.7765C86.4777 95.9241 86.1029 96.0002 85.7243 96H29.3799C29.111 96 28.848 95.9231 28.6232 95.7789C28.3984 95.6347 28.2215 95.4293 28.1144 95.1881C28.0072 94.9469 27.9744 94.6803 28.02 94.4211C28.0656 94.1618 28.1876 93.9213 28.371 93.729L40.2657 81.258C40.5234 80.9878 40.835 80.7723 41.1813 80.6247C41.5276 80.4771 41.9011 80.4006 42.2789 80.4H98.6202C98.889 80.4 99.152 80.4769 99.377 80.6211C99.6015 80.7653 99.7783 80.9707 99.886 81.2119C99.9929 81.4532 100.026 81.7197 99.9801 81.9789C99.9344 82.2381 99.8125 82.4787 99.6293 82.671ZM87.7435 57.558C87.4851 57.2871 87.1725 57.0711 86.8251 56.9235C86.4777 56.7759 86.1029 56.6998 85.7243 56.7H29.3799C29.111 56.7 28.848 56.7768 28.6232 56.9211C28.3984 57.0654 28.2215 57.2707 28.1144 57.5119C28.0072 57.7531 27.9744 58.0197 28.02 58.279C28.0656 58.5381 28.1876 58.7787 28.371 58.971L40.2657 71.442C40.5234 71.7122 40.835 71.9277 41.1813 72.0753C41.5276 72.2229 41.9011 72.2994 42.2789 72.3H98.6202C98.889 72.3 99.152 72.2232 99.377 72.0789C99.6015 71.9346 99.7783 71.7293 99.886 71.4881C99.9929 71.2469 100.026 70.9803 99.9801 70.721C99.9344 70.4619 99.8125 70.2213 99.6293 70.029L87.7435 57.558ZM29.3799 48.6H85.7243C86.1029 48.6002 86.4777 48.5241 86.8251 48.3765C87.1725 48.2289 87.4851 48.0129 87.7435 47.742L99.6293 35.271C99.8125 35.0787 99.9344 34.8382 99.9801 34.5789C100.026 34.3197 99.9929 34.0531 99.886 33.8119C99.7783 33.5707 99.6015 33.3653 99.377 33.2211C99.152 33.0769 98.889 33 98.6202 33H42.2789C41.9011 33.0006 41.5276 33.0771 41.1813 33.2247C40.835 33.3723 40.5234 33.5878 40.2657 33.858L28.3741 46.329C28.1908 46.5211 28.0689 46.7614 28.0232 47.0203C27.9775 47.2792 28.01 47.5456 28.1168 47.7867C28.2236 48.0279 28.4 48.2332 28.6243 48.3777C28.8487 48.5221 29.1113 48.5994 29.3799 48.6Z" fill="url(#paint0_linear_2544_59816)"/>
</g>
<defs>
<linearGradient id="paint0_linear_2544_59816" x1="34.0776" y1="97.5015" x2="91.7202" y2="31.0832" gradientUnits="userSpaceOnUse">
<stop offset="0.08" stop-color="#9945FF"/>
<stop offset="0.3" stop-color="#8752F3"/>
<stop offset="0.5" stop-color="#5497D5"/>
<stop offset="0.6" stop-color="#43B4CA"/>
<stop offset="0.72" stop-color="#28E0B9"/>
<stop offset="0.97" stop-color="#19FB9B"/>
</linearGradient>
<clipPath id="clip0_2544_59816">
<rect width="72" height="63" fill="white" transform="translate(28 33)"/>
</clipPath>
</defs>
</svg>
