<svg width="128" height="128" viewBox="0 0 128 128" fill="none" xmlns="http://www.w3.org/2000/svg">
<g clip-path="url(#clip0_2544_57152)">
<rect width="128" height="128" fill="#4CA3FF"/>
<path fill-rule="evenodd" clip-rule="evenodd" d="M84.0674 57.293L84.0658 57.2964C87.4399 61.5272 89.4565 66.8858 89.4565 72.7141C89.4565 78.629 87.3796 84.0604 83.9145 88.3198L83.6162 88.6866L83.5371 88.2205C83.4697 87.8241 83.3908 87.4239 83.2989 87.0205C81.5646 79.401 75.9144 72.8674 66.6151 67.577C60.3353 64.0144 56.7408 59.7244 55.797 54.8505C55.1875 51.6986 55.6406 48.5328 56.5164 45.8213C57.3918 43.1106 58.6941 40.8395 59.8005 39.4722L63.4186 35.0479C64.053 34.2722 65.2403 34.2722 65.8747 35.0479L84.0674 57.293ZM89.7893 52.8734L65.5428 23.2239C65.0799 22.6579 64.2131 22.6579 63.7503 23.2239L39.503 52.8721L39.4248 52.9717C34.9629 58.5084 32.2927 65.5448 32.2927 73.2043C32.2927 91.0433 46.7777 105.505 64.6465 105.505C82.5155 105.505 97.0003 91.0433 97.0003 73.2043C97.0003 65.5448 94.3302 58.5084 89.8684 52.9717L89.7893 52.8734ZM45.3047 57.1974L47.4744 54.5443L47.54 55.0337C47.5919 55.4217 47.6548 55.8115 47.7295 56.2029C49.1328 63.5656 54.1456 69.7046 62.5266 74.4593C69.8118 78.6057 74.0534 83.3734 75.2755 88.6026C75.7854 90.785 75.8765 92.9319 75.6555 94.8091L75.642 94.9254L75.5368 94.9767C72.2488 96.583 68.5525 97.4846 64.6457 97.4846C50.9436 97.4846 39.8352 86.3949 39.8352 72.7141C39.8352 66.8404 41.883 61.4433 45.3047 57.1974Z" fill="white"/>
</g>
<defs>
<clipPath id="clip0_2544_57152">
<rect width="128" height="128" fill="white"/>
</clipPath>
</defs>
</svg>
