<svg width="466" height="128" viewBox="0 0 466 128" fill="none" xmlns="http://www.w3.org/2000/svg">
<g clip-path="url(#clip0_4958_38276)">
<path d="M262.685 101.176C260.358 104.488 257.27 106.949 253.421 108.56C249.572 110.082 245.276 110.843 240.532 110.843C236.772 110.843 233.327 110.396 230.193 109.5C227.151 108.605 224.465 107.262 222.138 105.473C219.811 103.593 217.976 101.31 216.633 98.6251C215.29 95.8507 214.62 92.7175 214.62 89.2267C214.62 85.3782 215.38 82.1109 216.902 79.4257C218.424 76.6512 220.482 74.4135 223.078 72.7124C225.763 71.0119 228.896 69.7589 232.476 68.9533C236.056 68.0584 239.816 67.6109 243.754 67.6109H261.88C261.88 62.4191 260.716 58.3916 258.389 55.5272C256.061 52.663 251.989 51.1861 246.171 51.0966C242.769 51.0966 239.816 51.6784 237.31 52.842C234.893 54.0056 233.282 55.93 232.476 58.615H216.767C217.305 54.8559 218.513 51.6784 220.392 49.0827C222.362 46.487 224.689 44.3387 227.374 42.6381C230.149 40.9375 233.192 39.7291 236.504 39.0131C239.905 38.297 243.307 37.939 246.708 37.939C251.094 37.939 255.166 38.5207 258.925 39.6844C262.685 40.848 265.952 42.8171 268.726 45.5919C271.86 48.8141 273.963 52.663 275.037 57.1385C276.111 61.6135 276.648 66.4921 276.648 71.7726V109.903H263.356L262.685 101.176ZM261.88 78.4859H247.111C244.515 78.4859 241.919 78.7099 239.324 79.1573C236.728 79.5155 234.49 80.4553 232.61 81.9767C230.82 83.4088 229.925 85.5124 229.925 88.2869C229.925 91.6884 231.134 94.2838 233.55 96.0741C236.056 97.7746 239.1 98.6251 242.68 98.6251C245.455 98.6251 248.006 98.2669 250.333 97.5512C252.749 96.8348 254.808 95.6716 256.509 94.0603C258.21 92.3599 259.507 90.2563 260.403 87.7502C261.387 85.1542 261.88 82.066 261.88 78.4859Z" fill="#0B101B"/>
<path d="M301.809 9.74414C304.584 9.74414 306.867 10.5944 308.657 12.2951C310.536 13.9958 311.476 16.3229 311.476 19.2767C311.476 22.1409 310.536 24.4234 308.657 26.124C306.867 27.8246 304.584 28.675 301.809 28.675C298.856 28.675 296.484 27.8246 294.694 26.124C292.903 24.4234 292.008 22.1409 292.008 19.2767C292.008 16.3229 292.903 13.9958 294.694 12.2951C296.484 10.5944 298.856 9.74414 301.809 9.74414ZM294.022 109.903V39.1474H309.328V109.903H294.022Z" fill="#0B101B"/>
<path d="M430.974 37.939C436.613 37.939 441.581 38.8341 445.877 40.6242C450.174 42.4144 453.799 44.9206 456.752 48.1428C459.796 51.2756 462.078 55.0797 463.6 59.5548C465.121 64.0303 465.882 68.9982 465.882 74.4578C465.882 80.0073 465.121 85.0201 463.6 89.4956C462.168 93.8813 459.975 97.6853 457.021 100.908C454.067 104.13 450.397 106.591 446.011 108.292C441.715 109.992 436.702 110.843 430.974 110.843C425.335 110.843 420.367 109.992 416.071 108.292C411.775 106.502 408.15 104.04 405.196 100.908C402.331 97.6853 400.139 93.8363 398.617 89.3608C397.185 84.8859 396.469 79.918 396.469 74.4578C396.469 68.9982 397.185 64.0303 398.617 59.5548C400.139 55.0797 402.376 51.2756 405.33 48.1428C408.284 44.9206 411.909 42.4144 416.205 40.6242C420.502 38.8341 425.425 37.939 430.974 37.939ZM430.974 97.5512C434.465 97.5512 437.419 96.969 439.835 95.8058C442.342 94.5527 444.355 92.8965 445.877 90.8379C447.488 88.7792 448.652 86.3624 449.368 83.5879C450.173 80.8129 450.576 77.8144 450.576 74.5926C450.576 71.3701 450.173 68.3716 449.368 65.5966C448.652 62.7323 447.488 60.2712 445.877 58.2125C444.355 56.1538 442.342 54.5426 439.835 53.379C437.419 52.2155 434.465 51.6336 430.974 51.6336C427.573 51.6336 424.664 52.2155 422.247 53.379C419.83 54.5426 417.817 56.1538 416.205 58.2125C414.594 60.2712 413.386 62.7323 412.58 65.5966C411.864 68.3716 411.506 71.3701 411.506 74.5926C411.506 77.8144 411.864 80.8129 412.58 83.5879C413.386 86.3624 414.549 88.7792 416.071 90.8379C417.682 92.8965 419.696 94.5527 422.113 95.8058C424.619 96.969 427.573 97.5512 430.974 97.5512Z" fill="#0B101B"/>
<path d="M353.222 68.0135H342.212V17.7876H327.041V109.903H342.212V81.3052H354.162L372.824 109.903H390.547L366.379 72.8471L388.667 39.1473H371.481L353.222 68.0135Z" fill="#0B101B"/>
<path d="M204.27 38.9463H186.147V17.7876H181.464L159.439 47.7118V51.5814H170.749V86.6015C170.749 94.8682 172.611 100.819 176.336 104.452C180.151 108.086 186.465 109.903 195.276 109.903H203.725V96.549H196.639C192.551 96.549 189.78 95.5497 188.327 93.5511C186.873 91.5525 186.147 88.5092 186.147 84.421V51.5814H204.27V38.9463Z" fill="#0B101B"/>
<path d="M139.372 103.22L114.977 70.076C112.327 66.4746 108.403 64.3171 104.223 63.8416C103.272 63.731 102.423 63.1792 101.947 62.3466C101.463 61.5141 101.412 60.5035 101.794 59.6199C103.468 55.7638 103.569 51.2874 101.769 47.1933L85.2648 9.49665C82.8188 3.89904 77.289 0.289062 71.1815 0.289062C65.0745 0.289062 59.5447 3.90753 57.0987 9.49665L40.5946 47.1933C38.8023 51.2874 38.8958 55.7638 40.5691 59.6199C40.9513 60.5035 40.8918 61.5141 40.4162 62.3466C39.932 63.1792 39.0911 63.731 38.1397 63.8416C33.9607 64.3171 30.0364 66.4746 27.3863 70.076L2.99134 103.22C-0.627127 108.138 -0.992377 114.729 2.05699 120.021C5.11486 125.305 11.0097 128.286 17.0745 127.615L57.9733 123.062C62.4157 122.569 66.2467 120.251 68.7439 116.87C69.3131 116.097 70.222 115.638 71.1815 115.638C72.1415 115.638 73.042 116.097 73.6196 116.87C76.1168 120.251 79.9478 122.569 84.3902 123.062L125.289 127.615C131.354 128.295 137.249 125.313 140.307 120.021C143.356 114.729 142.991 108.138 139.372 103.22ZM51.2631 51.9245L67.7923 14.1854C68.3874 12.8348 69.7207 11.9599 71.1899 11.9599C72.6597 11.9599 73.993 12.8348 74.5881 14.1854L91.1175 51.9245C91.6356 53.1137 91.525 54.4897 90.8115 55.5769C90.098 56.6641 88.8921 57.3181 87.584 57.3181H54.7882C53.4886 57.3181 52.2739 56.6641 51.5604 55.5769C50.8469 54.4897 50.7365 53.1137 51.2546 51.9245H51.2631ZM59.7485 109.378C59.1624 110.542 58.0244 111.323 56.7332 111.468L15.7919 116.021C14.3309 116.182 12.9039 115.469 12.1649 114.194C11.4259 112.92 11.5194 111.332 12.3943 110.143L36.8147 76.965C37.5877 75.9202 38.8278 75.3257 40.1274 75.4021C41.427 75.47 42.5991 76.1919 43.2532 77.3215L43.2787 77.3642L59.63 105.684L59.6553 105.726C60.3093 106.856 60.343 108.232 59.7569 109.387L59.7485 109.378ZM74.5454 96.5692C73.8487 97.7667 72.5749 98.5145 71.1815 98.5145C69.7971 98.5145 68.5148 97.7757 67.8181 96.5776L55.2553 74.8244C54.5588 73.6269 54.5588 72.1403 55.2553 70.9428C55.9518 69.7448 57.2261 68.9976 58.6189 68.9976H83.7361C85.1206 68.9976 86.4028 69.728 87.0995 70.9344C87.7962 72.1403 87.7962 73.6185 87.0995 74.816L74.5454 96.5692ZM130.207 114.194C129.468 115.469 128.049 116.191 126.58 116.029L85.6387 111.476C84.3475 111.332 83.2095 110.55 82.6234 109.387C82.0373 108.223 82.071 106.847 82.7251 105.726L82.7509 105.684L99.1018 77.3642L99.127 77.3215C99.7811 76.1919 100.953 75.47 102.253 75.4021C103.553 75.3341 104.793 75.9202 105.566 76.965L129.986 110.143C130.861 111.332 130.946 112.92 130.215 114.194H130.207Z" fill="#E81899"/>
</g>
<defs>
<clipPath id="clip0_4958_38276">
<rect width="465.965" height="128" fill="white"/>
</clipPath>
</defs>
</svg>
