<svg width="128" height="128" viewBox="0 0 128 128" fill="none" xmlns="http://www.w3.org/2000/svg">
<rect width="128" height="128" transform="translate(0 0.53418)" fill="#F1F3F4"/>
<path d="M105.495 87.4598L91.0558 67.8416C89.487 65.7099 87.1642 64.4329 84.6906 64.1514C84.1277 64.0859 83.6249 63.7593 83.3431 63.2665C83.0567 62.7737 83.0264 62.1755 83.2527 61.6525C84.2433 59.3701 84.3035 56.7205 83.2378 54.2971L73.4689 31.9842C72.021 28.6709 68.7479 26.5342 65.1328 26.5342C61.5181 26.5342 58.2449 28.676 56.7971 31.9842L47.0282 54.2971C45.9674 56.7205 46.0227 59.3701 47.0131 61.6525C47.2394 62.1755 47.2042 62.7737 46.9226 63.2665C46.636 63.7593 46.1383 64.0859 45.5752 64.1514C43.1016 64.4329 40.7788 65.7099 39.2102 67.8416L24.7706 87.4598C22.6288 90.3708 22.4126 94.2723 24.2175 97.4045C26.0275 100.532 29.5167 102.297 33.1065 101.9L57.3148 99.2046C59.9443 98.9128 62.2119 97.5404 63.69 95.5393C64.0269 95.0818 64.5649 94.8103 65.1328 94.8103C65.701 94.8103 66.2341 95.0818 66.576 95.5393C68.0541 97.5404 70.3217 98.9128 72.9511 99.2046L97.1594 101.9C100.749 102.302 104.238 100.537 106.048 97.4045C107.853 94.2723 107.637 90.3708 105.495 87.4598ZM53.343 57.0976L63.1267 34.7595C63.479 33.9601 64.2682 33.4422 65.1378 33.4422C66.0078 33.4422 66.797 33.9601 67.1492 34.7595L76.9331 57.0976C77.2398 57.8014 77.1743 58.6159 76.752 59.2595C76.3296 59.903 75.6158 60.2901 74.8416 60.2901H55.4295C54.6603 60.2901 53.9413 59.903 53.519 59.2595C53.0966 58.6159 53.0313 57.8014 53.3379 57.0976H53.343ZM58.3656 91.1048C58.0186 91.7937 57.3451 92.2562 56.5808 92.3416L32.3473 95.0366C31.4826 95.1319 30.6379 94.7099 30.2005 93.9556C29.7631 93.2013 29.8184 92.2612 30.3363 91.5574L44.7909 71.9192C45.2484 71.3008 45.9824 70.9489 46.7517 70.9941C47.5209 71.0343 48.2147 71.4616 48.6019 72.1302L48.617 72.1555L58.2954 88.918L58.3104 88.9429C58.6975 89.6118 58.7175 90.4263 58.3705 91.1098L58.3656 91.1048ZM67.124 83.5231C66.7116 84.2319 65.9576 84.6745 65.1328 84.6745C64.3134 84.6745 63.5544 84.2372 63.142 83.5281L55.706 70.6522C55.2938 69.9434 55.2938 69.0634 55.706 68.3546C56.1183 67.6455 56.8725 67.2032 57.697 67.2032H72.564C73.3835 67.2032 74.1424 67.6355 74.5548 68.3497C74.9672 69.0634 74.9672 69.9384 74.5548 70.6472L67.124 83.5231ZM100.07 93.9556C99.6331 94.7099 98.7934 95.1373 97.9237 95.0416L73.6902 92.3466C72.9259 92.2612 72.2523 91.7987 71.9054 91.1098C71.5585 90.4213 71.5784 89.6065 71.9655 88.9429L71.9808 88.918L81.659 72.1555L81.674 72.1302C82.0611 71.4616 82.755 71.0343 83.5242 70.9941C84.2935 70.9539 85.0275 71.3008 85.4851 71.9192L99.9398 91.5574C100.458 92.2612 100.508 93.2013 100.075 93.9556H100.07Z" fill="#E81899"/>
</svg>
