<svg width="128" height="128" viewBox="0 0 128 128" fill="none" xmlns="http://www.w3.org/2000/svg">
<path d="M105.495 86.9256L91.0558 67.3074C89.487 65.1757 87.1642 63.8987 84.6906 63.6172C84.1277 63.5518 83.6249 63.2251 83.3431 62.7323C83.0567 62.2395 83.0264 61.6414 83.2527 61.1183C84.2433 58.8359 84.3035 56.1863 83.2378 53.7629L73.4689 31.45C72.021 28.1368 68.7479 26 65.1328 26C61.5181 26 58.2449 28.1418 56.7971 31.45L47.0282 53.7629C45.9674 56.1863 46.0227 58.8359 47.0131 61.1183C47.2394 61.6414 47.2042 62.2395 46.9226 62.7323C46.636 63.2251 46.1383 63.5518 45.5752 63.6172C43.1016 63.8987 40.7788 65.1757 39.2102 67.3074L24.7706 86.9256C22.6288 89.8366 22.4126 93.7381 24.2175 96.8703C26.0275 99.9976 29.5167 101.762 33.1065 101.365L57.3148 98.6704C59.9443 98.3787 62.2119 97.0063 63.69 95.0052C64.0269 94.5476 64.5649 94.2761 65.1328 94.2761C65.701 94.2761 66.2341 94.5476 66.576 95.0052C68.0541 97.0063 70.3217 98.3787 72.9511 98.6704L97.1594 101.365C100.749 101.767 104.238 100.003 106.048 96.8703C107.853 93.7381 107.637 89.8366 105.495 86.9256ZM53.343 56.5634L63.1267 34.2253C63.479 33.4259 64.2682 32.9081 65.1378 32.9081C66.0078 32.9081 66.797 33.4259 67.1492 34.2253L76.9331 56.5634C77.2398 57.2673 77.1743 58.0817 76.752 58.7253C76.3296 59.3688 75.6158 59.7559 74.8416 59.7559H55.4295C54.6603 59.7559 53.9413 59.3688 53.519 58.7253C53.0966 58.0817 53.0313 57.2673 53.3379 56.5634H53.343ZM58.3656 90.5706C58.0186 91.2595 57.3451 91.722 56.5808 91.8074L32.3473 94.5024C31.4826 94.5978 30.6379 94.1757 30.2005 93.4214C29.7631 92.6671 29.8184 91.727 30.3363 91.0232L44.7909 71.385C45.2484 70.7666 45.9824 70.4147 46.7517 70.4599C47.5209 70.5001 48.2147 70.9275 48.6019 71.596L48.617 71.6213L58.2954 88.3838L58.3104 88.4087C58.6975 89.0776 58.7175 89.8921 58.3705 90.5756L58.3656 90.5706ZM67.124 82.9889C66.7116 83.6977 65.9576 84.1403 65.1328 84.1403C64.3134 84.1403 63.5544 83.703 63.142 82.9939L55.706 70.118C55.2938 69.4092 55.2938 68.5293 55.706 67.8205C56.1183 67.1113 56.8725 66.669 57.697 66.669H72.564C73.3835 66.669 74.1424 67.1014 74.5548 67.8155C74.9672 68.5293 74.9672 69.4042 74.5548 70.113L67.124 82.9889ZM100.07 93.4214C99.6331 94.1757 98.7934 94.6031 97.9237 94.5074L73.6902 91.8124C72.9259 91.727 72.2523 91.2645 71.9054 90.5756C71.5585 89.8871 71.5784 89.0723 71.9655 88.4087L71.9808 88.3838L81.659 71.6213L81.674 71.596C82.0611 70.9275 82.755 70.5001 83.5242 70.4599C84.2935 70.4197 85.0275 70.7666 85.4851 71.385L99.9398 91.0232C100.458 91.727 100.508 92.6671 100.075 93.4214H100.07Z" fill="#E81899"/>
</svg>
