<svg width="131" height="35" viewBox="0 0 131 35" fill="none" xmlns="http://www.w3.org/2000/svg">
<path d="M38.2978 5.3999V14.5003C34.7794 16.0381 30.8942 16.891 26.8084 16.891C22.7227 16.891 18.8356 16.0381 15.3191 14.5003V5.3999C18.8375 6.93772 22.7227 7.79065 26.8084 7.79065C30.8942 7.79065 34.7794 6.93772 38.2978 5.3999Z" fill="#231F20"/>
<path d="M38.2978 28.6103V19.5099C34.7794 17.9721 30.8942 17.1191 26.8084 17.1191C22.7227 17.1191 18.8356 17.9721 15.3191 19.5099V28.6103C18.8375 27.0725 22.7227 26.2195 26.8084 26.2195C30.8942 26.2195 34.7794 27.0725 38.2978 28.6103Z" fill="#231F20"/>
<path d="M44.9999 10.3242H47.833L50.1816 18.0399C50.4428 18.9164 50.7589 20.1651 50.7589 20.1651H50.7968C50.7968 20.1651 51.1129 18.8981 51.3741 18.0399L53.7044 10.3242H56.4435L51.9515 23.6501H49.4919L44.9999 10.3242Z" fill="#231F20"/>
<path d="M57.7079 10.3242H60.4104V23.6501H57.7079V10.3242Z" fill="#231F20"/>
<path d="M61.714 17.0329C61.714 13.0816 64.1749 10.063 68.1065 10.063C71.3864 10.063 73.3248 12.0197 73.6043 14.555H70.9201C70.6784 13.2135 69.6713 12.3371 68.1065 12.3371C65.6456 12.3371 64.4727 14.3865 64.4727 17.0342C64.4727 19.6818 65.8886 21.7117 68.1261 21.7117C69.7105 21.7117 70.8286 20.7608 70.9958 19.3631H73.6422C73.5677 20.5374 73.0649 21.6738 72.1701 22.5124C71.2571 23.3692 69.9705 23.9283 68.1261 23.9283C64.3799 23.9283 61.7153 21.0403 61.7153 17.0329H61.714Z" fill="#231F20"/>
<path d="M74.3488 10.3242H85.0649V12.5983H81.0575V23.6501H78.355V12.5983H74.3475V10.3242H74.3488Z" fill="#231F20"/>
<path d="M86.4429 10.3242H89.1455V23.6501H86.4429V10.3242Z" fill="#231F20"/>
<path d="M90.6358 17.0146C90.6358 13.0268 93.1333 10.063 97.0663 10.063C100.999 10.063 103.477 13.0268 103.477 17.0146C103.477 21.0024 100.998 23.9479 97.0663 23.9479C93.1346 23.9479 90.6358 21.0037 90.6358 17.0146ZM100.718 17.0146C100.718 14.3499 99.5258 12.2809 97.0845 12.2809C94.6433 12.2809 93.3945 14.3499 93.3945 17.0146C93.3945 19.6792 94.6433 21.73 97.0845 21.73C99.5258 21.73 100.718 19.6609 100.718 17.0146Z" fill="#231F20"/>
<path d="M104.947 10.3242H107.686L112.122 17.7604C112.55 18.4867 113.053 19.6244 113.053 19.6244H113.091C113.091 19.6244 113.016 18.245 113.016 17.3137V10.3242H115.681V23.6501H113.071L108.524 16.2883C108.096 15.5804 107.573 14.4427 107.573 14.4427H107.537C107.537 14.4427 107.611 15.8403 107.611 16.7729V23.6501H104.947V10.3242Z" fill="#231F20"/>
</svg>
