<svg width="128" height="128" viewBox="0 0 128 128" fill="none" xmlns="http://www.w3.org/2000/svg">
<rect width="128" height="128" fill="#F1F3F4"/>
<path d="M102.658 25V55.7555C90.7677 60.9527 77.6374 63.8353 63.8292 63.8353C50.0209 63.8353 36.8845 60.9527 25 55.7555V25C36.8906 30.1972 50.0209 33.0797 63.8292 33.0797C77.6374 33.0797 90.7677 30.1972 102.658 25Z" fill="#231F20"/>
<path d="M102.658 103.44V72.6847C90.7677 67.4875 77.6374 64.605 63.8292 64.605C50.0209 64.605 36.8845 67.4875 25 72.6847V103.44C36.8906 98.2431 50.0209 95.3605 63.8292 95.3605C77.6374 95.3605 90.7677 98.2431 102.658 103.44Z" fill="#231F20"/>
</svg>
