<svg width="138" height="34" viewBox="0 0 138 34" fill="none" xmlns="http://www.w3.org/2000/svg">
<g clip-path="url(#clip0_13607_48385)">
<path d="M137.558 7.02148V12.7461H135.126C132.507 12.7461 131.197 14.1803 131.197 17.0488V26.3279H124.724V7.02148H130.674L131.197 9.86505C131.771 8.9172 132.482 8.20633 133.33 7.7324C134.178 7.25842 135.275 7.02148 136.623 7.02148H137.558Z" fill="black"/>
<path d="M101.759 16.7499C101.759 14.7295 102.171 12.971 102.994 11.4743C103.842 9.97769 105.014 8.8303 106.511 8.03209C108.033 7.20892 109.791 6.79736 111.787 6.79736C113.832 6.79736 115.628 7.18401 117.175 7.95724C118.746 8.73053 119.968 9.82804 120.841 11.2498C121.714 12.6467 122.151 14.268 122.151 16.1138C122.151 16.912 122.088 17.6105 121.964 18.2091H108.494V18.2839C108.819 20.6786 110.065 21.8758 112.236 21.8758C114.082 21.8758 115.191 21.165 115.565 19.7431H121.926C121.752 20.9903 121.265 22.1377 120.467 23.1854C119.694 24.2081 118.633 25.0312 117.287 25.6548C115.965 26.2534 114.431 26.5528 112.684 26.5528C110.415 26.5528 108.457 26.1537 106.81 25.3555C105.164 24.5573 103.904 23.4224 103.031 21.9507C102.183 20.479 101.759 18.7454 101.759 16.7499ZM115.752 14.243C115.578 13.3202 115.166 12.6217 114.518 12.1478C113.894 11.649 113.096 11.3995 112.123 11.3995C111.126 11.3995 110.315 11.649 109.691 12.1478C109.093 12.6217 108.719 13.3202 108.569 14.243H115.752Z" fill="black"/>
<path d="M86.8041 7.02148L90.8453 19.855L94.8488 7.02148H101.77L93.3895 28.7973C92.9406 29.9946 92.4917 30.9425 92.0428 31.6409C91.6183 32.3393 91.0695 32.8756 90.3964 33.2498C89.7478 33.6239 88.9121 33.811 87.8894 33.811H81.9777V28.4606H85.0085C85.6072 28.4606 86.0561 28.3733 86.3552 28.1987C86.6548 28.0241 86.8918 27.6749 87.066 27.151L87.3279 26.4402L79.9202 7.02148H86.8041Z" fill="black"/>
<path d="M80.6415 21.0153V26.3283H77.386C76.1142 26.3283 75.1915 26.0664 74.6177 25.5426C74.044 24.9938 73.7571 24.258 73.7571 23.3351V23.1854C73.0335 24.3078 72.1729 25.1559 71.1752 25.7296C70.1775 26.2784 68.9801 26.5528 67.5834 26.5528C65.4133 26.5528 63.6548 26.0664 62.3076 25.0936C60.9858 24.0958 60.325 22.6865 60.325 20.8656C60.325 18.7454 61.1356 17.1116 62.757 15.9642C64.3784 14.8168 66.7228 14.243 69.7908 14.243H72.6345V13.4948C72.6345 12.8213 72.3599 12.285 71.8116 11.8859C71.2878 11.4618 70.5892 11.2498 69.7159 11.2498C68.9179 11.2498 68.257 11.4244 67.7332 11.7736C67.2344 12.0979 66.9597 12.5469 66.9098 13.1206H60.699C60.8737 11.1002 61.7838 9.54116 63.4301 8.44365C65.0765 7.34614 67.2716 6.79736 70.0155 6.79736C72.8837 6.79736 75.1038 7.39603 76.6752 8.59331C78.2467 9.79064 79.0324 11.5491 79.0324 13.8689V19.8554C79.0324 20.3044 79.12 20.6162 79.2943 20.7908C79.494 20.9405 79.8059 21.0153 80.2298 21.0153H80.6415ZM72.6345 18.2465H69.9034C68.9551 18.2465 68.2071 18.4461 67.6583 18.8452C67.1095 19.2193 66.8349 19.7307 66.8349 20.3792C66.8349 20.9031 67.0224 21.3271 67.3964 21.6513C67.7954 21.9507 68.3192 22.1003 68.9679 22.1003C70.0654 22.1003 70.9383 21.7636 71.5869 21.0901C72.2605 20.3917 72.6096 19.4688 72.6345 18.3213V18.2465Z" fill="black"/>
<path d="M42.2283 26.3276V0.136719H49.1127V20.4908H58.691V26.3276H42.2283Z" fill="black"/>
<mask id="mask0_13607_48385" style="mask-type:alpha" maskUnits="userSpaceOnUse" x="27" y="17" width="4" height="10">
<path d="M27.624 17.5366H30.5759V26.2268H27.624V17.5366Z" fill="black"/>
</mask>
<g mask="url(#mask0_13607_48385)">
<path d="M29.994 17.5366H22.4624C22.1425 17.5366 21.8831 17.796 21.8831 18.1159V25.6473C21.8831 25.9673 22.1425 26.2267 22.4624 26.2267H29.994C30.3139 26.2267 30.5734 25.9673 30.5734 25.6473V18.1159C30.5734 17.796 30.3139 17.5366 29.994 17.5366Z" fill="black" fill-opacity="0.5"/>
</g>
<mask id="mask1_13607_48385" style="mask-type:alpha" maskUnits="userSpaceOnUse" x="27" y="0" width="4" height="9">
<path d="M27.624 0.136719H30.5759V8.82685H27.624V0.136719Z" fill="url(#paint0_linear_13607_48385)"/>
</mask>
<g mask="url(#mask1_13607_48385)">
<path d="M29.994 0.136719H22.4624C22.1425 0.136719 21.8831 0.396098 21.8831 0.716056V8.24747C21.8831 8.56744 22.1425 8.82679 22.4624 8.82679H29.994C30.3139 8.82679 30.5734 8.56744 30.5734 8.24747V0.716056C30.5734 0.396098 30.3139 0.136719 29.994 0.136719Z" fill="black" fill-opacity="0.5"/>
</g>
<mask id="mask2_13607_48385" style="mask-type:alpha" maskUnits="userSpaceOnUse" x="32" y="0" width="2" height="9">
<path d="M32.0647 0.136719H33.5332V8.82685H32.0647V0.136719Z" fill="black"/>
</mask>
<g mask="url(#mask2_13607_48385)">
<path d="M32.9522 0.136719H25.4206C25.1007 0.136719 24.8413 0.396098 24.8413 0.716056V8.24747C24.8413 8.56744 25.1007 8.82679 25.4206 8.82679H32.9522C33.2722 8.82679 33.5315 8.56744 33.5315 8.24747V0.716056C33.5315 0.396098 33.2722 0.136719 32.9522 0.136719Z" fill="black" fill-opacity="0.3"/>
</g>
<mask id="mask3_13607_48385" style="mask-type:alpha" maskUnits="userSpaceOnUse" x="32" y="17" width="2" height="10">
<path d="M32.0699 17.5366H33.5383V26.2268H32.0699V17.5366Z" fill="black"/>
</mask>
<g mask="url(#mask3_13607_48385)">
<path d="M32.9572 17.5366H25.4256C25.1056 17.5366 24.8462 17.796 24.8462 18.1159V25.6473C24.8462 25.9673 25.1056 26.2267 25.4256 26.2267H32.9572C33.2771 26.2267 33.5365 25.9673 33.5365 25.6473V18.1159C33.5365 17.796 33.2771 17.5366 32.9572 17.5366Z" fill="black" fill-opacity="0.3"/>
</g>
<path d="M16.8484 8.84766H9.3525C9.03407 8.84766 8.77588 9.10398 8.77588 9.42013V16.8623C8.77588 17.1785 9.03407 17.4348 9.3525 17.4348H16.8484C17.1669 17.4348 17.425 17.1785 17.425 16.8623V9.42013C17.425 9.10398 17.1669 8.84766 16.8484 8.84766Z" fill="black"/>
<path d="M8.17223 0.136719H0.640632C0.320664 0.136719 0.0612793 0.396098 0.0612793 0.716056V8.24747C0.0612793 8.56744 0.320664 8.82679 0.640632 8.82679H8.17223C8.49215 8.82679 8.75155 8.56744 8.75155 8.24747V0.716056C8.75155 0.396098 8.49215 0.136719 8.17223 0.136719Z" fill="black"/>
<path d="M25.5487 0.136719H18.0171C17.6972 0.136719 17.4377 0.396098 17.4377 0.716056V8.24747C17.4377 8.56744 17.6972 8.82679 18.0171 8.82679H25.5487C25.8686 8.82679 26.128 8.56744 26.128 8.24747V0.716056C26.128 0.396098 25.8686 0.136719 25.5487 0.136719Z" fill="black"/>
<path d="M8.17223 17.5166H0.640632C0.320664 17.5166 0.0612793 17.776 0.0612793 18.0959V25.6273C0.0612793 25.9473 0.320664 26.2067 0.640632 26.2067H8.17223C8.4922 26.2067 8.75155 25.9473 8.75155 25.6273V18.0959C8.75155 17.776 8.4922 17.5166 8.17223 17.5166Z" fill="black"/>
<path d="M25.5487 17.5166H18.0171C17.6972 17.5166 17.4377 17.776 17.4377 18.0959V25.6273C17.4377 25.9473 17.6972 26.2067 18.0171 26.2067H25.5487C25.8686 26.2067 26.128 25.9473 26.128 25.6273V18.0959C26.128 17.776 25.8686 17.5166 25.5487 17.5166Z" fill="black"/>
</g>
<defs>
<linearGradient id="paint0_linear_13607_48385" x1="27.3717" y1="4.9835" x2="30.5461" y2="4.34075" gradientUnits="userSpaceOnUse">
<stop/>
<stop offset="1" stop-color="white"/>
</linearGradient>
<clipPath id="clip0_13607_48385">
<rect width="137.594" height="34" fill="white"/>
</clipPath>
</defs>
</svg>
